<svg id="Layer_1" xmlns="http://www.w3.org/2000/svg" viewBox="0 0 200 200"><title>icons</title><style>.st0{fill:#010101}</style><path d="M128.75 141.35h1.6v-7.5h.2c.9 0 .9-3.4 0-3.4h-.2v-12.4h.2c.9 0 .9-3.4 0-3.4h-.2v-5.3h-1.6c0-1.5-1-2.8-2.3-3.4-11.9-4.6-20.4-16.1-20.4-29.6 0-4.6 2-13.8 3.2-21.2 1.3-5 4.8-26.4 1.8-37.3-2.7-9.9-10.8-17.9-10.8-17.9s-8.1 7.9-10.8 17.9c-3 11 1 32.3 2.3 37.3 1.2 7.4 3.2 16.5 3.2 21.2 0 13.5-8.5 25.1-20.4 29.7-1.3.5-2.3 1.8-2.3 3.4h-1.6v5.3h-.2c-.9 0-.9 3.4 0 3.4h.2v12.3h-.2c-.9 0-.9 3.4 0 3.4h.2v7.5h1.6c.1 6.4-.2 15.7-1 29.1-.8 13.5-1.6 22.8-2.5 29v.1c3.5.3 8.2.5 13.7.5l20.1-.7c11.9-.8 22.3-2 28.7-3.3l-2.5-54.7zm-24.4-122.3c0 2.1-1.7 3.9-3.9 3.9-2.1 0-3.9-1.7-3.9-3.9 0-2.1 1.7-3.9 3.9-3.9 2.2.1 3.9 1.8 3.9 3.9zm-30.1 99h52.6c.5 0 .9.7.9 1.6s-.4 1.6-.9 1.6h-52.6c-.5 0-.9-.7-.9-1.6s.4-1.6.9-1.6zm0 14.2h52.6c.5 0 .9.7.9 1.6s-.4 1.6-.9 1.6h-52.6c-.5 0-.9-.7-.9-1.6 0-.8.4-1.6.9-1.6zm0 38.2c.8-13.5 1-22.8 1-29.2h50.6l2 42.4c-.7 1.3-1.8 6.5-4.2 6.4-4.5-.2-3.6-3.2-6.7-3.2s-1.9 4.2-6.3 5-3.8-5-7.2-7.8c-3.4-2.9-5.2 2.9-8.2 6-3.1 3.1-4 3.5-8.6 2.4s-5.9-2.9-10.7-2.3c-1.9.2-2.9 1.4-3.4 2.7.5-5.7 1.1-13 1.7-22.4z" id="brush"/><g id="cabinet"><path d="M61.5 126.95l19.4.5c.5 0 .9-.6.9-1.3v-13.2c0-.7-.4-1.3-.9-1.3h-2.8v3.2c0 .7-.4 1.3-.9 1.3l-12.3-.2c-.5 0-.9-.6-.9-1.3v-3h-2.5c-.5 0-.9.6-.9 1.3v12.8c.1.7.5 1.2.9 1.2zm0-76.1l19.4-1.5c.5 0 .9-.6.9-1.4v-13.2c0-.7-.4-1.3-.9-1.2l-2.8.3v3.2c0 .7-.4 1.3-.9 1.4l-12.3 1c-.5 0-.9-.5-.9-1.2v-3l-2.5.2c-.5 0-.9.6-.9 1.4v12.8c.1.7.5 1.2.9 1.2z"/><path d="M113.1 17.85l-76.8 8.2v149.6l76.8 6.5 50.6-13V34.05l-50.6-16.2zm-5.3 158.8l-66.6-5.5v-67.8l66.6-.4v73.7zm0-82.5l-66.6 1v-64.8l66.6-6.9v70.7z"/><path d="M156.6 165.75l-42.7 11V23.45l42.7 13.7z"/></g><path d="M199.315 140.767l-26.258-31.986-2.534-3.287 1.255-2.603-16.434-21.95-2.229-1.082-6.76 2.058-4.217-15.86s-6.027-10.765-14.972-2.708c-8.943 8.048-13.623 11.646-13.626 11.653l-10.202 3.917-7.297 10.049-4.182-2.42 1.821-3.012-3.158-1.961-1.882 3.112-3.24-1.874 1.854-3.071L84.1 77.78l-1.917 3.172-3-1.738 2.071-3.412-3.159-1.965-2.127 3.518-2.944-1.705 1.953-3.228-3.153-1.963-2.019 3.329-3.477-2.008 1.821-3.011-3.156-1.962-1.879 3.109-2.702-1.561 1.876-3.114-3.156-1.963-1.944 3.21-3.237-1.872 1.914-3.168-3.158-1.96-1.975 3.269-2.916-1.688 1.636-2.724-3.155-1.963-1.702 2.822-2.973-1.718 1.69-2.803-3.156-1.961-1.75 2.902-2.709-1.562 1.755-2.908-3.16-1.962-1.81 3.003-2.704-1.562 1.811-3.006-3.155-1.963-1.874 3.1-2.144-1.242 1.736-2.875-3.155-1.963-1.798 2.969-2.412-1.395 1.644-2.735-3.154-1.96-1.728 2.868a8.513 8.513 0 0 0-3.229-.778l-.62-2.948-4.237 1.227 1.123 2.418a8.618 8.618 0 0 0-2.188 1.376l-2.43-2.481-2.784 3.552 3.011 1.926a8.428 8.428 0 0 0-.724 3.513l-3.062.007.478 4.229 3.475-.515a8.487 8.487 0 0 0 2.267 2.827l-2.26 2.854 3.454 2.23 1.971-3.135 2.41 1.392-1.82 2.892 3.155 1.96 1.883-2.991 2.144 1.239-1.744 2.77 3.158 1.959 1.807-2.868 2.701 1.567-1.806 2.868 3.158 1.962 1.867-2.967 2.708 1.564-1.865 2.966 3.156 1.96 1.927-3.065 2.972 1.719-1.915 3.043 3.156 1.964 1.977-3.15 2.914 1.688-1.636 2.603 3.154 1.96 1.702-2.704 3.237 1.876-1.675 2.66 3.158 1.96 1.736-2.76 2.707 1.565-1.74 2.763 3.157 1.96 1.8-2.861 3.475 2.014-1.603 2.537 3.157 1.96 1.662-2.633 2.942 1.707-1.488 2.36 3.156 1.96 1.55-2.458 3.003 1.739-1.7 2.696 3.156 1.963 1.76-2.8 3.237 1.877-1.736 2.757 3.155 1.964 1.797-2.86 7.033 4.07c-.619 1.682-1.326 3.69-1.849 5.415-1.15 3.796 3.441 9.472 3.441 9.472l11.996 6.954 16.187 9.214 26.626 10.37 3.334.237s28.312 12.102 33.78 14.065c5.474 1.963 10.215-2.623 10.215-2.623l4.142-8.546c2.796-5.752 1.551-8.871 1.551-8.871zM63.505 84.996l-53.12-30.643a4.611 4.611 0 0 1-2.228-3.943 4.605 4.605 0 0 1 6.792-4.046l65.299 38.198-16.741.434zm68.519-9.122l-8.125-2.023 6.866-7.977s5.467-4.314 7.403 2.588c1.241 4.43 1.221 7.892 1.63 10.614l-7.774-3.202zm45.522 69.755c-2.681 3.67-4.394 2.917-4.394 2.917l-14.044-7.941-9.033-5.98-3.863-6.231 3.782-7.8 4.13-2.362s.215-.092.602-.2c3.522-1.09 6.19-.756 10.356 3.41.02.02.046.044.064.065 5.52 5.65 12.46 13.59 12.46 13.59s5.213 3.334-.06 10.532z" id="chainsaw"/><path d="M176.971 17.81c1-4.5 0-6.9-4.3-7.1-2.7-.1-4.2 2.6-5 4.7-5.8-1.7-18.5-5-30.9-5.9-11.4-.8-25.1 0-32.5.5.3-7.6-7.8-4.7-9.4 1.8-1 4.2-8.7 39.5-14.7 67.3-10.6-.4-51.9-2-52.8-1.9-1 .2-1 1-1 3.5 0 1.8 5.2 2.2 8.3 2.3l-9 79.7c-1.4.2-2.4.4-2.6.7-1 1.4-.6 6.5 6.9 7.4 13.5 1.7 51.1-9.7 66.3-30l7.4 1.9-4.7 41.2c-2.1.5-3.9 1.7-3.2 6.6.2 1.6 4.3 4.2 9.9 4 5.6-.1 26.5-7.7 34.2-13.8 7.7-6.1 27.1-21.5 31.1-31.9.4-1.1 0-4.8 0-4.8s-3.3-1.3-4.4-1.2c-.6.1-6.2 6.1-13.6 13.2l.3-33.2c5.9-25.8 22.9-101.2 23.7-105zm-59.7 105.3l23.5 6s-13.7 3.2-24.8 3.9l1.3-9.9zm25.1-96.7c-2.7 12.5-13.9 59.4-15.3 65.5l-20.6-.5c2.4-10.8 11.8-56.1 14.2-66.4l21.7 1.4zm-31.8 70c-1.3 6.8-1.9 12-3 17.5l-6.1-1.5c.7-3 2-9.5 3.7-17.3.8.5 4 .9 5.4 1.3zm-13.4 15l-13.5-2.9c4.2-19.7 14.5-67.7 18.3-86.4l14.7 2c-2.1 9.8-18.2 82.1-19.5 87.3m-52.8-28.1h35c-2.4 11.2-4.5 20.7-5.6 25.9-4.3 2.4-10.8 4.5-17 5-4.9.4-11.1-1-15.7-2.3l3.3-28.6zm31.2 63.6c-6.2 4-13 7.8-19.7 10.3-6.6 2.5-14.1 3.8-20.3 4.6l4-35.2 36.2 9.3-.2 11zm8.4-5.7l.1-3.3 3.3.9c-1.1.8-2.2 1.6-3.4 2.4zm-38.5-23.2c19.5 4.7 31.7-4.7 31.7-4.7l29.6 7-1.5 12.1c-13.4-2.6-59.8-14.4-59.8-14.4zm97.8 47.2c-5.7 4.9-11.7 9.4-16.7 11.7-7.3 3.4-12.7 5-16.6 5.7l2.8-24.3 1.9-14.6 28.6-3.9v25.4zm5.9-69l-6 26.2-17.9-4.4c.7-3.3 2.6-11.5 4.9-21.7l19-.1zm15.7-69l-14.8 65-18.2-.3c2.3-10.5 15.4-65.2 15.4-65.2l17.6.5z" id="chair"/><g id="house"><path d="M175.822 113.215a4574.79 4574.79 0 0 1-18.483-12.82V62.437l5.056-3.55V49.64h-37.72v9.246l5.056 3.55v18.85a764.475 764.475 0 0 0-18.113-11.958l-.37-.235-.37-.235C94.426 58.32 84.57 54.379 71.025 59.418c-13.545 5.04-30.78 19.059-61.988 44.445l-4.147 3.374-4.146 3.374 17.403 18.728 4.155-3.378 4.156-3.378c14.266-11.61 25.33-20.61 33.92-27.143 8.59-6.533 14.707-10.598 19.077-12.337 1.801-.706 2.836-1.113 4.97-.352 2.135.762 5.367 2.691 11.563 6.658l.372.237.373.237a783.243 783.243 0 0 1 19.502 12.912c6.419 4.377 13.043 8.994 20.738 14.352a5412.012 5412.012 0 0 0 20.29 14.104 3751.498 3751.498 0 0 0 26.48 18.137l15.511-20.146a3718.337 3718.337 0 0 1-23.433-16.027z"/><path d="M97.452 122.273l3.513-1.42v-9.415H66.331v9.415l3.514 1.42v17.252l-3.514 1.42v9.415h34.634v-9.415l-3.513-1.42v-8.705z"/></g><g id="lock"><path d="M197.63 91.618c-1.855-9.102-10.727-14.971-19.828-13.118l-4.89.994c-5.453-15.735-16.981-26.638-30.1-26.638-18.784 0-33.915 21.225-33.915 47.15 0 25.938 15.13 47.138 33.915 47.138 14.94 0 27.804-14.123 32.02-33.416a63.216 63.216 0 0 0 1.116-11.882c0-2.473-.148-4.914-.391-7.292 3.262 5.989 4.379 10.633 4.043 17.898l4.912-1.006c9.102-1.851 14.986-10.741 13.119-19.828zm-66.471 22.288c-4.35 0-7.855-4.93-7.855-10.93 0-5.989 3.504-10.903 7.855-10.903 4.254 0 7.76 4.914 7.76 10.903-.002 6-3.506 10.93-7.76 10.93z"/><path class="st0" d="M83.078 103.759l-3.705-9.074-37.324-15.488c-.86-6.946-5.273-13.228-12.153-16.066-10.236-4.27-22.01.667-26.315 10.98-4.272 10.359.548 22.176 10.784 26.448 6.859 2.833 14.407 1.529 19.929-2.752l7.509 3.115 8.414-3.479 2.663 6.438 6.18-2.555 2.627 6.348 6.437-2.661 2.663 6.437 10.985-4.537c1.605-.704 1.975-1.513 1.306-3.154zM11.976 83.357c-2.727-1.161-4.002-4.302-2.848-7.015 1.12-2.771 4.245-4.084 6.978-2.935 2.697 1.104 3.975 4.245 2.85 7.015-1.152 2.713-4.276 4.028-6.98 2.935z"/></g><path d="M101.71 149.828l-64.704-23.225L3.62 133.58l.314 9.286 64.695 23.228 33.394-6.979-.314-9.287m-33.106 6.488L9.322 135.033l27.398-5.73m96.44-10.374L68.459 95.703l-33.384 6.979.314 9.285 64.694 23.228 33.394-6.979-.315-9.287m-33.106 6.487l-59.282-21.282 27.397-5.731m96.442-10.373L99.909 64.804l-33.385 6.978.315 9.286 64.695 23.229 33.392-6.98-.313-9.287m-33.107 6.487L72.225 73.235l27.397-5.731m96.442-10.374L131.36 33.906l-33.384 6.977.312 9.287 64.695 23.228 33.394-6.979-.314-9.289m-33.108 6.488l-59.28-21.283 27.395-5.731" id="stairs"/><path d="M54.61 99.827c-6.763 0-12.265-5.506-12.265-12.27a12.239 12.239 0 0 1 9.29-11.9l.935-.232.357-.893a18.466 18.466 0 0 1 14.966-11.484l1.579-.188.078-1.588c.735-15.058 13.13-26.852 28.216-26.852 10.852 0 20.876 6.35 25.54 16.179l.854 1.799 1.749-.956a25.746 25.746 0 0 1 12.319-3.136c14.204 0 25.76 11.556 25.76 25.76 0 14.205-11.556 25.76-25.76 25.76H54.61zm-3.152 41.086zm0 0zm0 0zm0 0zm0 0zm9.188-9.599c-2.356 9.004-1.008 13.47-1.665 23.146-.633 9.374-10.19 13.649-17.233 9.584-7.047-4.066-8.114-14.478-.312-19.717 8.047-5.398 12.58-6.466 19.21-13.013zm48.312 0c-2.356 9.004-1.007 13.47-1.664 23.146-.634 9.374-10.19 13.649-17.232 9.584-7.047-4.066-7.591-14.478.212-19.717 8.049-5.398 12.055-6.466 18.684-13.013zm49.364 0c-2.354 9.004-1.007 13.47-1.664 23.146-.634 9.374-10.19 13.649-17.232 9.584-7.05-4.066-8.114-14.478-.312-19.717 8.042-5.398 12.576-6.466 19.208-13.013z" id="rain"/><g id="saw"><path d="M54.596 74.85c-.7-.7-39.7-1.9-39.7-1.9s-4.3.3 1.4 9c-7.8 10.9-6.6 28.9-8 29.9-6.1 5.6-2.8 6.7-2.8 6.7s9 .1 17.7.1c7.9 0 15.5-.1 15.9-.3 1-.4 17-18 17.2-19.2.3-1.2-1-23.6-1.7-24.3zm-16.5 39.9c-1.1.1-2-.7-2.1-1.8-.1-1.1.7-2 1.8-2.1 1.1-.1 2 .7 2.1 1.8 0 1.1-.8 2-1.8 2.1zm3.8-18.9c-.8 2.1-8.1 14.2-12.2 17.8-1.4 1.2-2.8 1.6-4.2 1.6-2.7 0-4.8-1.6-4.8-1.7.1-.1-2.2-.4 2.1-10.4 4.3-10 6.7-23.3 6.5-23.8 0 0 4-.1 7.4-.1 2.4 0 4.5.1 4.7.3.4.4 1.2 14.2.5 16.3zm7.4 4.4c-1.1.1-2-.7-2.1-1.8-.1-1.1.7-2 1.8-2.1 1.1-.1 2 .7 2.1 1.8 0 1.1-.8 2-1.8 2.1zm.7-17.1c-1.1.1-2-.7-2.1-1.8s.7-2 1.8-2.1c1.1-.1 2 .7 2.1 1.8.1 1-.8 2-1.8 2.1z"/><path d="M189.996 83.35l.3 10.1c-41.2 4.8-78.4 11.7-115.6 21.1l32.9-32.8 82.4 1.6zm-130.5-8.1c.2 1.8.4 7.9.7 12.5 0 .1.8 12.8.5 14l-19.2 21.4 4 3.9c56-15.7 110.6-26.2 149.9-30.4-3.3-4.8-3.3-11.9-.7-17.1l-135.3-3.3v-1h.1z"/></g></svg>