<svg xmlns="http://www.w3.org/2000/svg" width="2391.012" height="154.949" viewBox="0 0 2391.012 154.949"><path fill="#F8F7F1" d="M63.625 90.94l3.413 1.386v16.736l-3.413 1.38v9.126H97.23v-9.126l-3.41-1.38V92.326l3.41-1.386v-9.129H63.625z"/><path fill="#F8F7F1" d="M151.919 71.092V34.264l4.903-3.445v-8.971h-36.591v8.971l4.908 3.445V52.55a744.191 744.191 0 0 0-17.576-11.6l-.362-.226-.36-.233c-15.959-10.217-25.521-14.039-38.66-9.155-13.137 4.888-29.857 18.487-60.136 43.12l-4.024 3.277L0 80.998 16.884 99.17l4.028-3.278 4.031-3.272c13.84-11.265 24.573-19.997 32.911-26.333 8.332-6.337 14.266-10.285 18.508-11.966 1.748-.69 2.753-1.086 4.819-.347 2.071.744 5.208 2.614 11.218 6.467l.36.229.359.23a773.32 773.32 0 0 1 18.925 12.525c6.23 4.244 12.647 8.729 20.117 13.917a4994.073 4994.073 0 0 0 19.687 13.689 3716.357 3716.357 0 0 0 25.689 17.596l15.048-19.551a3795.309 3795.309 0 0 1-22.729-15.548 4235.354 4235.354 0 0 1-17.936-12.436zm453.213-16.425l11.283 3.339-12.031 37.779c-.302-.588-.71-1.507-1.229-2.936l-13.287-33.156c.137-.436.274-.734.388-.926.171-.298.444-.572.83-.829.602-.399 1.409-.786 2.404-1.146 1.22-.444 2.741-.955 4.556-1.531l2.162-.688.846-11.403h-45.211l.423 11.481 9.646 2.916a528.76 528.76 0 0 0 5.229 11.369 1353.89 1353.89 0 0 1 14.238 31.134 567.501 567.501 0 0 1 7.381 17.521l1.013 2.521s.53 1.654-.027 2.732c-.956 1.852-2.161 3.877-3.579 6.014a36.472 36.472 0 0 1-4.728 5.732 27.865 27.865 0 0 1-5.956 4.457c-2.079 1.162-4.422 1.889-6.968 2.16l-3.784.402 3.136 13.191h25.116l4.155-9.696c.96-2.241 1.891-4.431 2.784-6.562a889.496 889.496 0 0 0 2.713-6.565 910.302 910.302 0 0 0 7.006-17.715 1566.14 1566.14 0 0 0 5.114-13.482l6.743-18.035a6572.055 6572.055 0 0 0 8.756-23.625c.423-.757 1.161-1.35 2.233-1.804 1.721-.721 3.876-1.388 6.413-1.981l2.398-.562.857-11.597h-41.444l.421 11.491zm220.377 13.28c0-2.205.023-4.293.067-6.255.045-1.922.135-3.783.267-5.577.134-1.804.298-3.57.5-5.307.199-1.718.454-3.5.763-5.292l.414-2.424-6.228-3.199-1.521.758a39.646 39.646 0 0 1-4.51 1.924 44.47 44.47 0 0 1-4.935 1.398c-1.873.425-3.975.847-6.295 1.271-2.378.436-5.126.949-8.241 1.543l-2.721.521v10.311l2.535.636c1.351.337 2.664.742 3.901 1.193a7.88 7.88 0 0 1 2.555 1.513c.671.597 1.232 1.434 1.673 2.487.463 1.111.696 2.665.696 4.63v28.267c0 2.49-.146 4.443-.438 5.8-.211.991-.56 1.752-1.025 2.255-.517.559-1.292 1.021-2.304 1.385-1.437.512-3.334 1.082-5.646 1.695l-2.494.659v11.545h45.442v-11.45l-12.458-3.768.003-36.519zm-20.676-38.766c1.133 1.165 2.515 2.096 4.11 2.771 1.595.677 3.369 1.019 5.275 1.019 1.832 0 3.635-.306 5.349-.908a14.747 14.747 0 0 0 4.689-2.656 13.47 13.47 0 0 0 3.321-4.188c.853-1.682 1.286-3.562 1.286-5.593 0-1.836-.351-3.554-1.048-5.102a12.045 12.045 0 0 0-2.812-3.942 12.506 12.506 0 0 0-4.104-2.479 13.775 13.775 0 0 0-4.831-.862c-2.351 0-4.473.384-6.312 1.146-1.812.749-3.368 1.733-4.627 2.932-1.309 1.252-2.292 2.701-2.927 4.317-.607 1.553-.915 3.126-.915 4.68 0 1.708.314 3.341.933 4.858a12.443 12.443 0 0 0 2.613 4.007zm116.01 25.337V43.175h-35.381v11.44l7.752 2.382-14.062 34.215-13.696-34.088c.089-.036.182-.072.278-.107 1.312-.498 3.058-1.086 5.187-1.752l2.177-.68.844-11.414h-41.318V54.34l10.198 4.408.181.139 23.141 49.779 4.668 12.5 11.389 1.953 2.964-7.742 22.968-52.22c.758-1.603 1.414-2.835 1.944-3.661.408-.63.862-1.145 1.353-1.527.506-.392 1.218-.749 2.11-1.066 1.208-.423 2.865-.974 4.97-1.645l2.333-.74zm55.273 43.489a128.805 128.805 0 0 1-6.944 2.402 132.273 132.273 0 0 1-6.234 1.809 310.695 310.695 0 0 1-5.819 1.525 35.14 35.14 0 0 1-3.702-.277 17.779 17.779 0 0 1-4.181-1.072c-1.366-.521-2.744-1.296-4.089-2.293-1.25-.928-2.375-2.201-3.356-3.795-1.024-1.657-1.854-3.746-2.478-6.208-.431-1.709-.694-3.69-.791-5.927h44.358l.292-3.03c.095-1.007.169-1.966.218-2.868.046-.802.08-1.645.105-2.532.021-.786.053-1.475.104-2.241.094-4.565-.33-8.787-1.261-12.548-.979-3.933-2.616-7.376-4.868-10.231-2.298-2.915-5.273-5.182-8.852-6.746-3.491-1.529-7.71-2.302-12.532-2.302-5.856 0-11.214 1.121-15.93 3.328-4.691 2.194-8.751 5.21-12.071 8.959-3.297 3.715-5.881 8.077-7.688 12.974-1.791 4.853-2.747 10.032-2.841 15.38-.143 5.936.501 11.361 1.917 16.13 1.463 4.915 3.792 9.155 6.932 12.599 3.152 3.459 7.149 6.135 11.882 7.953 4.63 1.783 10.138 2.689 16.362 2.689h.432l.42-.109a64.107 64.107 0 0 0 6.039-1.918 89.946 89.946 0 0 0 6.114-2.559c2.046-.941 4.233-2.03 6.498-3.232a315.83 315.83 0 0 0 7.125-3.908l2.544-1.435-4.611-11.673-3.094 1.156zm-24.025-42.15l.367.005c1.854.054 3.396.481 4.717 1.307 1.299.811 2.304 1.975 3.078 3.559.819 1.671 1.234 3.826 1.234 6.399 0 .697-.113 1.35-.341 1.993-.459.054-1.041.116-1.752.181-1.209.114-2.854.233-4.933.37-2.101.135-4.739.27-7.903.407-2.269.098-4.89.171-7.823.223.2-1.646.516-3.119.945-4.395.723-2.147 1.532-3.889 2.403-5.178 1.044-1.542 1.859-2.316 2.362-2.694 1.025-.777 1.416-.939 1.493-.966 2.186-.804 4.259-1.211 6.153-1.211zm70.863 8.445a39.419 39.419 0 0 1 3.966-1.827 33.162 33.162 0 0 1 4.442-1.396 21.4 21.4 0 0 1 3.778-.573c.019.022.038.047.056.07.064.151.13.293.189.42l1.775 12.149h13.677l2.22-30.412-2.886-.589a38.407 38.407 0 0 0-6.813-.751l-.832-.009c-1.766 0-3.675.138-5.665.417a22.934 22.934 0 0 0-7.133 2.204l-.262.146a68.782 68.782 0 0 0-4.867 3.314c-.861.643-1.678 1.267-2.447 1.867l.468-6.189-6.207-3.261-1.537.769a694.342 694.342 0 0 1-6.332 3.13 57.22 57.22 0 0 1-4.687 2.036c-1.51.574-3.206 1.098-5.044 1.564-1.917.486-4.421 1.021-7.437 1.597l-2.724.518v10.297l2.512.648c1.345.349 2.679.74 4.006 1.174a9.013 9.013 0 0 1 2.729 1.419c.667.514 1.213 1.249 1.67 2.242.473 1.02.72 2.558.72 4.446v26.626c0 2.509-.102 4.487-.308 5.875-.134.915-.395 1.601-.775 2.044-.427.503-1.127.941-2.08 1.309-1.372.528-3.314 1.184-5.773 1.945l-2.359.73v11.432h48.522v-11.621l-16.153-3.768V65.167c.494-.271 1.025-.564 1.591-.865zM281.336 96.748c-.222.699-.45 1.34-.689 1.916-.139.33-.266.625-.388.879a46.032 46.032 0 0 1-2.089 1.902c-.79.68-1.728 1.312-2.783 1.879-1.068.572-2.297 1.059-3.652 1.443-2.952.842-6.981.648-10.889.047a73.287 73.287 0 0 1-6.544-1.311 66.961 66.961 0 0 1-5.674-1.662c-1.553-.537-2.777-1.021-3.639-1.44a5.51 5.51 0 0 1-.373-.265s-.092-.071-.272-.293c-.027-.034-.167-.217-.387-.709-.133-.303-.348-.862-.614-1.817l-3.342-18.296-13.604-.236-3.598 32.625 2.033 1.061a94.132 94.132 0 0 0 7.241 3.375 81.203 81.203 0 0 0 7.888 2.82 71.599 71.599 0 0 0 8.117 1.937c2.761.489 5.434.735 7.94.735 5.986 0 11.768-.551 17.188-1.639 5.585-1.119 10.591-3.014 14.875-5.625 4.431-2.699 7.998-6.33 10.599-10.791 2.62-4.494 3.946-10.023 3.946-16.438 0-5.133-.957-9.567-2.844-13.186-1.853-3.549-4.337-6.579-7.388-9.008-2.92-2.327-6.271-4.294-9.959-5.842a148.549 148.549 0 0 0-10.753-4.028 791.54 791.54 0 0 1-10.458-3.543c-3.165-1.098-6.014-2.447-8.473-4.011-2.279-1.445-4.128-3.233-5.502-5.315-1.265-1.915-1.907-4.437-1.907-7.493 0-1.549.159-2.815.477-3.769.334-1.004.729-1.846 1.174-2.501.462-.687.949-1.263 1.451-1.714a19.29 19.29 0 0 0 1.729-1.761c1.144-.563 2.525-.972 4.123-1.213 2.08-.317 4.431-.476 6.993-.476 3.026 0 5.787.272 8.204.81 2.426.54 4.52 1.159 6.226 1.838.446.228.847.462 1.211.708.209.142.414.34.613.594.223.286.426.647.607 1.079.215.511.418 1.2.619 2.117l3.354 14.001h13.081l2.441-33.336-3.103-.437a119.98 119.98 0 0 1-6.792-1.132 324.546 324.546 0 0 0-6.022-1.142 81.557 81.557 0 0 0-6.212-.857c-4.803-.483-11.433-.472-17.57.392a59.975 59.975 0 0 0-9.897 2.248 45.36 45.36 0 0 0-9.017 3.994c-2.854 1.665-5.387 3.698-7.528 6.042a27.368 27.368 0 0 0-5.147 8.184c-1.253 3.083-1.89 6.572-1.89 10.368 0 5.336.947 9.946 2.813 13.707 1.836 3.697 4.312 6.899 7.356 9.507 2.938 2.52 6.311 4.657 10.029 6.358 3.533 1.614 7.18 3.09 10.845 4.388a1329.1 1329.1 0 0 1 10.546 3.787c3.218 1.174 6.117 2.558 8.619 4.113 2.309 1.438 4.174 3.178 5.543 5.176 1.264 1.84 1.877 4.141 1.877 7.034 0 .642-.072 1.319-.209 2.009a19.553 19.553 0 0 1-.55 2.213zm35.651 19.11a22.949 22.949 0 0 0 7.641 3.96c5.344 1.618 11.002 1.473 15.101.583a23.387 23.387 0 0 0 5.864-2.118c1.743-.906 3.551-2.09 5.374-3.511.409-.317.83-.651 1.269-1.001.459 1.35 1.09 2.516 1.9 3.52 2.032 2.502 5.234 3.771 9.518 3.771a23.84 23.84 0 0 0 4.648-.474 66.775 66.775 0 0 0 4.356-1.008 51.19 51.19 0 0 0 4.132-1.279 91.874 91.874 0 0 0 3.303-1.242l2.104-.846v-7.948c0-.863 0-3.488-4.993-3.488-.936 0-1.986-.079-3.131-.241a8.284 8.284 0 0 1-2.348-.677V64.733c0-4.078-.47-7.591-1.396-10.448-1.015-3.125-2.698-5.692-5.006-7.628-2.232-1.868-5.069-3.197-8.436-3.952-3.083-.691-6.84-1.039-11.169-1.039-.933 0-2.111.159-3.603.491a61.718 61.718 0 0 0-4.458 1.195c-1.604.49-3.336 1.047-5.192 1.672a191.73 191.73 0 0 0-11.154 4.15 529.495 529.495 0 0 0-4.965 2.071l-1.824.775-2.015 19.762h17.132l.73-2.362c.745-2.411 1.488-4.549 2.204-6.358.626-1.573 1.354-2.884 2.168-3.894.681-.848 1.472-1.452 2.419-1.854 1.039-.437 2.441-.66 4.125-.66 3.361.049 5.195.435 6.143.75 1.521.51 2.155 1.026 2.396 1.285.356.386.549.778.615 1.26.139 1.015.209 2.094.209 3.208v7.83c-5.125 1.246-9.64 2.43-13.457 3.529-4.519 1.304-8.412 2.609-11.572 3.873-3.276 1.312-5.991 2.672-8.069 4.049-2.214 1.468-3.971 3.077-5.224 4.774-1.307 1.77-2.192 3.711-2.634 5.77-.392 1.82-.589 3.833-.589 5.975 0 3.769.748 7.119 2.227 9.961 1.45 2.785 3.353 5.124 5.657 6.94zm23.329-11.629c-1.501 0-2.925-.163-4.234-.487-1.13-.277-2.097-.707-2.877-1.287a5.653 5.653 0 0 1-1.709-2.043c-.417-.816-.628-1.883-.628-3.166 0-1.504.28-2.752.829-3.718a8.497 8.497 0 0 1 2.446-2.712c1.162-.841 2.53-1.564 4.065-2.137a57.708 57.708 0 0 1 5.37-1.717 288.44 288.44 0 0 1 5.817-1.487c.427-.106.847-.214 1.261-.322v14.296a27.548 27.548 0 0 1-4.693 3.238c-1.893 1.036-3.74 1.542-5.647 1.542zm215.849 3.285c-.691-.204-1.42-.46-2.182-.759a30.155 30.155 0 0 1-2.205-.965 18.279 18.279 0 0 1-1.723-.945c-.163-.102-.284-.188-.375-.25-.016-.047-.029-.1-.045-.16-.098-.391-.104-.553-.104-.553v-75.78c.044-2.453.09-4.553.134-6.3.047-1.737.103-3.405.172-5.014.064-1.583.165-3.243.299-4.979.14-1.767.318-3.868.542-6.313l.203-2.183L544.891 0l-1.535.697c-1.97.894-3.793 1.694-5.473 2.385a76.947 76.947 0 0 1-5.122 1.903 88.787 88.787 0 0 1-5.866 1.715 279.339 279.339 0 0 1-7.744 1.859l-2.607.594v10.42l2.697.537c1.329.266 2.467.51 3.416.729.682.159 1.349.418 2.106.83 1.351.674 1.995 1.284 2.293 1.675a5.841 5.841 0 0 1 1.028 2.077c.244.909.366 1.918.366 3.004v14.33c-.919-.152-1.878-.306-2.872-.462-5.287-.822-10.88-.954-16.643.391a41.174 41.174 0 0 0-8.386 2.943 41.206 41.206 0 0 0-7.746 4.838 34.84 34.84 0 0 0-6.572 6.821c-2.653 3.458-4.705 7.534-6.096 12.126-1.366 4.516-2.062 9.623-2.062 15.171 0 2.646.247 5.385.736 8.149a42.428 42.428 0 0 0 2.303 8.165 37.736 37.736 0 0 0 4.051 7.62 29.026 29.026 0 0 0 6.073 6.463c2.354 1.833 5.089 3.312 8.135 4.384 3.062 1.082 6.487 1.629 10.185 1.629 2.933 0 6.472-.976 10.816-2.979 2.659-1.228 5.578-2.958 8.716-5.165.019.213.039.417.057.605.094 1.215.22 2.334.362 3.356l.409 2.881h28.642v-11.465l-2.393-.712zm-35.922-6.468a52.04 52.04 0 0 1-5.242 1.641c-3.583.9-5.479.814-7.648-.764-1.433-1.039-2.727-2.561-3.851-4.528-1.207-2.117-2.197-4.718-2.941-7.729-.75-3.053-1.133-6.467-1.133-10.148 0-4.452.446-8.218 1.333-11.196.852-2.871 1.974-5.176 3.327-6.854 1.303-1.611 2.721-2.723 4.337-3.397a12.677 12.677 0 0 1 4.986-1.007l.234.002c3.32.083 6.479.516 9.387 1.289 2.062.552 3.879 1.177 5.417 1.871V97.35a64.766 64.766 0 0 1-8.206 3.696zm-45.325 6.396c-.609-.124-1.486-.364-2.63-.708-1.239-.375-2.5-.785-3.813-1.238-.821-.275-1.683-.57-2.573-.883l-.063-39.638c0-2.339-.137-4.589-.404-6.689a24.49 24.49 0 0 0-1.671-6.347 14.841 14.841 0 0 0-4.097-5.595c-1.77-1.516-4.056-2.694-6.799-3.506-2.644-.787-5.786-1.166-9.614-1.166a26 26 0 0 0-4.449.394c-1.375.241-2.657.51-3.845.798-1.2.294-2.262.589-3.186.882-.85.266-1.495.467-1.942.602l-.687.292a869.088 869.088 0 0 0-5.314 3.02c-1.499.856-2.889 1.644-4.176 2.373l.559-6.871-6.234-3.279-1.55.793a122.184 122.184 0 0 1-4.332 2.133 61.718 61.718 0 0 1-3.382 1.461 51.968 51.968 0 0 1-3.019 1.096c-.974.317-2.028.608-3.167.884a90.96 90.96 0 0 1-3.995.858l-8.155 1.59v10.309l2.541.631a52.85 52.85 0 0 1 3.991 1.159c1.011.338 1.88.798 2.649 1.403.641.505 1.183 1.254 1.616 2.221.322.719.703 2.085.703 4.49v27.448c0 2.536-.095 4.525-.281 5.926-.12.912-.371 1.627-.726 2.068-.37.458-1.039.885-1.947 1.232-1.387.535-3.331 1.188-5.773 1.945l-2.363.73v11.433h43.139v-11.688l-10.975-3.489v-40.13a48.254 48.254 0 0 1 1.775-.931 33.269 33.269 0 0 1 4.228-1.739 42.902 42.902 0 0 1 4.946-1.331c3.279-.678 6.899-.562 9.29-.353 1.09.096 2.023.239 2.766.425.744.185 1.17.385 1.397.519.335.2.646.42.951.677.047.101.125.286.21.581a6.3 6.3 0 0 1 .246 1.747V96.22c0 2.076-.011 3.791-.034 5.143-.02 1.184-.096 2.145-.223 2.854-.078.426-.173.576-.173.576h.002c-.046.055-.231.25-.734.496-.602.289-1.445.584-2.516.871-1.299.348-2.899.799-4.796 1.355l-1.686.496v11.682h43.008v-11.705l-2.693-.546zm312.901 2.365c-1.502-.56-3.092-1.369-4.75-2.44-2.104-1.359-4.261-3.011-6.417-4.902-2.188-1.926-4.436-4.121-6.679-6.518a130.069 130.069 0 0 1-6.616-7.654 74.051 74.051 0 0 1-4.159-5.666 90.56 90.56 0 0 1-3.528-5.771 112.371 112.371 0 0 1-2.824-5.38c-.152-.318-.303-.622-.443-.923a28.85 28.85 0 0 0 6.831-3.688 38.093 38.093 0 0 0 8.366-8.367 40.725 40.725 0 0 0 5.555-10.583c1.352-3.855 2.039-7.773 2.039-11.653 0-4.832-.837-9.15-2.483-12.832-1.663-3.717-4.01-6.851-6.975-9.319-2.915-2.424-6.42-4.261-10.421-5.46-3.879-1.159-8.151-1.747-12.7-1.747-3.008 0-5.608.036-7.808.104-2.195.07-4.146.15-5.856.243a93.122 93.122 0 0 0-4.654.356c-1.265.133-2.496.241-3.696.33-1.205.09-2.439.168-3.697.233a75.955 75.955 0 0 1-4.06.098h-22.241v11.34l11.291 3.628v73.94c0 2.355-.138 4.207-.409 5.512-.19.918-.503 1.615-.923 2.068-.476.512-1.188.943-2.131 1.279-1.374.492-3.167 1.026-5.321 1.586l-2.509.651v11.353h45.647v-11.31l-12.867-3.56V72.836c1.633.187 3.085.332 4.376.439 1.385.116 2.68.205 3.873.268a331.553 331.553 0 0 1 2.251 4.861 439.437 439.437 0 0 0 3.034 6.549 159.894 159.894 0 0 0 3.181 6.364 96.417 96.417 0 0 0 3.616 6.259c1.548 2.369 3.041 4.659 4.479 6.866a54.447 54.447 0 0 0 4.888 6.461 30.616 30.616 0 0 0 6.004 5.229c2.308 1.519 4.945 2.559 7.755 3.08a38.13 38.13 0 0 0 5.11.713c1.648.117 3.323.176 4.881.176h.051c1.625.047 3.438.07 5.436.07h5.51v-10.365l-.007.001zm-38.339-55.96a26.892 26.892 0 0 1-2.363 2.675c-1.465.757-3.154 1.361-5.023 1.799a47.19 47.19 0 0 1-6.9 1.051 53.037 53.037 0 0 1-7.368.065 58.604 58.604 0 0 1-4.446-.431V32.427c0-2.932.098-5.357.29-7.216.138-1.352.462-2.405.935-3.038.37-.506 1.016-.868 1.957-1.108 1.443-.363 3.55-.548 6.268-.548 3.125 0 6.035.447 8.645 1.332 2.526.856 4.722 2.097 6.521 3.682 1.793 1.584 3.161 3.479 4.185 5.789 1.013 2.297 1.527 4.975 1.527 7.958 0 2.358-.193 4.458-.576 6.246-.38 1.781-.889 3.378-1.518 4.749-.624 1.349-1.343 2.554-2.134 3.574zm453.776-20.25c0-2.445.172-4.351.51-5.667.254-.989.644-1.721 1.191-2.244.646-.62 1.549-1.128 2.67-1.516 1.525-.518 3.475-1.094 5.797-1.709l2.495-.659V10.255h-45.991v11.404l11.842 3.835v31.375h-42.853V33.597c0-2.445.173-4.351.509-5.667.256-.989.653-1.75 1.188-2.272.615-.602 1.499-1.102 2.628-1.481 1.553-.521 3.502-1.101 5.791-1.721l2.479-.667V10.255h-45.922v11.404l11.841 3.835v72.851c0 2.486-.146 4.439-.438 5.798-.217 1.008-.559 1.778-1.021 2.287-.484.536-1.246.989-2.26 1.351-1.461.512-3.359 1.086-5.64 1.704l-2.479.667v11.531h46.741v-11.501l-13.414-3.767V71.786h42.853v26.559c0 2.49-.146 4.441-.439 5.803-.215 1.005-.559 1.773-1.021 2.283-.484.535-1.247.99-2.263 1.35-1.461.514-3.358 1.088-5.642 1.704l-2.479.667v11.532h46.812V110.18l-13.482-3.769V33.597h-.003zm80.528 19.093c-3.16-3.085-7.064-5.401-11.605-6.882-4.381-1.424-9.383-2.148-14.862-2.148a38.311 38.311 0 0 0-14.922 3 38.629 38.629 0 0 0-12.552 8.506c-3.601 3.651-6.5 8.113-8.616 13.262-2.121 5.155-3.196 10.984-3.196 17.328 0 6.209.973 11.717 2.887 16.367 1.937 4.701 4.646 8.67 8.054 11.801 3.396 3.115 7.426 5.471 11.978 7.004 4.454 1.502 9.294 2.265 14.383 2.265 5.24 0 10.234-1.042 14.85-3.097 4.603-2.051 8.688-5.018 12.137-8.814 3.42-3.77 6.152-8.357 8.12-13.646 1.957-5.26 2.946-11.188 2.946-17.629 0-5.965-.799-11.259-2.381-15.729-1.63-4.605-4.059-8.503-7.221-11.588zm-13.119 31.83a70.01 70.01 0 0 1-.621 9.272c-.393 2.933-1.098 5.613-2.094 7.967-.931 2.199-2.146 3.943-3.718 5.332-1.376 1.214-3.123 1.871-5.354 2.004-3.609.23-6.592-.254-8.801-1.448-2.262-1.226-4.014-2.914-5.354-5.167-1.428-2.395-2.448-5.307-3.032-8.652-.627-3.555-.943-7.4-.943-11.431 0-3.308.207-6.559.621-9.655.389-2.927 1.096-5.551 2.1-7.801.926-2.072 2.161-3.761 3.672-5.021 1.364-1.139 3.147-1.758 5.428-1.896.504-.029.998-.043 1.48-.043 2.934 0 5.393.515 7.301 1.534 2.263 1.207 4.013 2.865 5.351 5.073 1.422 2.349 2.438 5.219 3.023 8.533.625 3.537.941 7.373.941 11.399zm222.238 15.481a126.942 126.942 0 0 1-6.941 2.4c-2.242.705-4.33 1.312-6.236 1.811a310.202 310.202 0 0 1-5.819 1.523 35.393 35.393 0 0 1-3.701-.277 17.799 17.799 0 0 1-4.182-1.072c-1.366-.521-2.744-1.297-4.091-2.295-1.248-.928-2.375-2.2-3.354-3.793-1.024-1.657-1.858-3.746-2.479-6.209-.43-1.709-.694-3.689-.791-5.926h44.357l.289-3.031c.097-1.006.17-1.965.221-2.867.043-.803.08-1.645.104-2.532.022-.787.055-1.475.106-2.242.093-4.564-.33-8.787-1.264-12.548-.979-3.934-2.615-7.377-4.867-10.232-2.296-2.912-5.274-5.18-8.852-6.744-3.492-1.529-7.71-2.301-12.531-2.301-5.855 0-11.216 1.12-15.933 3.327-4.688 2.194-8.75 5.211-12.067 8.96-3.299 3.714-5.885 8.078-7.689 12.973-1.788 4.854-2.747 10.035-2.839 15.38-.144 5.938.499 11.363 1.915 16.132 1.463 4.915 3.795 9.155 6.933 12.599 3.15 3.459 7.15 6.131 11.883 7.953 4.631 1.783 10.138 2.688 16.361 2.688h.432l.42-.109a63.339 63.339 0 0 0 6.039-1.917 88.415 88.415 0 0 0 6.113-2.562 127.842 127.842 0 0 0 6.499-3.229 317.139 317.139 0 0 0 7.122-3.907l2.548-1.436-4.612-11.674-3.094 1.157zm-24.026-42.151l.367.003c1.854.054 3.397.483 4.72 1.307 1.298.812 2.304 1.977 3.078 3.561.817 1.67 1.233 3.824 1.233 6.397 0 .699-.111 1.35-.341 1.995-.461.053-1.043.115-1.752.18-1.211.114-2.854.233-4.932.369-2.104.137-4.739.27-7.905.406a303.78 303.78 0 0 1-7.824.223c.2-1.646.518-3.119.946-4.394.724-2.147 1.533-3.891 2.404-5.18 1.043-1.542 1.859-2.317 2.361-2.694 1.024-.775 1.416-.938 1.493-.966 2.188-.801 4.26-1.207 6.152-1.207zm182.217 51.506c-2.104-1.358-4.26-3.008-6.418-4.901-2.188-1.927-4.434-4.121-6.676-6.517a130.667 130.667 0 0 1-6.618-7.653 75.578 75.578 0 0 1-4.159-5.668 88.349 88.349 0 0 1-3.526-5.771 107.015 107.015 0 0 1-2.823-5.379c-.154-.317-.304-.62-.446-.923a28.608 28.608 0 0 0 6.832-3.689 38.136 38.136 0 0 0 8.367-8.366 40.719 40.719 0 0 0 5.554-10.585c1.352-3.853 2.038-7.772 2.038-11.65 0-4.833-.837-9.152-2.482-12.833-1.661-3.715-4.008-6.851-6.975-9.318-2.915-2.423-6.42-4.26-10.421-5.46-3.88-1.16-8.151-1.748-12.7-1.748a249.533 249.533 0 0 0-13.664.346 92.831 92.831 0 0 0-4.654.358c-1.264.134-2.493.241-3.694.331-1.205.09-2.439.167-3.697.231-1.225.068-2.576.1-4.059.1h-22.242v11.338l11.295 3.628v73.941c0 2.354-.141 4.207-.412 5.513-.189.918-.503 1.614-.923 2.069-.474.51-1.188.942-2.129 1.276-1.375.494-3.165 1.026-5.321 1.587l-2.51.652v11.352h45.646v-11.309l-12.865-3.559V74.825c1.633.187 3.084.332 4.375.439 1.386.115 2.68.206 3.873.269a354.856 354.856 0 0 1 2.252 4.861 449.911 449.911 0 0 0 3.032 6.549 161.316 161.316 0 0 0 3.185 6.364 94.554 94.554 0 0 0 3.613 6.259c1.549 2.369 3.041 4.659 4.479 6.866a54.535 54.535 0 0 0 4.889 6.461c1.809 2.034 3.828 3.796 6.002 5.229 2.31 1.519 4.945 2.559 7.754 3.08 1.644.346 3.361.586 5.111.713 1.666.119 3.359.219 4.934.178 1.628.045 3.436.07 5.437.07h8.626l.179-9.293-2.401-.75c-1.765-.546-3.666-1.476-5.658-2.764zm-35.078-81.839c1.793 1.584 3.16 3.479 4.185 5.789 1.012 2.296 1.527 4.973 1.527 7.955 0 2.361-.193 4.46-.577 6.248-.379 1.781-.889 3.378-1.517 4.747-.62 1.356-1.338 2.561-2.131 3.585a27.623 27.623 0 0 1-2.362 2.675c-1.465.757-3.154 1.359-5.022 1.797a46.924 46.924 0 0 1-6.902 1.054c-2.41.193-4.884.214-7.367.064a59.545 59.545 0 0 1-4.446-.431V34.421c0-2.932.099-5.357.29-7.216.14-1.351.463-2.405.933-3.04.371-.504 1.018-.866 1.961-1.107 1.441-.363 3.549-.549 6.266-.549 3.125 0 6.035.448 8.646 1.332 2.521.85 4.718 2.088 6.516 3.676zm99.94 72.484a127.235 127.235 0 0 1-6.941 2.4c-2.24.705-4.329 1.312-6.235 1.811a312.235 312.235 0 0 1-5.819 1.523 35.391 35.391 0 0 1-3.702-.277 17.734 17.734 0 0 1-4.18-1.072c-1.368-.521-2.747-1.297-4.092-2.295-1.248-.928-2.375-2.2-3.356-3.793-1.021-1.657-1.854-3.746-2.478-6.209-.429-1.709-.695-3.689-.791-5.926h44.356l.291-3.031a67.34 67.34 0 0 0 .22-2.867 84.03 84.03 0 0 0 .105-2.532 56.17 56.17 0 0 1 .104-2.242c.095-4.564-.327-8.787-1.263-12.548-.978-3.934-2.614-7.377-4.864-10.232-2.299-2.912-5.276-5.18-8.854-6.744-3.492-1.529-7.709-2.301-12.531-2.301-5.854 0-11.216 1.12-15.93 3.327-4.691 2.194-8.752 5.211-12.072 8.96-3.297 3.714-5.883 8.078-7.688 12.973-1.789 4.854-2.746 10.035-2.84 15.38-.144 5.938.5 11.363 1.916 16.132 1.463 4.915 3.795 9.155 6.933 12.599 3.151 3.459 7.151 6.131 11.88 7.953 4.631 1.783 10.14 2.688 16.363 2.688h.432l.42-.109a63.43 63.43 0 0 0 6.039-1.917 88.21 88.21 0 0 0 6.113-2.562 128.27 128.27 0 0 0 6.5-3.229 317.179 317.179 0 0 0 7.121-3.907l2.549-1.436-4.612-11.674-3.094 1.157zm-24.025-42.151l.367.003c1.854.054 3.397.483 4.719 1.307 1.298.812 2.304 1.977 3.077 3.561.818 1.67 1.232 3.824 1.232 6.397 0 .699-.109 1.35-.338 1.995-.461.053-1.044.115-1.751.18-1.212.114-2.855.233-4.936.369-2.102.137-4.737.27-7.902.406-2.27.098-4.89.173-7.825.223.202-1.646.516-3.119.947-4.394.721-2.147 1.532-3.891 2.403-5.18 1.043-1.542 1.859-2.317 2.362-2.694 1.024-.775 1.416-.938 1.491-.966 2.185-.801 4.259-1.207 6.154-1.207zm111.249.223c-2.033-3.36-4.379-6.058-6.965-8.018-2.49-1.887-4.979-3.326-7.401-4.279-2.408-.949-4.675-1.548-6.73-1.788-1.925-.223-3.326-.329-4.287-.329-2.282 0-4.698.493-7.174 1.461a52.728 52.728 0 0 0-6.615 3.144 73.648 73.648 0 0 0-5.167 3.186c.064-1.408.148-2.797.26-4.175l.174-2.201-6.096-3.207-1.549.791c-1.8.921-3.566 1.77-5.249 2.525a59.046 59.046 0 0 1-5.016 1.975 65.664 65.664 0 0 1-5.309 1.564 74.386 74.386 0 0 1-5.957 1.209l-2.812.458v10.417l2.562.618c1.485.36 2.838.697 4.049 1.009.78.204 1.426.515 1.969.952.42.336.783.902 1.068 1.685.249.681.549 2.03.549 4.596v63.31c0 2.253-.095 4.05-.275 5.354-.166 1.182-.456 1.813-.669 2.131-.254.385-.645.697-1.188.959-.913.438-2.188.887-3.775 1.34l-2.441.689v11.498h44.76v-11.58l-15.331-3.834v-17.258c1.349.206 2.704.4 4.05.575 2.749.36 5.209.54 7.312.54 1.525 0 3.479-.153 5.97-.471 2.561-.328 5.318-1.019 8.205-2.055 2.899-1.043 5.848-2.527 8.764-4.412 3.025-1.959 5.801-4.584 8.241-7.804 2.425-3.202 4.417-7.132 5.918-11.688 1.499-4.537 2.258-9.969 2.258-16.142 0-5.082-.635-9.551-1.89-13.283-1.211-3.604-2.623-6.78-4.213-9.462zm-37.41 5.953a60.825 60.825 0 0 1 5.737-1.91c3.622-1.003 6.19-1.184 8.606.753 1.481 1.19 2.805 2.865 3.929 4.98 1.202 2.263 2.156 4.962 2.841 8.021.695 3.12 1.047 6.488 1.047 10.016 0 3.324-.289 6.469-.86 9.342-.533 2.702-1.406 5.068-2.589 7.029-1.108 1.828-2.51 3.215-4.28 4.236-1.733.996-3.946 1.504-6.574 1.504-2.998 0-5.959-.426-8.807-1.266a49.884 49.884 0 0 1-6.257-2.285V67.311c.591-.301 1.259-.635 2-1a65.554 65.554 0 0 1 5.207-2.285zm116.291 42.742c-.932 0-1.981-.082-3.131-.241a8.392 8.392 0 0 1-2.345-.677V66.723c0-4.072-.469-7.588-1.396-10.448-1.014-3.122-2.698-5.689-5.009-7.626-2.23-1.869-5.069-3.197-8.434-3.953-3.086-.69-6.841-1.039-11.169-1.039-.936 0-2.112.158-3.601.492a59.542 59.542 0 0 0-4.462 1.195 186.06 186.06 0 0 0-5.188 1.671 184.083 184.083 0 0 0-5.604 1.986 171.73 171.73 0 0 0-5.549 2.162 469.619 469.619 0 0 0-4.969 2.072l-1.821.774-2.011 19.761h17.133l.729-2.364c.74-2.397 1.48-4.535 2.204-6.357.625-1.573 1.354-2.883 2.165-3.894.684-.846 1.476-1.452 2.424-1.854 1.039-.437 2.44-.659 4.122-.659 3.361.049 5.199.436 6.142.75 1.523.51 2.158 1.025 2.396 1.282.358.39.551.781.615 1.264.139 1.014.209 2.094.209 3.207v7.833c-5.134 1.247-9.649 2.43-13.458 3.527-4.517 1.308-8.411 2.61-11.571 3.874-3.275 1.309-5.992 2.67-8.068 4.049-2.217 1.47-3.975 3.076-5.225 4.775-1.308 1.768-2.193 3.709-2.638 5.771-.391 1.828-.588 3.837-.588 5.97 0 3.771.748 7.124 2.227 9.962 1.447 2.789 3.352 5.123 5.654 6.939a22.952 22.952 0 0 0 7.642 3.963c5.338 1.615 10.998 1.473 15.104.583a23.496 23.496 0 0 0 5.863-2.117c1.744-.911 3.551-2.092 5.373-3.515.408-.316.829-.651 1.27-1 .457 1.349 1.09 2.518 1.902 3.52 2.029 2.5 5.231 3.771 9.516 3.771 1.498 0 3.062-.159 4.647-.473a64.988 64.988 0 0 0 4.358-1.009 51.61 51.61 0 0 0 4.137-1.28 90.52 90.52 0 0 0 3.304-1.244l2.101-.846v-7.947c-.004-.859-.004-3.483-5-3.483zm-36.888-.548c-1.501 0-2.925-.164-4.233-.488-1.133-.277-2.099-.708-2.875-1.285a5.699 5.699 0 0 1-1.715-2.041c-.415-.818-.625-1.887-.625-3.171 0-1.501.277-2.749.824-3.713a8.48 8.48 0 0 1 2.448-2.713c1.163-.845 2.532-1.563 4.062-2.142a59.302 59.302 0 0 1 5.369-1.713 283.597 283.597 0 0 1 5.819-1.488c.423-.104.845-.211 1.257-.321v14.296a27.757 27.757 0 0 1-4.693 3.238c-1.885 1.035-3.73 1.541-5.638 1.541zm58.87-75.048c1.133 1.165 2.518 2.096 4.112 2.77 1.595.678 3.368 1.019 5.274 1.019 1.83 0 3.635-.306 5.35-.907a14.788 14.788 0 0 0 4.688-2.657 13.437 13.437 0 0 0 3.32-4.187c.854-1.68 1.287-3.562 1.287-5.592 0-1.836-.352-3.555-1.047-5.104a12.08 12.08 0 0 0-2.813-3.941c-1.163-1.066-2.548-1.901-4.104-2.479a13.713 13.713 0 0 0-4.832-.862c-2.349 0-4.471.384-6.312 1.146-1.811.75-3.365 1.732-4.625 2.933-1.311 1.25-2.294 2.7-2.927 4.315-.61 1.553-.917 3.125-.917 4.682 0 1.706.314 3.339.936 4.856a12.451 12.451 0 0 0 2.61 4.008zm20.678 38.766c0-2.206.023-4.294.067-6.256.044-1.92.134-3.781.267-5.575.135-1.804.299-3.572.498-5.307.199-1.721.455-3.502.764-5.292l.416-2.426-6.229-3.198-1.52.76a40.092 40.092 0 0 1-4.512 1.922 44.396 44.396 0 0 1-4.935 1.4c-1.873.423-3.974.847-6.295 1.27-2.377.436-5.127.95-8.239 1.544l-2.722.521v10.312l2.534.636c1.35.337 2.664.741 3.902 1.194a7.94 7.94 0 0 1 2.557 1.512c.666.596 1.229 1.435 1.67 2.485.462 1.111.695 2.667.695 4.63v28.269c0 2.492-.146 4.443-.436 5.799-.214.994-.561 1.752-1.027 2.255-.516.558-1.291 1.024-2.303 1.386-1.438.512-3.334 1.084-5.646 1.697l-2.491.658v11.543h45.44v-11.45l-12.457-3.767V69.938h.002zm71.763-26.551l-.832-.01c-1.766 0-3.674.139-5.668.417a22.952 22.952 0 0 0-7.129 2.204l-.262.145a67.24 67.24 0 0 0-4.867 3.315 150.32 150.32 0 0 0-2.447 1.866l.469-6.189-6.208-3.261-1.536.769a692.725 692.725 0 0 1-6.333 3.13 57.117 57.117 0 0 1-4.687 2.036 46.203 46.203 0 0 1-5.045 1.562c-1.916.487-4.42 1.022-7.434 1.597l-2.725.518v10.296l2.512.649c1.344.349 2.678.739 4.006 1.172a9.082 9.082 0 0 1 2.729 1.42c.666.514 1.212 1.249 1.67 2.243.473 1.019.72 2.558.72 4.446v26.627c0 2.509-.103 4.488-.31 5.875-.133.916-.394 1.602-.773 2.045-.426.504-1.127.941-2.08 1.309-1.373.527-3.312 1.184-5.773 1.945l-2.359.73v11.432h48.523v-11.621l-16.151-3.766V67.161a48.073 48.073 0 0 1 1.584-.877 38.794 38.794 0 0 1 3.965-1.826 33.203 33.203 0 0 1 4.438-1.396 21.434 21.434 0 0 1 3.78-.573l.054.069c.066.152.131.293.191.42l1.773 12.149h13.678l2.221-30.412-2.886-.59a39.283 39.283 0 0 0-6.808-.738zm69.763 43.355a19.26 19.26 0 0 0-5.351-6.054c-2.075-1.53-4.457-2.785-7.069-3.734a107.748 107.748 0 0 0-7.351-2.369l-7.115-2.021c-2.092-.592-3.959-1.328-5.561-2.191-1.393-.747-2.514-1.67-3.34-2.746-.662-.865-.984-2.01-.984-3.503 0-.755.125-1.542.367-2.339a8.607 8.607 0 0 1 1.029-2.213 4.55 4.55 0 0 1 1.326-1.332c.367-.24.732-.348 1.182-.348 2.322 0 4.689.241 7.031.72 2.338.475 4.389 1.086 6.092 1.815.518.223.67.448.721.523.244.368.646 1.094 1.183 2.497l2.896 7.241h12.021l2.383-24.654-3.201-.426c-3.791-.51-7.493-.941-11.004-1.283a116.77 116.77 0 0 0-11.276-.528c-4.619 0-8.799.598-12.431 1.773-3.739 1.212-6.944 2.997-9.543 5.303-2.633 2.34-4.651 5.208-6.01 8.528-1.324 3.243-1.994 6.906-1.994 10.879 0 3.503.713 6.52 2.123 8.965a18.672 18.672 0 0 0 5.373 5.914c2.063 1.469 4.438 2.703 7.047 3.666 2.406.889 4.898 1.699 7.402 2.408a287.26 287.26 0 0 1 7.067 2.098c2.105.653 3.984 1.451 5.588 2.373 1.421.815 2.521 1.783 3.367 2.955.703.977 1.043 2.26 1.043 3.928 0 .685-.098 1.304-.295 1.89a5.152 5.152 0 0 1-.832 1.543 3.094 3.094 0 0 1-1.057.858c-.4.201-.85.297-1.377.297-1.686 0-3.303-.035-4.85-.102a35.213 35.213 0 0 1-4.248-.434 38.974 38.974 0 0 1-4.096-.915 27.12 27.12 0 0 1-3.724-1.356 3.647 3.647 0 0 1-.319-.264c-.011-.014-.254-.365-.685-1.525l-3.369-9.662-12.442-.238-3.035 22.955 2.176 1.057c1.701.829 3.67 1.629 5.848 2.377a71.537 71.537 0 0 0 6.674 1.941c2.263.539 4.545.984 6.791 1.322 2.297.34 4.422.514 6.314.514 4.133 0 8.1-.473 11.801-1.402 3.854-.969 7.277-2.551 10.178-4.699 2.974-2.201 5.351-5.07 7.064-8.527 1.707-3.442 2.572-7.614 2.572-12.405.005-3.536-.702-6.588-2.1-9.07zm-631.83 23.198l-2.733-.515c-.433-.08-1.271-.27-2.804-.713a104.82 104.82 0 0 1-4-1.242 181.62 181.62 0 0 1-2.787-.909l-.063-32.922a320.573 320.573 0 0 1-.068-6.673c0-2.35-.146-4.611-.441-6.73-.314-2.236-.885-4.357-1.699-6.303a15.028 15.028 0 0 0-4.044-5.583c-1.745-1.518-3.985-2.7-6.656-3.515-2.545-.78-5.684-1.172-9.331-1.172a24.14 24.14 0 0 0-4.422.402 56.338 56.338 0 0 0-3.613.802c-1.13.296-2.138.591-3.012.884-.788.262-1.398.458-1.831.591l-.658.277c-1.645.915-3.366 1.879-5.155 2.886a400.407 400.407 0 0 1-4.947 2.746l-2.518 1.364a18.469 18.469 0 0 0-.812-1.595c-1.033-1.802-2.457-3.365-4.233-4.644-1.726-1.247-3.86-2.194-6.345-2.825-2.338-.592-5.159-.888-8.379-.888-1.465 0-2.938.133-4.38.4a49.713 49.713 0 0 0-3.645.807 48.35 48.35 0 0 0-2.947.887c-.752.257-1.342.45-1.77.58l-.679.29a828.13 828.13 0 0 0-5.321 3.021 853.247 853.247 0 0 0-4.031 2.316l.554-6.819-6.222-3.265-1.537.768a344.512 344.512 0 0 0-6.428 3.284 59.846 59.846 0 0 1-4.709 2.238c-1.471.624-3.144 1.198-4.964 1.708-1.885.526-4.37 1.079-7.385 1.644l-2.734.511V62.36l2.534.637c1.382.343 2.746.738 4.052 1.164a9.118 9.118 0 0 1 2.729 1.42c.655.507 1.185 1.226 1.619 2.201.324.72.703 2.083.703 4.488v26.077c0 2.511-.103 4.49-.311 5.877-.135.929-.396 1.628-.771 2.084-.396.477-1.09.912-2.009 1.268-1.389.534-3.332 1.189-5.776 1.946l-2.36.731v11.432h42.868v-11.82l-10.566-3.359V66.387a38.526 38.526 0 0 1 5.978-2.616 37.691 37.691 0 0 1 4.834-1.284c3.13-.618 6.727-.549 8.95-.328.972.095 1.775.233 2.403.407.498.138.892.302 1.179.485.31.197.605.43.89.697.045.088.13.282.229.627.163.566.243 1.136.243 1.737v32.102c0 2.076-.01 3.783-.032 5.109-.021 1.108-.106 2.004-.258 2.659-.109.479-.228.647-.228.647-.062.072-.27.275-.78.527-.606.307-1.434.612-2.443.918-1.235.373-2.759.863-4.58 1.469l-1.151.383v11.76h41.509v-12.01l-1.306-.246c-.434-.082-1.273-.27-2.805-.713a107.907 107.907 0 0 1-3.999-1.242 178.76 178.76 0 0 1-2.791-.91l-.062-32.17c0-1.704-.01-3.419-.035-5.143a132.406 132.406 0 0 0-.074-2.95 56.727 56.727 0 0 1 1.687-.806 47.308 47.308 0 0 1 4.336-1.724 38.147 38.147 0 0 1 4.809-1.286c3.179-.636 6.596-.534 8.849-.328 1.025.098 1.894.238 2.573.418.685.181 1.078.373 1.289.505.365.226.711.501.937.705 0 0 .084.138.181.504.153.6.232 1.194.232 1.82v32.101c0 2.078-.012 3.783-.034 5.111-.02 1.107-.107 2.004-.257 2.658-.109.479-.229.646-.229.646-.062.074-.268.277-.781.529-.604.303-1.428.61-2.44.918a129.51 129.51 0 0 0-4.534 1.477l-.87.297v11.837h42.605V109.94h.013zm743.289-5.05l-32.971 1.759V34.61c0-2.923.307-4.573.562-5.441.291-.982.703-1.706 1.262-2.215.66-.603 1.582-1.103 2.74-1.483 1.547-.508 3.488-1.049 5.771-1.61l2.666-.654V11.302h-46.146v11.7l11.588 3.773v71.438c0 2.498-.108 4.47-.325 5.855-.148.934-.41 1.633-.781 2.078-.392.467-1.021.865-1.875 1.188-1.334.5-3.131 1.055-5.342 1.648l-2.591.697v11.707h69.441l12.895 1.646 3.474-40.043h-14.064l-6.304 21.901zm91.429 0l-32.973 1.759V34.61c0-2.924.307-4.572.564-5.443.291-.98.7-1.704 1.26-2.213.66-.603 1.584-1.102 2.744-1.483 1.539-.507 3.479-1.048 5.77-1.61l2.666-.654V11.302h-46.145v11.7l11.588 3.773v71.438c0 2.504-.111 4.475-.328 5.859-.146.93-.41 1.629-.781 2.074-.389.467-1.02.865-1.873 1.188-1.334.5-3.131 1.053-5.342 1.648l-2.59.698v11.706h69.438l12.896 1.646 3.475-40.043h-14.064l-6.305 21.901zm115.518-11.099l-3.064 1.25c-2.133.873-4.639 1.86-7.444 2.938a387.266 387.266 0 0 1-8.08 3.005c-2.57.924-4.867 1.7-6.83 2.311-2.312.72-2.982.781-3.002.785-7.354 0-13.673-1.097-18.781-3.26-5.037-2.133-9.189-5.097-12.34-8.812-3.189-3.756-5.562-8.266-7.058-13.4-1.539-5.288-2.317-11.136-2.317-17.382 0-2.419.2-4.974.6-7.593a53.08 53.08 0 0 1 1.803-7.808 45.552 45.552 0 0 1 3.033-7.381 33.821 33.821 0 0 1 3.936-5.984c2.429-1.592 5.259-2.865 8.42-3.784a37.4 37.4 0 0 1 10.443-1.478c2.451 0 4.896.098 7.26.292 2.291.188 4.533.525 6.656 1.003a37.148 37.148 0 0 1 5.971 1.876 21.79 21.79 0 0 1 3.925 2.113l3.479 16.141h13.521l3.981-31.209-2.686-.931c-3.461-1.2-7.229-2.277-11.209-3.203-3.398-.78-7.322-1.521-11.662-2.202-4.449-.699-9.199-1.053-14.119-1.053-5.937 0-11.481.777-16.488 2.309-4.993 1.53-9.598 3.682-13.68 6.395a49.995 49.995 0 0 0-10.793 9.673 57.247 57.247 0 0 0-7.68 12.021 63.691 63.691 0 0 0-4.636 13.548 66.155 66.155 0 0 0-1.563 14.264c0 4.541.492 9.088 1.461 13.518.979 4.461 2.492 8.758 4.5 12.775s4.541 7.799 7.527 11.239c3.028 3.489 6.633 6.53 10.713 9.041 4.059 2.497 8.666 4.476 13.694 5.882 5.027 1.404 10.638 2.117 16.675 2.117.666 0 1.791-.057 3.545-.178 1.922-.133 4.412-.705 7.612-1.746 3.039-.99 6.857-2.59 11.351-4.758 4.496-2.166 9.922-5.324 16.129-9.387l2.557-1.673-5.36-11.274z"/></svg>