<svg xmlns="http://www.w3.org/2000/svg" width="1503.393" height="321.167" viewBox="0 0 1503.393 321.167"><path fill="#f8f7f1" d="M63.625 90.94l3.413 1.385v16.737l-3.413 1.38v9.126H97.23v-9.126l-3.41-1.38V92.325l3.41-1.385v-9.129H63.625z"/><path fill="#f8f7f1" d="M151.919 71.092V34.264l4.903-3.445v-8.971h-36.591v8.971l4.908 3.445V52.55a744.191 744.191 0 0 0-17.576-11.6l-.362-.226-.36-.233c-15.959-10.217-25.521-14.039-38.66-9.155-13.137 4.888-29.857 18.487-60.136 43.12l-4.024 3.277L0 80.998 16.884 99.17l4.028-3.279 4.031-3.272c13.84-11.265 24.573-19.997 32.911-26.333 8.332-6.337 14.266-10.285 18.508-11.966 1.748-.69 2.753-1.086 4.819-.347 2.071.744 5.208 2.614 11.218 6.467l.36.229.359.23a773.32 773.32 0 0 1 18.925 12.525c6.23 4.244 12.647 8.729 20.117 13.918a5002.516 5002.516 0 0 0 19.687 13.688 3681.274 3681.274 0 0 0 25.689 17.596l15.048-19.551a3752.24 3752.24 0 0 1-22.729-15.547 4235.354 4235.354 0 0 1-17.936-12.436zm453.213-16.425l11.283 3.339-12.031 37.778c-.302-.588-.71-1.506-1.229-2.935l-13.287-33.156c.137-.436.274-.734.388-.926.171-.298.444-.572.83-.829.602-.399 1.409-.786 2.404-1.146 1.22-.444 2.741-.955 4.556-1.531l2.162-.688.846-11.403h-45.211l.423 11.481 9.646 2.916a528.76 528.76 0 0 0 5.229 11.369 1353.89 1353.89 0 0 1 14.238 31.134 567.501 567.501 0 0 1 7.381 17.521l1.013 2.522s.53 1.654-.027 2.732c-.956 1.851-2.161 3.876-3.579 6.013a36.518 36.518 0 0 1-4.728 5.732 27.865 27.865 0 0 1-5.956 4.457c-2.079 1.163-4.422 1.889-6.968 2.161l-3.784.402 3.136 13.192h25.116l4.155-9.697c.96-2.242 1.891-4.43 2.784-6.562a889.496 889.496 0 0 0 2.713-6.565 885.222 885.222 0 0 0 3.094-7.693c1.145-2.883 2.447-6.225 3.912-10.023a1577.36 1577.36 0 0 0 5.114-13.481l6.743-18.036a6572.055 6572.055 0 0 0 8.756-23.625c.423-.757 1.161-1.35 2.233-1.804 1.721-.721 3.876-1.388 6.413-1.981l2.398-.562.857-11.597h-41.444l.421 11.491zm220.377 13.28c0-2.205.023-4.293.067-6.255.045-1.922.135-3.783.267-5.577.134-1.804.298-3.57.5-5.307.199-1.718.454-3.5.763-5.292l.414-2.424-6.228-3.199-1.521.758a39.646 39.646 0 0 1-4.51 1.924 44.47 44.47 0 0 1-4.935 1.398c-1.873.425-3.975.847-6.295 1.271-2.378.436-5.126.949-8.241 1.543l-2.721.521v10.311l2.535.636c1.351.337 2.664.742 3.901 1.193a7.88 7.88 0 0 1 2.555 1.513c.671.597 1.232 1.434 1.673 2.487.463 1.111.696 2.665.696 4.63v28.267c0 2.491-.146 4.444-.438 5.8-.211.991-.56 1.752-1.025 2.255-.517.558-1.292 1.022-2.304 1.385-1.437.511-3.334 1.082-5.646 1.695l-2.494.659v11.545h45.442v-11.45l-12.458-3.768.003-36.519zm-20.676-38.766c1.133 1.165 2.515 2.096 4.11 2.771 1.595.677 3.369 1.019 5.275 1.019 1.832 0 3.635-.306 5.349-.908a14.747 14.747 0 0 0 4.689-2.656 13.47 13.47 0 0 0 3.321-4.188c.853-1.682 1.286-3.562 1.286-5.593 0-1.836-.351-3.554-1.048-5.102a12.045 12.045 0 0 0-2.812-3.942 12.506 12.506 0 0 0-4.104-2.479 13.775 13.775 0 0 0-4.831-.862c-2.351 0-4.473.384-6.312 1.146-1.812.749-3.368 1.733-4.627 2.932-1.309 1.252-2.292 2.701-2.927 4.317-.607 1.553-.915 3.126-.915 4.68 0 1.708.314 3.341.933 4.858a12.443 12.443 0 0 0 2.613 4.007zm116.01 25.337V43.175h-35.381v11.44l7.752 2.382-14.062 34.215-13.696-34.088c.089-.036.182-.072.278-.107 1.312-.498 3.058-1.086 5.187-1.752l2.177-.68.844-11.414h-41.318V54.34l10.198 4.408.181.139 23.141 49.778 4.668 12.501 11.389 1.952 2.964-7.741 22.968-52.221c.758-1.603 1.414-2.835 1.944-3.661.408-.63.862-1.145 1.353-1.527.506-.392 1.218-.749 2.11-1.066 1.208-.423 2.865-.974 4.97-1.645l2.333-.739zm55.273 43.49a127.904 127.904 0 0 1-6.944 2.401 132.354 132.354 0 0 1-6.234 1.81 318.38 318.38 0 0 1-5.819 1.524 35.123 35.123 0 0 1-3.702-.276 17.831 17.831 0 0 1-4.181-1.073c-1.366-.522-2.744-1.296-4.089-2.293-1.25-.928-2.375-2.201-3.356-3.795-1.024-1.657-1.854-3.746-2.478-6.208-.431-1.709-.694-3.69-.791-5.926h44.358l.292-3.031c.095-1.007.169-1.966.218-2.868.046-.802.08-1.645.105-2.532.021-.786.053-1.475.104-2.241.094-4.565-.33-8.787-1.261-12.548-.979-3.933-2.616-7.376-4.868-10.231-2.298-2.915-5.273-5.182-8.852-6.746-3.491-1.529-7.71-2.302-12.532-2.302-5.856 0-11.214 1.121-15.93 3.328-4.691 2.194-8.751 5.21-12.071 8.959-3.297 3.715-5.881 8.077-7.688 12.974-1.791 4.853-2.747 10.032-2.841 15.38-.143 5.935.501 11.362 1.917 16.13 1.463 4.915 3.792 9.155 6.932 12.599 3.152 3.458 7.149 6.134 11.882 7.952 4.63 1.784 10.138 2.69 16.362 2.69h.432l.42-.11a64.1 64.1 0 0 0 6.039-1.917 89.946 89.946 0 0 0 6.114-2.559c2.046-.941 4.233-2.03 6.498-3.232a312.13 312.13 0 0 0 7.125-3.909l2.544-1.434-4.611-11.673-3.094 1.157zm-24.025-42.151l.367.005c1.854.054 3.396.481 4.717 1.307 1.299.811 2.304 1.975 3.078 3.559.819 1.671 1.234 3.826 1.234 6.399 0 .697-.113 1.35-.341 1.993-.459.054-1.041.116-1.752.181-1.209.114-2.854.233-4.933.37-2.101.135-4.739.27-7.903.407-2.269.098-4.89.171-7.823.223.2-1.646.516-3.119.945-4.395.723-2.147 1.532-3.889 2.403-5.178 1.044-1.542 1.859-2.316 2.362-2.694 1.025-.777 1.416-.939 1.493-.966 2.186-.804 4.259-1.211 6.153-1.211zm70.863 8.445a39.419 39.419 0 0 1 3.966-1.827 33.162 33.162 0 0 1 4.442-1.396 21.4 21.4 0 0 1 3.778-.573c.019.022.038.047.056.07.064.151.13.293.189.42l1.775 12.149h13.677l2.22-30.412-2.886-.589a38.407 38.407 0 0 0-6.813-.751l-.832-.009c-1.766 0-3.675.138-5.665.417a22.934 22.934 0 0 0-7.133 2.204l-.262.146a68.782 68.782 0 0 0-4.867 3.314c-.861.643-1.678 1.267-2.447 1.867l.468-6.189-6.207-3.261-1.537.769a694.342 694.342 0 0 1-6.332 3.13 57.22 57.22 0 0 1-4.687 2.036c-1.51.574-3.206 1.098-5.044 1.564-1.917.486-4.421 1.021-7.437 1.597l-2.724.518v10.297l2.512.648c1.345.349 2.679.74 4.006 1.174a9.013 9.013 0 0 1 2.729 1.419c.667.514 1.213 1.249 1.67 2.242.473 1.02.72 2.558.72 4.446v26.626c0 2.509-.102 4.488-.308 5.875-.134.915-.395 1.6-.775 2.044-.427.503-1.127.941-2.08 1.308-1.372.529-3.314 1.185-5.773 1.946l-2.359.73v11.432h48.522v-11.621l-16.153-3.768V65.167c.494-.271 1.025-.564 1.591-.865zM281.336 96.748c-.222.698-.45 1.339-.689 1.915a19.23 19.23 0 0 1-.388.879 45.446 45.446 0 0 1-2.089 1.903c-.79.68-1.728 1.313-2.783 1.878-1.068.573-2.297 1.06-3.652 1.444-2.952.842-6.981.649-10.889.047a73.287 73.287 0 0 1-6.544-1.311 66.594 66.594 0 0 1-5.674-1.662c-1.553-.536-2.777-1.021-3.639-1.44a5.847 5.847 0 0 1-.373-.264s-.092-.072-.272-.294c-.027-.034-.167-.217-.387-.708-.133-.304-.348-.863-.614-1.818l-3.342-18.296-13.604-.237-3.598 32.625 2.033 1.062a94.51 94.51 0 0 0 7.241 3.375 81.197 81.197 0 0 0 7.888 2.819 71.385 71.385 0 0 0 8.117 1.937c2.761.489 5.434.736 7.94.736 5.986 0 11.768-.552 17.188-1.64 5.585-1.119 10.591-3.013 14.875-5.625 4.431-2.699 7.998-6.33 10.599-10.791 2.62-4.493 3.946-10.023 3.946-16.438 0-5.133-.957-9.567-2.844-13.186-1.853-3.549-4.337-6.579-7.388-9.008-2.92-2.327-6.271-4.294-9.959-5.842a148.549 148.549 0 0 0-10.753-4.028 791.54 791.54 0 0 1-10.458-3.543c-3.165-1.098-6.014-2.447-8.473-4.011-2.279-1.445-4.128-3.233-5.502-5.315-1.265-1.915-1.907-4.437-1.907-7.493 0-1.549.159-2.815.477-3.769.334-1.004.729-1.846 1.174-2.501.462-.687.949-1.263 1.451-1.714a19.29 19.29 0 0 0 1.729-1.761c1.144-.563 2.525-.972 4.123-1.213 2.08-.317 4.431-.476 6.993-.476 3.026 0 5.787.272 8.204.81 2.426.54 4.52 1.159 6.226 1.838.446.228.847.462 1.211.708.209.142.414.34.613.594.223.286.426.647.607 1.079.215.511.418 1.2.619 2.117l3.354 14.001h13.081l2.441-33.336-3.103-.437a119.98 119.98 0 0 1-6.792-1.132 324.546 324.546 0 0 0-6.022-1.142 81.557 81.557 0 0 0-6.212-.857c-4.803-.483-11.433-.472-17.57.392a59.975 59.975 0 0 0-9.897 2.248 45.36 45.36 0 0 0-9.017 3.994c-2.854 1.665-5.387 3.698-7.528 6.042a27.368 27.368 0 0 0-5.147 8.184c-1.253 3.083-1.89 6.572-1.89 10.368 0 5.336.947 9.946 2.813 13.707 1.836 3.697 4.312 6.899 7.356 9.507 2.938 2.52 6.311 4.657 10.029 6.358 3.533 1.614 7.18 3.09 10.845 4.388a1329.1 1329.1 0 0 1 10.546 3.787c3.218 1.174 6.117 2.559 8.619 4.113 2.309 1.437 4.174 3.178 5.543 5.175 1.264 1.841 1.877 4.141 1.877 7.035 0 .642-.072 1.32-.209 2.009a19.572 19.572 0 0 1-.55 2.214zm35.651 19.11a22.949 22.949 0 0 0 7.641 3.96c5.344 1.618 11.002 1.473 15.101.583a23.466 23.466 0 0 0 5.864-2.118c1.743-.907 3.551-2.09 5.374-3.511.409-.317.83-.652 1.269-1.001.459 1.35 1.09 2.515 1.9 3.519 2.032 2.503 5.234 3.771 9.518 3.771a23.84 23.84 0 0 0 4.648-.474c1.44-.282 2.905-.62 4.356-1.007a51.184 51.184 0 0 0 4.132-1.28 91.874 91.874 0 0 0 3.303-1.242l2.104-.845v-7.949c0-.863 0-3.488-4.993-3.488-.936 0-1.986-.08-3.131-.241a8.317 8.317 0 0 1-2.348-.677V64.733c0-4.078-.47-7.591-1.396-10.448-1.015-3.125-2.698-5.692-5.006-7.628-2.232-1.868-5.069-3.197-8.436-3.952-3.083-.691-6.84-1.039-11.169-1.039-.933 0-2.111.159-3.603.491a61.718 61.718 0 0 0-4.458 1.195c-1.604.49-3.336 1.047-5.192 1.672a191.73 191.73 0 0 0-11.154 4.15 529.495 529.495 0 0 0-4.965 2.071l-1.824.775-2.015 19.762h17.132l.73-2.362c.745-2.411 1.488-4.549 2.204-6.358.626-1.573 1.354-2.884 2.168-3.894.681-.848 1.472-1.452 2.419-1.854 1.039-.437 2.441-.66 4.125-.66 3.361.049 5.195.435 6.143.75 1.521.51 2.155 1.026 2.396 1.285.356.386.549.778.615 1.26.139 1.015.209 2.094.209 3.208v7.83c-5.125 1.246-9.64 2.43-13.457 3.529-4.519 1.304-8.412 2.609-11.572 3.873-3.276 1.311-5.991 2.672-8.069 4.049-2.214 1.468-3.971 3.077-5.224 4.775-1.307 1.769-2.192 3.711-2.634 5.769-.392 1.821-.589 3.833-.589 5.974 0 3.769.748 7.12 2.227 9.962 1.45 2.785 3.353 5.124 5.657 6.94zm23.329-11.629c-1.501 0-2.925-.163-4.234-.487-1.13-.277-2.097-.708-2.877-1.288a5.641 5.641 0 0 1-1.709-2.042c-.417-.817-.628-1.883-.628-3.167 0-1.503.28-2.752.829-3.717a8.497 8.497 0 0 1 2.446-2.712c1.162-.841 2.53-1.564 4.065-2.137a57.409 57.409 0 0 1 5.37-1.716 295.344 295.344 0 0 1 5.817-1.488c.427-.106.847-.213 1.261-.322v14.296a27.548 27.548 0 0 1-4.693 3.238c-1.893 1.036-3.74 1.542-5.647 1.542zm215.849 3.285c-.691-.204-1.42-.46-2.182-.759a29.73 29.73 0 0 1-2.205-.965 18.057 18.057 0 0 1-1.723-.944c-.163-.103-.284-.188-.375-.25-.016-.047-.029-.101-.045-.161-.098-.391-.104-.552-.104-.552V28.102c.044-2.453.09-4.553.134-6.3.047-1.737.103-3.405.172-5.014.064-1.583.165-3.243.299-4.979.14-1.767.318-3.868.542-6.313l.203-2.183L544.891 0l-1.535.697c-1.97.894-3.793 1.694-5.473 2.385a76.947 76.947 0 0 1-5.122 1.903 88.787 88.787 0 0 1-5.866 1.715 279.339 279.339 0 0 1-7.744 1.859l-2.607.594v10.42l2.697.537c1.329.266 2.467.51 3.416.729.682.159 1.349.418 2.106.83 1.351.674 1.995 1.284 2.293 1.675a5.841 5.841 0 0 1 1.028 2.077c.244.909.366 1.918.366 3.004v14.33c-.919-.152-1.878-.306-2.872-.462-5.287-.822-10.88-.954-16.643.391a41.174 41.174 0 0 0-8.386 2.943 41.206 41.206 0 0 0-7.746 4.838 34.84 34.84 0 0 0-6.572 6.821c-2.653 3.458-4.705 7.534-6.096 12.126-1.366 4.516-2.062 9.623-2.062 15.172 0 2.646.247 5.385.736 8.149a42.428 42.428 0 0 0 2.303 8.165 37.736 37.736 0 0 0 4.051 7.62 29.048 29.048 0 0 0 6.073 6.463c2.354 1.833 5.089 3.311 8.135 4.383 3.062 1.082 6.487 1.629 10.185 1.629 2.933 0 6.472-.975 10.816-2.979 2.659-1.228 5.578-2.958 8.716-5.165.019.213.039.417.057.605.094 1.216.22 2.334.362 3.357l.409 2.881h28.642v-11.465l-2.393-.713zm-35.922-6.467a52.283 52.283 0 0 1-5.242 1.64c-3.583.9-5.479.814-7.648-.763-1.433-1.04-2.727-2.561-3.851-4.529-1.207-2.117-2.197-4.718-2.941-7.729-.75-3.053-1.133-6.468-1.133-10.149 0-4.452.446-8.218 1.333-11.196.852-2.871 1.974-5.176 3.327-6.854 1.303-1.611 2.721-2.723 4.337-3.397a12.677 12.677 0 0 1 4.986-1.007l.234.002c3.32.083 6.479.516 9.387 1.289 2.062.552 3.879 1.177 5.417 1.871v37.124a64.774 64.774 0 0 1-8.206 3.698zm-203.605 98.77c0-2.444.172-4.351.51-5.667.255-.988.643-1.721 1.19-2.244.648-.619 1.549-1.128 2.671-1.516 1.525-.518 3.476-1.094 5.796-1.709l2.495-.659v-11.547h-45.99v11.403l11.84 3.836v31.375h-42.852v-23.272c0-2.444.172-4.351.509-5.667.255-.988.653-1.75 1.186-2.271.615-.603 1.5-1.103 2.628-1.481 1.553-.522 3.502-1.101 5.791-1.722l2.48-.666v-11.534H218.97v11.403l11.841 3.836v72.851c0 2.487-.146 4.438-.439 5.798-.217 1.008-.559 1.778-1.021 2.287-.485.536-1.247.99-2.259 1.35-1.461.514-3.36 1.088-5.641 1.705l-2.478.668v11.53h46.742v-11.501l-13.415-3.768v-34.627h42.851v26.56c0 2.489-.146 4.44-.439 5.802-.215 1.006-.558 1.774-1.021 2.283-.485.536-1.248.991-2.262 1.35-1.461.515-3.359 1.088-5.642 1.705l-2.478.666v11.533h46.811V276.4l-13.483-3.768.001-72.815zm80.527 19.093c-3.161-3.084-7.064-5.4-11.605-6.882-4.381-1.424-9.383-2.147-14.863-2.147a38.303 38.303 0 0 0-14.921 3 38.602 38.602 0 0 0-12.552 8.506c-3.601 3.65-6.5 8.113-8.617 13.262-2.121 5.154-3.196 10.982-3.196 17.327 0 6.21.973 11.717 2.887 16.366 1.937 4.701 4.646 8.672 8.054 11.803 3.396 3.113 7.426 5.471 11.977 7.003 4.455 1.502 9.294 2.265 14.383 2.265 5.24 0 10.234-1.041 14.85-3.096 4.603-2.051 8.688-5.018 12.137-8.814 3.42-3.77 6.152-8.357 8.121-13.646 1.956-5.26 2.946-11.188 2.946-17.629 0-5.967-.8-11.26-2.381-15.73-1.629-4.605-4.058-8.502-7.22-11.588zm-13.119 31.83a69.84 69.84 0 0 1-.622 9.271c-.393 2.933-1.098 5.613-2.093 7.968-.93 2.198-2.146 3.942-3.718 5.331-1.375 1.214-3.123 1.872-5.354 2.005-3.608.229-6.591-.254-8.801-1.448-2.262-1.227-4.013-2.914-5.354-5.168-1.429-2.395-2.449-5.306-3.032-8.652-.627-3.555-.944-7.399-.944-11.43 0-3.309.208-6.56.621-9.656.39-2.926 1.096-5.551 2.101-7.801.925-2.072 2.161-3.761 3.671-5.021 1.365-1.14 3.148-1.759 5.428-1.896.504-.029.998-.043 1.48-.043 2.935 0 5.393.514 7.301 1.533 2.263 1.207 4.012 2.865 5.35 5.073 1.422 2.349 2.438 5.219 3.025 8.532.625 3.54.941 7.374.941 11.402zm222.238 15.482a128.93 128.93 0 0 1-6.941 2.4 133.794 133.794 0 0 1-6.236 1.81 299.142 299.142 0 0 1-5.82 1.524 35.158 35.158 0 0 1-3.701-.279 17.787 17.787 0 0 1-4.181-1.071c-1.367-.522-2.746-1.296-4.092-2.294-1.248-.928-2.375-2.201-3.354-3.794-1.024-1.657-1.858-3.746-2.479-6.208-.43-1.709-.694-3.689-.791-5.926h44.358l.29-3.031a75.125 75.125 0 0 0 .324-5.4c.021-.787.054-1.475.105-2.242.093-4.563-.33-8.787-1.263-12.547-.979-3.935-2.615-7.377-4.867-10.232-2.296-2.912-5.275-5.18-8.852-6.744-3.492-1.529-7.71-2.301-12.531-2.301-5.856 0-11.216 1.119-15.932 3.326-4.69 2.195-8.751 5.211-12.069 8.961-3.299 3.713-5.884 8.078-7.689 12.973-1.789 4.854-2.746 10.033-2.839 15.38-.144 5.937.5 11.364 1.915 16.132 1.462 4.916 3.795 9.155 6.933 12.598 3.15 3.459 7.15 6.133 11.882 7.953 4.631 1.785 10.138 2.688 16.361 2.688h.432l.42-.108a63.456 63.456 0 0 0 6.04-1.918 88.39 88.39 0 0 0 6.113-2.561 128.734 128.734 0 0 0 6.499-3.23 315.528 315.528 0 0 0 7.123-3.908l2.547-1.435-4.612-11.673-3.093 1.157zm-24.025-42.152l.366.004c1.855.053 3.399.482 4.72 1.307 1.297.812 2.304 1.977 3.078 3.561.817 1.67 1.233 3.824 1.233 6.396 0 .699-.111 1.351-.34 1.996-.462.053-1.044.115-1.753.18-1.21.113-2.854.232-4.932.369-2.104.137-4.739.27-7.905.406-2.268.098-4.889.172-7.826.223.202-1.646.519-3.119.947-4.395.725-2.146 1.534-3.891 2.405-5.18 1.043-1.542 1.859-2.316 2.362-2.693 1.024-.775 1.416-.938 1.492-.967 2.188-.801 4.26-1.207 6.153-1.207zm182.217 51.506c-2.104-1.357-4.26-3.008-6.418-4.902-2.188-1.926-4.434-4.119-6.676-6.516a130.692 130.692 0 0 1-6.618-7.654 74.85 74.85 0 0 1-4.158-5.666 88.934 88.934 0 0 1-3.528-5.771 107.455 107.455 0 0 1-2.823-5.38c-.154-.317-.304-.62-.446-.923a28.657 28.657 0 0 0 6.831-3.689 38.11 38.11 0 0 0 8.367-8.365 40.709 40.709 0 0 0 5.554-10.586c1.352-3.853 2.038-7.771 2.038-11.649 0-4.833-.836-9.151-2.481-12.833-1.662-3.715-4.008-6.852-6.976-9.318-2.914-2.423-6.42-4.26-10.421-5.459-3.879-1.16-8.15-1.748-12.7-1.748a249.805 249.805 0 0 0-13.663.345 93.944 93.944 0 0 0-4.654.357 117.55 117.55 0 0 1-3.695.331 151.26 151.26 0 0 1-3.698.231c-1.225.068-2.575.1-4.058.1h-22.242v11.338l11.294 3.629v73.941c0 2.354-.14 4.207-.412 5.512-.189.918-.503 1.615-.923 2.068-.474.512-1.188.943-2.129 1.277-1.375.494-3.165 1.027-5.322 1.586l-2.509.654v11.35h45.647v-11.307l-12.867-3.561v-31.922a133.106 133.106 0 0 0 8.249.707 342.32 342.32 0 0 1 2.251 4.861 429.574 429.574 0 0 0 3.034 6.549 157.958 157.958 0 0 0 3.183 6.365 96.345 96.345 0 0 0 3.613 6.258c1.549 2.369 3.042 4.66 4.479 6.867a54.509 54.509 0 0 0 4.889 6.461 30.614 30.614 0 0 0 6.002 5.229c2.309 1.52 4.944 2.559 7.755 3.08 1.642.347 3.36.586 5.11.713 1.667.119 3.359.22 4.934.178 1.627.045 3.436.07 5.436.07h8.626l.18-9.293-2.402-.75c-1.76-.549-3.661-1.478-5.653-2.765zm-35.08-81.838c1.795 1.584 3.161 3.479 4.185 5.788 1.012 2.296 1.528 4.974 1.528 7.955 0 2.36-.194 4.46-.577 6.248-.379 1.78-.89 3.378-1.518 4.747-.62 1.355-1.338 2.561-2.131 3.585a27.49 27.49 0 0 1-2.362 2.675c-1.465.758-3.153 1.359-5.023 1.797a47.036 47.036 0 0 1-6.902 1.055 52.716 52.716 0 0 1-7.367.063 59.098 59.098 0 0 1-4.447-.431v-26.578c0-2.932.099-5.357.291-7.217.139-1.35.463-2.404.933-3.039.371-.504 1.019-.866 1.96-1.107 1.441-.363 3.549-.549 6.267-.549 3.125 0 6.034.447 8.646 1.332 2.525.85 4.721 2.086 6.517 3.676zm99.94 72.484a129.232 129.232 0 0 1-6.941 2.4 132.72 132.72 0 0 1-6.235 1.81 304.842 304.842 0 0 1-5.819 1.524 35.117 35.117 0 0 1-3.702-.279 17.73 17.73 0 0 1-4.18-1.071c-1.368-.522-2.747-1.296-4.091-2.294-1.249-.928-2.375-2.201-3.357-3.794-1.021-1.657-1.854-3.746-2.477-6.208-.428-1.709-.696-3.689-.792-5.926h44.356l.292-3.031c.098-1.008.169-1.967.22-2.868.045-.804.082-1.646.105-2.532.022-.787.055-1.475.104-2.242.094-4.563-.328-8.787-1.263-12.547-.978-3.935-2.613-7.377-4.864-10.232-2.298-2.912-5.276-5.18-8.854-6.744-3.492-1.529-7.709-2.301-12.531-2.301-5.854 0-11.216 1.119-15.93 3.326-4.69 2.195-8.752 5.211-12.072 8.961-3.297 3.713-5.883 8.078-7.687 12.973-1.79 4.854-2.747 10.033-2.839 15.38-.145 5.937.5 11.364 1.916 16.132 1.462 4.916 3.795 9.155 6.932 12.598 3.151 3.459 7.151 6.133 11.88 7.953 4.631 1.785 10.141 2.688 16.363 2.688h.432l.419-.108a63.546 63.546 0 0 0 6.04-1.918 88.166 88.166 0 0 0 6.112-2.561 128.33 128.33 0 0 0 6.5-3.23 313.405 313.405 0 0 0 7.122-3.908l2.548-1.435-4.612-11.673-3.095 1.157zm-24.024-42.152l.366.004c1.854.053 3.397.482 4.72 1.307 1.298.812 2.303 1.977 3.077 3.561.818 1.67 1.232 3.824 1.232 6.396 0 .699-.109 1.351-.338 1.996-.46.053-1.043.115-1.75.18-1.212.113-2.855.232-4.936.369-2.101.137-4.737.27-7.902.406-2.27.098-4.89.172-7.825.223.202-1.646.516-3.119.948-4.395.721-2.146 1.532-3.891 2.403-5.18 1.043-1.542 1.859-2.316 2.362-2.693 1.024-.775 1.416-.938 1.491-.967 2.184-.801 4.257-1.207 6.152-1.207zm111.249.222c-2.033-3.359-4.378-6.058-6.965-8.018-2.49-1.887-4.979-3.326-7.401-4.279-2.408-.949-4.675-1.547-6.73-1.787-1.924-.224-3.326-.33-4.287-.33-2.282 0-4.698.494-7.173 1.461a52.748 52.748 0 0 0-6.616 3.145 73.046 73.046 0 0 0-5.167 3.186c.064-1.408.148-2.797.26-4.174l.173-2.201-6.096-3.207-1.548.791c-1.799.92-3.567 1.77-5.249 2.524a59.388 59.388 0 0 1-5.016 1.976 65.049 65.049 0 0 1-5.31 1.563 74.207 74.207 0 0 1-5.957 1.209l-2.812.458v10.417l2.562.618c1.486.359 2.839.697 4.05 1.009.78.204 1.425.515 1.969.952.42.336.783.902 1.067 1.686.25.68.549 2.029.549 4.596v63.31c0 2.253-.094 4.05-.274 5.354-.167 1.182-.457 1.812-.669 2.131-.254.384-.645.697-1.188.957-.913.439-2.188.888-3.776 1.341l-2.441.69v11.498h44.759v-11.58l-15.331-3.836v-17.256c1.349.205 2.704.4 4.05.574 2.749.359 5.209.54 7.312.54 1.524 0 3.479-.153 5.97-.47 2.56-.328 5.318-1.02 8.205-2.055 2.899-1.043 5.848-2.527 8.764-4.412 3.025-1.961 5.801-4.586 8.241-7.805 2.425-3.201 4.417-7.131 5.918-11.688 1.499-4.537 2.258-9.969 2.258-16.143 0-5.082-.635-9.551-1.89-13.283-1.208-3.603-2.622-6.779-4.211-9.462zm-37.411 5.954a60.825 60.825 0 0 1 5.737-1.91c3.622-1.002 6.191-1.184 8.606.754 1.482 1.189 2.804 2.865 3.929 4.979 1.202 2.263 2.156 4.962 2.84 8.021.695 3.119 1.048 6.488 1.048 10.017 0 3.324-.289 6.47-.861 9.343-.534 2.701-1.406 5.067-2.588 7.028-1.109 1.829-2.512 3.215-4.282 4.235-1.733.996-3.946 1.504-6.575 1.504-2.998 0-5.958-.424-8.806-1.264a49.91 49.91 0 0 1-6.256-2.287v-37.135c.589-.302 1.257-.636 2-1a66.025 66.025 0 0 1 5.208-2.285zm116.292 42.742a22.94 22.94 0 0 1-3.13-.242 8.336 8.336 0 0 1-2.346-.677v-39.126c0-4.072-.469-7.588-1.396-10.447-1.013-3.123-2.698-5.689-5.009-7.627-2.23-1.869-5.069-3.197-8.434-3.953-3.086-.689-6.841-1.039-11.169-1.039-.936 0-2.112.158-3.601.492a60.013 60.013 0 0 0-4.461 1.195 186.06 186.06 0 0 0-5.188 1.671 187.786 187.786 0 0 0-5.604 1.985 174.085 174.085 0 0 0-5.549 2.162 504.85 504.85 0 0 0-4.968 2.072l-1.822.774-2.011 19.761h17.133l.729-2.363c.741-2.397 1.48-4.535 2.204-6.357.625-1.572 1.354-2.883 2.166-3.895.684-.846 1.475-1.451 2.423-1.854 1.039-.438 2.44-.658 4.122-.658 3.362.049 5.199.436 6.141.75 1.524.51 2.158 1.023 2.395 1.281.36.391.551.781.616 1.264.138 1.014.209 2.094.209 3.207v7.834c-5.134 1.246-9.649 2.43-13.458 3.526-4.517 1.308-8.412 2.608-11.572 3.874-3.275 1.309-5.991 2.669-8.068 4.048-2.216 1.47-3.975 3.077-5.225 4.774-1.308 1.77-2.192 3.709-2.638 5.772-.391 1.828-.587 3.837-.587 5.97 0 3.771.748 7.125 2.227 9.963 1.447 2.789 3.352 5.123 5.654 6.939a22.99 22.99 0 0 0 7.642 3.963c5.337 1.614 10.998 1.471 15.103.582a23.496 23.496 0 0 0 5.863-2.117c1.744-.91 3.551-2.092 5.374-3.514.407-.316.829-.652 1.271-1.001.457 1.349 1.088 2.519 1.9 3.521 2.03 2.5 5.232 3.771 9.516 3.771 1.498 0 3.062-.16 4.647-.475a63.18 63.18 0 0 0 4.358-1.008 50.56 50.56 0 0 0 4.138-1.281 87.643 87.643 0 0 0 3.303-1.243l2.101-.845v-7.947c-.003-.859-.003-3.482-4.999-3.482zm-36.887-.548c-1.501 0-2.925-.165-4.233-.489-1.134-.277-2.099-.707-2.875-1.285a5.686 5.686 0 0 1-1.714-2.041c-.415-.818-.625-1.887-.625-3.17 0-1.502.276-2.75.823-3.713a8.474 8.474 0 0 1 2.448-2.714c1.164-.845 2.532-1.563 4.064-2.142a59.416 59.416 0 0 1 5.369-1.713 286.708 286.708 0 0 1 5.818-1.488c.423-.104.845-.211 1.256-.32v14.295a27.748 27.748 0 0 1-4.692 3.238c-1.886 1.036-3.732 1.542-5.639 1.542zm58.87-75.048c1.133 1.165 2.518 2.096 4.112 2.77 1.595.678 3.369 1.02 5.273 1.02 1.832 0 3.636-.307 5.35-.907a14.755 14.755 0 0 0 4.688-2.657 13.437 13.437 0 0 0 3.32-4.187c.854-1.681 1.286-3.562 1.286-5.593 0-1.836-.351-3.555-1.047-5.104a12.08 12.08 0 0 0-2.813-3.941c-1.163-1.065-2.547-1.9-4.104-2.479a13.725 13.725 0 0 0-4.833-.861c-2.348 0-4.472.383-6.312 1.146-1.811.75-3.364 1.731-4.626 2.933-1.31 1.25-2.293 2.7-2.926 4.314-.61 1.554-.917 3.125-.917 4.684 0 1.705.313 3.338.935 4.855a12.535 12.535 0 0 0 2.614 4.007zm20.679 38.766c0-2.205.022-4.293.066-6.256.044-1.92.134-3.781.266-5.574.135-1.805.301-3.572.5-5.308.198-1.722.453-3.502.763-5.292l.417-2.426-6.229-3.198-1.52.761a40.133 40.133 0 0 1-4.513 1.922 44.642 44.642 0 0 1-4.933 1.399c-1.874.423-3.973.847-6.295 1.271-2.376.436-5.126.949-8.239 1.543l-2.722.521v10.311l2.536.637c1.349.337 2.663.74 3.902 1.193a7.946 7.946 0 0 1 2.556 1.512c.667.597 1.229 1.436 1.67 2.486.462 1.11.696 2.666.696 4.629v28.27c0 2.49-.147 4.441-.436 5.798-.214.994-.56 1.752-1.027 2.255-.517.559-1.291 1.023-2.303 1.387-1.438.51-3.334 1.084-5.646 1.696l-2.493.659v11.543h45.439v-11.451l-12.455-3.768v-36.52zm71.762-26.551l-.832-.01c-1.766 0-3.673.139-5.669.417a22.946 22.946 0 0 0-7.128 2.204l-.263.145a68.083 68.083 0 0 0-4.866 3.314c-.861.645-1.678 1.267-2.448 1.867l.469-6.189-6.208-3.262-1.537.77a738.303 738.303 0 0 1-6.333 3.131 57.245 57.245 0 0 1-4.687 2.035 45.964 45.964 0 0 1-5.044 1.562c-1.916.486-4.421 1.021-7.436 1.597l-2.725.519v10.295l2.512.649c1.344.349 2.678.739 4.006 1.173a9.06 9.06 0 0 1 2.729 1.42c.665.514 1.211 1.248 1.668 2.242.473 1.02.72 2.559.72 4.446v26.625c0 2.508-.102 4.487-.309 5.875-.134.916-.395 1.601-.774 2.045-.426.503-1.128.94-2.08 1.308-1.373.528-3.313 1.184-5.774 1.945l-2.359.73v11.433h48.522v-11.622l-16.151-3.766v-39.127a52.085 52.085 0 0 1 1.584-.877 39.01 39.01 0 0 1 3.965-1.826 33.348 33.348 0 0 1 4.438-1.395 21.44 21.44 0 0 1 3.78-.574l.054.069c.066.151.13.294.191.421l1.772 12.148h13.679l2.22-30.412-2.886-.59a39.41 39.41 0 0 0-6.8-.735zm69.761 43.353a19.275 19.275 0 0 0-5.35-6.053c-2.076-1.529-4.457-2.785-7.07-3.734a107.715 107.715 0 0 0-7.35-2.368l-7.115-2.021c-2.092-.593-3.959-1.328-5.562-2.191-1.393-.747-2.514-1.67-3.34-2.746-.662-.865-.983-2.01-.983-3.504 0-.754.125-1.541.366-2.338a8.61 8.61 0 0 1 1.029-2.213 4.538 4.538 0 0 1 1.326-1.332c.367-.24.732-.348 1.182-.348 2.322 0 4.689.24 7.031.719 2.338.476 4.39 1.086 6.092 1.815.519.224.671.448.722.522.244.369.646 1.095 1.182 2.498l2.896 7.24h12.02l2.383-24.654-3.201-.426c-3.791-.51-7.494-.941-11.004-1.283a116.777 116.777 0 0 0-11.276-.527c-4.619 0-8.8.598-12.43 1.773-3.739 1.211-6.945 2.996-9.544 5.303-2.633 2.34-4.651 5.207-6.009 8.527-1.325 3.244-1.995 6.906-1.995 10.879 0 3.504.714 6.521 2.123 8.965a18.65 18.65 0 0 0 5.373 5.914c2.064 1.471 4.438 2.703 7.048 3.668 2.405.889 4.897 1.699 7.401 2.408 2.389.676 4.748 1.377 7.068 2.096 2.104.654 3.983 1.451 5.588 2.375 1.42.814 2.52 1.783 3.367 2.953.702.978 1.043 2.262 1.043 3.929 0 .685-.099 1.304-.296 1.89a5.128 5.128 0 0 1-.832 1.543 3.074 3.074 0 0 1-1.057.858c-.4.202-.85.298-1.377.298-1.687 0-3.303-.036-4.85-.102a34.988 34.988 0 0 1-4.248-.435 39.048 39.048 0 0 1-4.097-.915 27.183 27.183 0 0 1-3.723-1.355 3.68 3.68 0 0 1-.319-.264c-.011-.014-.254-.365-.684-1.525l-3.369-9.664-12.444-.237-3.034 22.955 2.176 1.058c1.702.828 3.67 1.629 5.848 2.377a71.84 71.84 0 0 0 6.674 1.94c2.264.54 4.546.983 6.791 1.321 2.298.342 4.423.515 6.314.515 4.133 0 8.1-.474 11.801-1.401 3.854-.969 7.277-2.551 10.178-4.701 2.974-2.199 5.351-5.068 7.064-8.525 1.707-3.443 2.572-7.615 2.572-12.406.007-3.535-.7-6.588-2.099-9.071zm-631.83 23.2l-2.732-.515c-.434-.08-1.272-.271-2.805-.713a104.82 104.82 0 0 1-4-1.242 178.13 178.13 0 0 1-2.788-.909l-.062-32.922a320.503 320.503 0 0 1-.068-6.673c0-2.351-.146-4.61-.44-6.729-.316-2.236-.886-4.357-1.701-6.304a15.055 15.055 0 0 0-4.044-5.583c-1.745-1.518-3.985-2.699-6.656-3.516-2.545-.779-5.684-1.172-9.331-1.172-1.517 0-3.003.138-4.422.402a56.318 56.318 0 0 0-3.613.803c-1.13.295-2.138.59-3.012.883-.788.263-1.398.459-1.831.592l-.658.277a987.065 987.065 0 0 0-5.155 2.886 392.12 392.12 0 0 1-4.949 2.745l-2.517 1.365a18.49 18.49 0 0 0-.812-1.596c-1.034-1.802-2.458-3.365-4.234-4.645-1.726-1.246-3.86-2.193-6.344-2.824-2.339-.592-5.16-.889-8.38-.889-1.465 0-2.938.134-4.379.4a50.12 50.12 0 0 0-3.645.807 48.087 48.087 0 0 0-2.947.888c-.752.257-1.342.45-1.77.58l-.679.29a828.13 828.13 0 0 0-5.321 3.021c-1.46.834-2.803 1.604-4.032 2.315l.555-6.819-6.225-3.263-1.537.769a333.23 333.23 0 0 0-6.428 3.283 59.141 59.141 0 0 1-4.709 2.238c-1.471.623-3.143 1.197-4.964 1.707-1.884.527-4.37 1.08-7.385 1.645l-2.734.512v10.326l2.534.637c1.382.343 2.747.738 4.052 1.164a9.083 9.083 0 0 1 2.729 1.42c.655.507 1.184 1.226 1.62 2.201.322.719.702 2.082.702 4.488v26.076c0 2.512-.103 4.49-.31 5.877-.134.93-.395 1.629-.771 2.084-.396.477-1.09.912-2.009 1.268-1.388.535-3.332 1.189-5.775 1.947l-2.361.73v11.432h42.868v-11.82l-10.566-3.359v-40.118a38.578 38.578 0 0 1 5.98-2.617 37.47 37.47 0 0 1 4.833-1.283c3.13-.619 6.727-.549 8.95-.328.971.095 1.776.232 2.403.406.498.139.893.303 1.179.485.31.196.605.431.89.696.045.089.129.283.229.627.163.566.243 1.137.243 1.738v32.102c0 2.076-.01 3.783-.032 5.109-.021 1.108-.107 2.004-.258 2.66-.108.479-.228.646-.228.646-.062.072-.27.275-.78.527-.607.307-1.433.613-2.444.918-1.234.373-2.759.863-4.579 1.469l-1.152.384v11.759h41.51v-12.01l-1.306-.246c-.433-.082-1.273-.27-2.804-.713a106.037 106.037 0 0 1-3.999-1.242 168.77 168.77 0 0 1-2.791-.91l-.062-32.17c0-1.703-.01-3.418-.034-5.143a132.18 132.18 0 0 0-.075-2.95 55.559 55.559 0 0 1 1.687-.806 47.419 47.419 0 0 1 4.336-1.725 37.933 37.933 0 0 1 4.809-1.285c3.18-.637 6.597-.535 8.85-.328 1.024.098 1.893.238 2.572.418.685.181 1.079.373 1.29.504.365.227.71.502.936.705 0 0 .084.139.181.504.153.601.232 1.195.232 1.82v32.103c0 2.077-.012 3.782-.034 5.11-.02 1.107-.107 2.004-.257 2.658-.109.479-.229.647-.229.647-.062.073-.268.276-.781.528-.604.303-1.427.61-2.44.918-1.246.375-2.753.867-4.534 1.477l-.87.297v11.838h42.606V276.16h.014zm-72.879-168.718c-.609-.124-1.486-.364-2.63-.708-1.239-.375-2.5-.785-3.813-1.238-.821-.275-1.683-.57-2.573-.884l-.063-39.637c0-2.339-.137-4.589-.404-6.689a24.49 24.49 0 0 0-1.671-6.347 14.841 14.841 0 0 0-4.097-5.595c-1.77-1.516-4.056-2.694-6.799-3.506-2.644-.787-5.786-1.166-9.614-1.166a26 26 0 0 0-4.449.394c-1.375.241-2.657.51-3.845.798-1.2.294-2.262.589-3.186.882-.85.266-1.495.467-1.942.602l-.687.292a869.088 869.088 0 0 0-5.314 3.02c-1.499.856-2.889 1.644-4.176 2.373l.559-6.871-6.234-3.279-1.55.793a122.184 122.184 0 0 1-4.332 2.133 61.718 61.718 0 0 1-3.382 1.461 51.968 51.968 0 0 1-3.019 1.096c-.974.317-2.028.608-3.167.884a90.96 90.96 0 0 1-3.995.858l-8.155 1.59v10.309l2.541.631a52.85 52.85 0 0 1 3.991 1.159c1.011.338 1.88.798 2.649 1.403.641.505 1.183 1.254 1.616 2.221.322.719.703 2.085.703 4.49v27.448c0 2.536-.095 4.526-.281 5.925-.12.913-.371 1.628-.726 2.069-.37.458-1.039.884-1.947 1.232-1.387.535-3.331 1.189-5.773 1.946l-2.363.729v11.433h43.139v-11.689l-10.975-3.489v-40.13a48.254 48.254 0 0 1 1.775-.931 33.269 33.269 0 0 1 4.228-1.739 42.902 42.902 0 0 1 4.946-1.331c3.279-.678 6.899-.562 9.29-.353 1.09.096 2.023.239 2.766.425.744.185 1.17.385 1.397.519.335.2.646.42.951.677.047.101.125.286.21.581a6.3 6.3 0 0 1 .246 1.747v32.24c0 2.077-.011 3.792-.034 5.143-.02 1.185-.096 2.145-.223 2.854-.078.425-.173.576-.173.576h.002c-.046.054-.231.249-.734.495-.602.29-1.445.584-2.516.871-1.299.348-2.899.799-4.796 1.356l-1.686.497v11.681h43.008v-11.706l-2.693-.545zm312.901 2.365c-1.502-.56-3.092-1.369-4.75-2.441-2.104-1.358-4.261-3.01-6.417-4.902-2.188-1.925-4.436-4.12-6.679-6.518a129.746 129.746 0 0 1-6.616-7.654 74.035 74.035 0 0 1-4.159-5.665 90.841 90.841 0 0 1-3.528-5.771 112.371 112.371 0 0 1-2.824-5.38c-.152-.318-.303-.622-.443-.923a28.85 28.85 0 0 0 6.831-3.688 38.093 38.093 0 0 0 8.366-8.367 40.725 40.725 0 0 0 5.555-10.583c1.352-3.855 2.039-7.773 2.039-11.653 0-4.832-.837-9.15-2.483-12.832-1.663-3.717-4.01-6.851-6.975-9.319-2.915-2.424-6.42-4.261-10.421-5.46-3.879-1.159-8.151-1.747-12.7-1.747-3.008 0-5.608.036-7.808.104-2.195.07-4.146.15-5.856.243a93.122 93.122 0 0 0-4.654.356c-1.265.133-2.496.241-3.696.33-1.205.09-2.439.168-3.697.233a75.955 75.955 0 0 1-4.06.098h-22.241v11.34l11.291 3.628v73.94c0 2.355-.138 4.208-.409 5.512-.19.918-.503 1.615-.923 2.069-.476.511-1.188.942-2.131 1.278-1.374.493-3.167 1.027-5.321 1.587l-2.509.651v11.353h45.647v-11.31l-12.867-3.559v-31.92c1.633.187 3.085.332 4.376.439 1.385.116 2.68.205 3.873.268a331.553 331.553 0 0 1 2.251 4.861 439.437 439.437 0 0 0 3.034 6.549 160.575 160.575 0 0 0 3.181 6.364 96.15 96.15 0 0 0 3.616 6.259c1.548 2.369 3.041 4.659 4.479 6.866a54.611 54.611 0 0 0 4.888 6.461 30.616 30.616 0 0 0 6.004 5.229c2.308 1.519 4.945 2.559 7.755 3.08a37.97 37.97 0 0 0 5.11.713c1.648.118 3.323.176 4.881.176h.051c1.625.047 3.438.071 5.436.071h5.51v-10.366h-.007zm-38.339-55.96a26.892 26.892 0 0 1-2.363 2.675c-1.465.757-3.154 1.361-5.023 1.799a47.19 47.19 0 0 1-6.9 1.051 53.037 53.037 0 0 1-7.368.065 58.604 58.604 0 0 1-4.446-.431V32.427c0-2.932.098-5.357.29-7.216.138-1.352.462-2.405.935-3.038.37-.506 1.016-.868 1.957-1.108 1.443-.363 3.55-.548 6.268-.548 3.125 0 6.035.447 8.645 1.332 2.526.856 4.722 2.097 6.521 3.682 1.793 1.584 3.161 3.479 4.185 5.789 1.013 2.297 1.527 4.975 1.527 7.958 0 2.358-.193 4.458-.576 6.246-.38 1.781-.889 3.378-1.518 4.749-.624 1.349-1.343 2.554-2.134 3.574zm541.606 217.263l-32.971 1.759V200.83c0-2.922.307-4.572.562-5.44.29-.981.702-1.706 1.262-2.216.66-.602 1.583-1.102 2.74-1.482 1.547-.508 3.487-1.049 5.771-1.609l2.666-.654v-11.904h-46.146v11.7l11.59 3.772v71.438c0 2.498-.11 4.469-.327 5.854-.147.934-.41 1.633-.781 2.078-.39.467-1.021.866-1.874 1.188-1.334.5-3.132 1.055-5.342 1.648l-2.592.697v11.708h69.441l12.896 1.646 3.474-40.043h-14.064l-6.305 21.899zm91.43 0l-32.972 1.759V200.83c0-2.924.307-4.572.563-5.443.291-.979.701-1.703 1.261-2.213.66-.602 1.583-1.102 2.743-1.482 1.54-.507 3.48-1.048 5.77-1.609l2.666-.654v-11.904h-46.145v11.7l11.588 3.772v71.438c0 2.503-.11 4.474-.328 5.858-.146.93-.409 1.629-.78 2.074-.39.467-1.021.866-1.874 1.188-1.333.5-3.131 1.054-5.342 1.648l-2.59.698v11.707h69.439l12.896 1.646 3.474-40.043h-14.063l-6.306 21.899zm115.518-11.101l-3.063 1.25a381.44 381.44 0 0 1-7.444 2.939 397.23 397.23 0 0 1-8.08 3.004 169.874 169.874 0 0 1-6.831 2.312c-2.311.719-2.982.78-3.002.784-7.354 0-13.671-1.096-18.78-3.26-5.037-2.133-9.188-5.097-12.341-8.812-3.188-3.757-5.562-8.267-7.056-13.401-1.539-5.287-2.319-11.136-2.319-17.382 0-2.419.202-4.974.6-7.593a53.125 53.125 0 0 1 1.804-7.809 45.378 45.378 0 0 1 3.034-7.381 33.688 33.688 0 0 1 3.935-5.984c2.429-1.592 5.259-2.864 8.42-3.783a37.396 37.396 0 0 1 10.443-1.479c2.452 0 4.895.099 7.26.293 2.292.188 4.533.524 6.657 1.002a37.238 37.238 0 0 1 5.97 1.877 21.78 21.78 0 0 1 3.924 2.113l3.481 16.141h13.521l3.983-31.209-2.687-.932c-3.462-1.199-7.229-2.277-11.21-3.203-3.397-.779-7.322-1.521-11.661-2.201-4.448-.699-9.198-1.053-14.118-1.053-5.938 0-11.483.776-16.488 2.309-4.995 1.529-9.599 3.682-13.681 6.395a49.973 49.973 0 0 0-10.793 9.674 57.22 57.22 0 0 0-7.68 12.021 63.633 63.633 0 0 0-4.635 13.548 66.157 66.157 0 0 0-1.565 14.264c0 4.541.492 9.088 1.462 13.519a54.892 54.892 0 0 0 4.499 12.774 54.1 54.1 0 0 0 7.528 11.24c3.028 3.488 6.633 6.53 10.713 9.041 4.058 2.496 8.665 4.475 13.695 5.881 5.025 1.404 10.637 2.117 16.674 2.117.665 0 1.791-.057 3.545-.177 1.922-.134 4.412-.706 7.612-1.747 3.039-.99 6.856-2.59 11.35-4.758 4.496-2.166 9.923-5.324 16.13-9.387l2.557-1.672-5.363-11.275z"/></svg>