<svg xmlns="http://www.w3.org/2000/svg" width="500" height="500" viewBox="0 0 427.5 427.5"><linearGradient id="a" gradientUnits="userSpaceOnUse" x1="213.75" y1="427.5" x2="213.75" y2="189.583"><stop offset="0" stop-color="#cbc8bc"/><stop offset="1" stop-color="#b7b4ab"/></linearGradient><path fill="url(#a)" d="M0 189.583h427.5V427.5H0z"/><linearGradient id="b" gradientUnits="userSpaceOnUse" x1="190.507" y1="299.394" x2="190.507" y2="250.906"><stop offset="0" stop-color="#beb6ab"/><stop offset="1" stop-color="#aba296"/></linearGradient><path fill="url(#b)" d="M180.446 251.074l.16 6.585-.429 6.676.123 6.678.049 6.68-.049 6.677-.235 6.684.311 6.681 10.129 1.66 10.004-1.66.156-6.675.283-6.677-.039-6.678-.205-6.679.061-6.677-.213-6.683.254-6.76-6.903.012-6.793.108zm-101.442 3.299l.161 8.251-.43 8.365.123 8.367.049 8.37-.049 8.367-.234 8.371.31 8.375 10.128 2.077 10.005-2.077.155-8.366.284-8.366-.039-8.366-.206-8.368.062-8.368-.214-8.372.254-8.471-6.902.014-6.792.137zm338.26-7.71l.045 9.03.031 8.993.104 8.987.083 8.998-.255 8.994 10.228 1.939 10.168-1.939h.141l.095-8.988-.101-8.991-.112-8.99.27-8.996-.297-8.923-6.724-.229-6.814.261zm-427.403.109l-.029 8.921.105 8.993-.19 8.987.228 8.998-.214 8.994 10.208 2.26 10.302-2.251.111-.007.041-8.99-.003-8.991-.049-8.99-.342-8.996.327-9.113-6.947.11-6.813.025zm295.669 46.585l-.111-5.865-.214-5.866.498-5.866-.412-5.867.198-6.006-6.821-.154-6.661.48-6.666.007-6.753-.275.014 5.943-.208 5.864.366 5.863-.125 5.863-.221 5.862.354 5.863.096 3.926-.021 8.12 2.938 18.175c-.168-10.785-1.526-20.342-2.674-25.595 1.802 5.201 4.647 14.653 6.368 26.609l1.02.075c.122-16.441-.988-21.74-.988-21.74s3.099 13.469 4.417 21.99l1.972.144c1.678-7.643 1.464-10.944 1.464-10.944s.507 5.542.511 10.924l1.03-.016c2.678-13.947.465-21.054.465-21.054s3.172 8.179 2.895 21.002l.778-.012.106-.041c2.576-11.854 2.317-15.487 2.317-15.487s.834 8.427.872 14.267l2.462-.942c.072-.161.135-.31.203-.464l.4-5.466-.362-5.864.375-5.864-.458-5.862.605-5.865-.029-5.862z"/><path fill="#cbc8bc" d="M12.892 257.471c-4.149 1.037-6.822 1.63-6.822 1.63s15.234 1.233 36.78-2.057c4.138.07 6.622-.264 6.622-.264s-.588-.238-1.449-.599c4.18-.761 8.525-1.66 13.039-2.796-10.238 7.52-21.901 12.833-21.901 12.833s14.453 2.509 33.165-6.367c-3.8 3.912-6.863 6.367-6.863 6.367s8.283 2.516 18.986-6.411c-1.11 6.561-2.746 8.895-2.746 8.895s6.354-3.89 10.428-9.701c12.283 9.86 21.928 7.218 21.928 7.218s-3.834-2.786-8.384-7.164c19.346 7.615 34.116 5.42 34.116 5.42s-11.84-4.724-22.593-11.476c2.198.656 4.36 1.249 6.495 1.79-1.257.303-2.012.466-2.012.466s1.71.133 4.739.203c12.899 3.086 24.32 4.31 32.809 4.717-2.71 1.397-4.458 2.198-4.458 2.198s14.454 2.51 33.165-6.367c-3.799 3.914-6.864 6.367-6.864 6.367s4.033 1.128 10.05-1.108c1.377.08 4.003.163 7.631.126-.768 2.364-1.441 3.466-1.441 3.466s2.147-1.327 4.728-3.552c3.887-.135 8.562-.472 13.853-1.102a29.433 29.433 0 0 0 4.658 1.673c-16.522 6.308-37.444 10.935-37.444 10.935s24.315 2.004 54.993-5.716c-10.235 7.519-21.895 12.832-21.895 12.832s14.445 2.51 33.165-6.365c-3.808 3.909-6.863 6.365-6.863 6.365s8.283 2.516 18.988-6.412c-1.12 6.562-2.757 8.898-2.757 8.898s6.363-3.893 10.438-9.701c12.273 9.858 21.926 7.215 21.926 7.215s-3.84-2.784-8.381-7.162c19.336 7.612 34.116 5.418 34.116 5.418s-6.214-2.49-13.711-6.41a41.14 41.14 0 0 0 2.321-2.126c26.351 5.993 46.156 4.175 46.156 4.175s-6.62-1.622-15.312-4.281c12.215 2.548 20.457 1.338 20.457 1.338s-8.385-3.363-17.444-8.439c3.468-.054 5.446-.232 5.487-.239 26.635 6.15 46.725 4.316 46.725 4.316s-25.216-6.163-41.98-14.206c17.01 3.334 29.859 2.92 33.808 2.673-4.125 2.229-6.986 3.537-6.986 3.537s14.442 2.508 33.165-6.367c-3.809 3.91-6.863 6.367-6.863 6.367s8.283 2.516 18.986-6.414c-1.117 6.563-2.755 8.897-2.755 8.897s4.701-2.88 8.61-7.38V0H0v253.611a27.834 27.834 0 0 0 1.812-2.305c4.091 3.282 7.836 5.098 11.08 6.165zm347.619-10.46c-1.77-.676-3.556-1.39-5.316-2.128 3.09.595 5.912.97 8.467 1.225-1.072.309-2.123.618-3.151.903zm23.396 7.659c-1.889-.516-7.03-1.983-13.384-4.1 8.111-.847 17.551-2.32 27.721-4.878-4.944 3.631-10.204 6.726-14.337 8.978zm1.011-15.888c-4.176 1.765-8.826 3.43-13.469 4.932a223.28 223.28 0 0 1-8.007-3.865c6.286-.271 14.336-.97 23.61-2.697a87.639 87.639 0 0 1-2.134 1.63zm-17.435-9.282c-.033.114-.067.188-.103.295-.19-.085-.418-.174-.635-.256.229-.01.505-.03.738-.039zm-17.475 1.374c-.242.206-.439.368-.439.368s1.858.518 4.883.189c5.202.503 9.437.457 12.313.269-.55 1.421-.969 2.021-.969 2.021s1.303-.809 3.082-2.193c1.403-.149 2.23-.292 2.23-.292s-.485-.173-1.278-.478a38.04 38.04 0 0 0 1.687-1.473c3.147-.233 6.739-.67 10.646-1.359.677.366 1.36.746 2.011 1.045-8.582 3.544-18.378 6.54-25.272 8.479-3.824-2.089-7.815-4.425-11.571-6.978.931.171 1.783.268 2.677.402zm-51.084 37.147c.659.181 1.318.354 1.973.525-.135.587-.26 1.315-.395 1.816-.902-.495-1.794-.991-2.705-1.515.367-.239.752-.563 1.127-.826zm-72.017-9.461c-.409.315-.708.553-1.019.781-.199-.171-.395-.33-.611-.517.562-.1 1.063-.16 1.63-.264zm-19.162-3.401c.343.277.664.451 1.002.705-.689.22-1.379.442-2.05.645.355-.441.72-.877 1.048-1.35zm-7.684.803c-.181 1.059-.381 1.834-.581 2.681-2.426.69-4.518 1.253-6.125 1.668 2.083-1.006 4.315-2.36 6.706-4.349zm-57.987-5.999c-3.302-1.275-6.529-2.637-9.488-4.054a151.35 151.35 0 0 0 15.543 2.215 282.168 282.168 0 0 1-6.055 1.839zm-3.837-11.483c2 .385 3.861.663 5.649.897-.66.201-1.312.398-1.945.585-1.236-.488-2.475-.97-3.704-1.482zm26.173 18.886a316.001 316.001 0 0 1-11.202-3.438c7.102-.894 15.025-2.261 23.463-4.387-4.153 3.049-8.513 5.71-12.261 7.825zm-13.915-14.251a174.537 174.537 0 0 0 14.988-2.107 106.596 106.596 0 0 1-2.146 1.626 134.056 134.056 0 0 1-6.573 2.568 286.618 286.618 0 0 1-6.269-2.087zm17.534-12.697c-4.622 2.214-9.99 4.282-15.255 6.088a215.43 215.43 0 0 1-6.492-3.175c5.678-.218 13.235-.982 22.022-3.184-.092.092-.191.186-.275.271zm-9.948-15.236c-.497.294-.994.614-1.487.901-.792-.712-1.594-1.427-2.463-2.26 1.361.531 2.64.915 3.95 1.359zm-9.422 5.226c-.849.442-1.642.847-2.419 1.231-1.334-.572-2.767-1.2-4.304-1.907 2.473.353 4.715.556 6.723.676zm-9.824 4.738c-.492.221-.781.346-.781.346s2.655.202 7.077-.062c5.636.011 9.021-.6 9.021-.6s-.305-.111-.813-.299a97.698 97.698 0 0 0 5.046-.926c-6.294 3.103-12.407 5.61-16.736 7.275-3.733-2.037-7.615-4.322-11.275-6.817 3.07.558 5.872.881 8.461 1.083zm-96.193 13.23a7.053 7.053 0 0 1-.368-.166c.197.037.372.06.564.098-.067.024-.129.047-.196.068zm2.889-21.205c-.723.459-1.445.88-2.17 1.314-1.111-.698-2.229-1.384-3.308-2.119 1.922.347 3.738.603 5.478.805zm-12.224 29.908c2.776.712 5.472 1.321 8.115 1.87-1.648.6-3.327 1.188-5.014 1.748a140.573 140.573 0 0 1-6.17-3.377c.99-.068 2.017-.143 3.069-.241zm-8.696 7.263c-1.562.449-3.073.869-4.518 1.261a95.66 95.66 0 0 1-4.739-4.241c3.254 1.275 6.309 2.197 9.257 2.98z"/></svg>