<svg xmlns="http://www.w3.org/2000/svg" width="500" height="500" viewBox="0 0 500 500"><path fill="#d8d4c9" d="M321.68 394.362c2.781-2.618 4.15-3.422 4.15-3.422s-2.356 1.273-5.43 3.161c-1.247-.254-2.493-.505-3.738-.755.335-2.748.706-3.868.706-3.868s-.552 1.493-1.291 3.75c-.884-.177-1.767-.354-2.648-.527.362-4.478.939-6.223.939-6.223s-.939 2.538-2.01 6.012c-1.059-.208-2.118-.418-3.176-.623 2.534-3.148 5.929-7.715 6.704-10.486-.586 2.094-3.368 5.307-8.53 8.294.038-.573.08-1.114.125-1.61 3.44-6.211 6.748-14.646 6.748-14.646s-2.207 5.273-11.696 15.86c2.924-5.263 9.356-31.677 9.356-31.677s-2.086 7.919-14.425 30.994c9.689-24.662 10.916-45.029 10.916-45.029s-1.88 18.312-17.225 45.051a431.119 431.119 0 0 0-15.814-2.309c-7.164-23.465-5.125-37.367-5.125-37.367s-3.052 15.538-.049 36.751c-.152-.018-.304-.032-.455-.049-5.756-19.691-5.971-26.079-5.971-26.079s.207 17.65 1.326 25.605c-.383-.037-.767-.072-1.151-.107-5.143-9.062-5.928-13.107-5.928-13.107s1.159 7.008 2.907 12.844l-1.146-.092c-8.957-18.576-7.866-29.175-7.866-29.175s-2.053 12.04 2.724 28.813c-.073-.004-.144-.006-.217-.012-7.485-16.16-8.157-21.234-8.157-21.234s1.685 16.205 3.53 20.998l-.223-.012c-6.918-8.435-8.127-12.041-8.127-12.041s2.154 7.181 4.745 11.916a44.481 44.481 0 0 0-.37-.01c-4.379-3.02-6.664-5.63-7.167-7.163.464 1.789 2.434 4.75 4.145 7.088-2.354-.044-4.72-.06-7.105-.038-13.592.122-27.452.775-42.297 1.883 1.401-2.912 3.517-7.691 3.412-9.809.078 1.562-1.745 4.996-6.158 9.46 1.702-5.226 2.409-13.233 2.409-13.233s-.47 3.939-5.845 14.063a.863.863 0 0 0-.055.005c1.032-4.572-.693-21.992-.693-21.992s.365 5.096-3.668 22.354a8.07 8.07 0 0 1-.268.023c1.221-17.394-3.195-28.767-3.195-28.767s3.094 9.842-1.512 29.182c-.119.011-.237.022-.356.031.453-7.229-.475-17.347-.475-17.347s.349 5.226-2.875 17.655l-.516.048c-.592-8.185-5.793-30.79-5.793-30.79s1.558 7.418 1.075 31.241l-.358.035c-2.696-24.852-10.147-42.247-10.147-42.247s5.262 13.874 5.095 38.976c-10.482-13.854-12.177-23.015-12.177-23.015s1.477 11.979 9.854 27.021l-.877.09c-10.269-12.643-12.221-17.192-12.221-17.192s4.383 11.087 7.785 17.656l-2.607.274c-5.659-4.51-7.187-6.811-7.187-6.811s2.178 3.514 4.873 7.059c-1.511.164-3.038.328-4.573.498-.942-.715-1.548-1.383-1.8-1.942.258.574.767 1.257 1.421 1.983-4.033.443-8.167.909-12.39 1.391.399-5.02 1.094-6.908 1.094-6.908s-1.315 3.236-2.521 7.072l-2.862.328c-.589-7.571-.051-10.282-.051-10.282s-1.141 4.837-1.932 10.512l-1.526.177c-5.538-4.432-7.045-6.695-7.045-6.695s2.137 3.446 4.796 6.956c-1.51.177-3.04.355-4.575.536-.894-.69-1.478-1.336-1.721-1.878.25.558.74 1.217 1.366 1.92-6.112.718-12.423 1.469-18.969 2.251.457-2.681.78-4.791.902-5.607-.13.682-.569 2.385-1.952 5.732l-4.836.579c1.236-9.984-.158-15.935-.158-15.935s.458 5.816-3.078 16.323c-4.317.517-8.731 1.048-13.249 1.588.553-7.276.843-13.62.843-13.62s-.261 3.723-3.233 13.907l-3.962.474c1.195-16.378-.759-27.291-.759-27.291s-.456 13.983-3.189 27.762c-4.708.562-9.526 1.136-14.458 1.721-.111-3.662.227-5.627.227-5.627s-.483 2.086-.856 5.701c-5.288.625-10.71 1.263-16.271 1.913-.116-1.566-.021-2.396-.021-2.396s-.171.877-.292 2.433a8234.945 8234.945 0 0 1-35.247 4.039v92.689h500v-92.689c-74.514 10.255-127.653-2.6-178.327-12.944z"/><path fill="#b5a99c" d="M329.532 317.021l43.251-8.154-5.239-.584-26.608 3.021-6.628-.033 6.723-6.236.198-13.028-1.868 12.274-10.413 8.486-29.532 8.641-1.022-30.732.01-9.328.705-9.328-.342-9.328-.213-9.331-.789-9.333 1.537-9.33-1.052-9.338-.341-8.753-8.021-1.277-8.655.396-8.65-.33-8.65-.217-8.834.688.682 9.48-.441 9.328.031 9.325-.291 9.328.046 9.329.58 9.329-.257 4.686-18.923-8.411-8.288-10.259-1.487-14.838.157 15.749 5.351 7.541-5.275.041-21.175-3.654-4.169.707 32.963 7.248 20.698 13.152.274 6.695.215 9.33-1.153 9.33 1.494 9.33-.387 9.325-1.037 9.329 1.277 9.33-.747 9.335-.54 9.331.846 9.336.002.062c1.292 3.65 3.025 7.776 5.359 12.355.346.31.677.612 1.053.927-2.324-6.061-3.966-16.006-3.966-16.006s.937 4.902 7.65 16.057c-1.624-5.082-1.896-28.447-1.896-28.447s.232 7.045 6.895 29.199c-3.777-22.771-.419-39.822-.419-39.822s-2.313 15.746 6.624 42.017l13.994-1.778a178.576 178.576 0 0 0 7.211-13.792l.025-.759-.1-9.328.427-9.326.97-9.328-1.049-9.329-.326-4.659.877-4.577 30.658-11.064z"/><path fill="#b1a898" d="M31.819 389.25l.23 9.417.253 9.424.929 6.455c.582 1.246 1.29 2.69 2.117 4.308l1.699 1.344c-3.09-11.441-1.507-19.357-1.507-19.357s-.98 8.15 6.998 22.454l1.379.574c-1.606-4.592-2.667-10.023-2.667-10.023s.797 3.501 6.24 11.4l.581.104c-1.222-5.618-1.439-21.315-1.439-21.315s.215 5.376 6.101 22.132l.169.029c-3.236-17.547-.214-30.573-.214-30.573s-1.794 10.363 4.219 27.952c11.873-10.708 13.201-51.81 13.201-51.81s3.669 20.426-2.101 47.349c9.475-26.067 10.054-34.438 10.054-34.438s-1.269 27.783-3.566 33.759c9.115-12.983 10.517-18.775 10.517-18.775s-2.51 11.758-5.752 18.868c.5-.355.938-.704 1.397-1.055 13.974-23.378 12.888-37.089 12.888-37.089s3.172 13.493-4.268 33.967c2.623-4.76 4.619-8.628 6.163-11.799l.048-3.862-1.215-9.413.127-9.414.194-9.416.548-9.414.36-9.416.381-9.416.16-9.416-.833-9.417-.247-9.417.367-9.415.555-9.413-.239-9.416-.542-9.418.521-9.42-.796-9.42.248-9.423.676-10.004-9.523-.242-8.91.347-8.911-.25-8.915.246-8.911.019-8.901 1.266-8.537-.426-1.256 9.034.476 9.411-.433 9.414-.073 9.412.453 9.416.499 9.416-.455 9.416-.258 9.414 1.379 9.416-.23 9.418-.935 9.416-.316 9.416.398 9.414 1.269 9.416-1.728 9.418-.116 9.421z"/><path fill="#d8d4c9" d="M500.002 0H0v252.852a143.605 143.605 0 0 0 19.562-5.458 66.433 66.433 0 0 0 2.713 3.898c-8.769 7.188-16.038 11.75-16.038 11.75s17.288 4.021 39.903-9.935c-5.311 8.026-9.802 13.134-9.802 13.134s11.289 4.846 25.645-13.228c4.765 10.649 12.206 17.781 12.206 17.781s-1.913-4.282-3.224-16.312c12.521 16.365 22.208 11.758 22.208 11.758s-3.573-4.504-8.027-11.672c21.896 16.273 38.791 11.672 38.791 11.672s-13.635-9.746-25.608-23.523c35.881 14.15 64.318 10.475 64.318 10.475s-24.47-8.48-43.793-20.043c1.677-.689 3.49-1.68 5.448-3.068 6.187 1.158 11.655 1.774 16.201 2.019 3.02 4.082 5.531 6.515 5.531 6.515s-.787-2.021-1.685-6.359c4.244.068 7.314-.085 8.925-.232 7.039 4.103 11.756 2.037 11.756 2.037s-3.585-4.498-8.028-11.674c21.884 16.269 38.79 11.674 38.79 11.674s-2.044-1.47-5.214-4.033c9.929-.746 23.287-2.988 38.374-8.645 3.542-.124 5.542-.374 5.542-.374s-.883-.301-2.353-.856a138.056 138.056 0 0 0 7.595-3.277c-12.575 12.377-26.423 21.035-26.423 21.035s17.275 4.021 39.901-9.936c-5.322 8.022-9.806 13.131-9.806 13.131s11.282 4.847 25.648-13.229c4.764 10.653 12.196 17.785 12.196 17.785s-1.914-4.279-3.211-16.306c12.518 16.366 22.205 11.752 22.205 11.752s-3.581-4.498-8.026-11.67c21.887 16.269 38.788 11.67 38.788 11.67s-13.64-9.743-25.614-23.525c5.281 2.08 10.361 3.729 15.251 5.124-1.006.659-1.694 1.101-1.694 1.101s2.904.609 7.745.475c25.2 6.04 43.017 3.778 43.017 3.778s-3.128-1.091-7.979-2.993c3.794-1.956 8.175-5.284 12.959-11.301a53.528 53.528 0 0 0 2.119 4.226v.021c4.573 8.254 10.076 13.536 10.076 13.536s-1.915-4.28-3.224-16.309c12.521 16.368 22.207 11.754 22.207 11.754s-3.575-4.499-8.025-11.67c21.896 16.269 38.788 11.67 38.788 11.67s-3.347-2.393-8.171-6.478c4.616.447 19.646 1.207 39.54-4.903-19.609 14.742-49.098 26.04-49.098 26.04s23.497 3.362 54.648-7.915c.048.017 2.364.344 6.417.442-10.597 9.303-20.401 15.469-20.401 15.469s9.64 2.218 23.926-2.451c-10.166 4.874-17.909 7.845-17.909 7.845s13.871 1.991 34.418-2.192V0zM25.343 248.705c-.158-.923-.304-2.258-.462-3.33.765-.313 1.534-.635 2.308-.967.438.485.889 1.075 1.318 1.517-1.067.958-2.11 1.869-3.164 2.78zm87.266-20.21c-.364-.418-.712-.852-1.193-1.43.664.195 1.249.302 1.908.488-.255.34-.482.631-.715.942zm20.048-6.371c.396-.465.772-.786 1.172-1.292.384.866.811 1.666 1.227 2.473-.786-.37-1.593-.776-2.399-1.181zm10.839 5.094c-.234-1.551-.468-2.976-.68-4.917 2.798 3.651 5.407 6.133 7.843 7.971a222.824 222.824 0 0 1-7.163-3.054zm67.303-71.33a181.495 181.495 0 0 1-5.034 3.494 157.582 157.582 0 0 1-2.831-2.257 63.001 63.001 0 0 0 7.865-1.237zm-14.262-10.831c-1.016 1.522-1.956 2.833-2.88 4.141-.578-.525-1.158-1.117-1.74-1.653 1.531-.815 3.028-1.517 4.62-2.488zm-12.022 79.819c-4.384-3.875-9.483-8.752-14.341-14.343a157.69 157.69 0 0 0 27.442 8.041 275.726 275.726 0 0 1-13.101 6.302zm-4.556-49.896c10.277 4.033 19.116 5.434 25.756 5.835a231.767 231.767 0 0 1-7.592 5.821c-6.158-3.311-12.438-7.105-17.842-11.16-.097-.154-.214-.328-.322-.496zm13.497 27.6a130.376 130.376 0 0 1-7.688-4.712c-.37-.422-1.23-1.428-2.51-2.981a135.07 135.07 0 0 0 17.529 3.864 264.877 264.877 0 0 1-7.331 3.829zm17.183 8.723a241.801 241.801 0 0 1-7.082-3.373 117.736 117.736 0 0 0 18.179-4.057c-3.461 2.597-7.236 5.092-11.097 7.43zm-2.121-19.403c2.091-.43 4.268-.94 6.607-1.641-1.438.932-2.886 1.816-4.332 2.717-.739-.347-1.503-.71-2.275-1.076zm2.618-15.572c-5.063-3.054-12.213-7.653-19.573-13.338 2.083.706 4.032 1.223 5.901 1.696-.594.344-.95.547-.95.547s3.959 1.12 10.551 1.101c5.172.484 8.276.113 8.276.113l-.914-.635a64.92 64.92 0 0 0 9.896-1.982c-4.282 4.573-8.821 8.757-13.187 12.498zm115.797 13.736a2.802 2.802 0 0 1-.229-.129c.224-.066.427-.106.657-.175-.141.109-.288.208-.428.304zm-.84-36.463c-.849-.8-1.692-1.567-2.538-2.412 2.035-.371 4.16-.84 6.408-1.471-1.265 1.347-2.571 2.601-3.87 3.883zm8.132 59.05a170.192 170.192 0 0 1-5.864-3.205 146.645 146.645 0 0 0 9.489-3.428c1.231.177 2.433.316 3.59.443a161.526 161.526 0 0 1-7.215 6.19zm19.081 8.992c-1.69-.72-3.456-1.486-5.284-2.313 3.445-1.436 7.02-3.124 10.825-5.461a149.407 149.407 0 0 1-5.541 7.774zm94.56-47.779c-.253.151-.517.316-.742.466-.039-.191-.079-.327-.119-.54.274.018.597.056.861.074zm-20.069 46.069c-4.834-4.127-10.986-9.801-16.768-16.457a157.821 157.821 0 0 0 32.423 8.94c-7.432 3.882-13.447 6.573-15.655 7.517zm-3.681-32.116c10.847 3.167 20.264 4.448 27.614 4.945a238.68 238.68 0 0 1-9.364 7.086c-5.431-2.753-10.869-5.805-15.753-9.04-.369-.428-1.229-1.43-2.497-2.991zm31.044 18.078c-1.201-.521-2.431-1.086-3.682-1.655a72.26 72.26 0 0 0 9.904-2.247 176.845 176.845 0 0 1-6.222 3.902zm1.885-17.534c-8.066-3.553-19.522-9.044-29.56-15.544.761-.547 1.561-1.237 2.351-1.917 4.571 1.271 8.772 2.071 12.452 2.496a55.695 55.695 0 0 0 1.974 2.697c-.928.561-1.494.88-1.494.88s.967.261 2.606.536c2.081 2.532 3.604 4.02 3.604 4.02s-.488-1.101-1.133-3.703c3.367.344 8.319.429 14.401-.498 3.535.603 5.712-.344 5.712-.344s-.23-.297-.514-.676c1.045-.246 2.042-.422 3.133-.737-4.392 4.683-9.058 8.962-13.532 12.79z"/></svg>