<?xml version="1.0" encoding="utf-8"?>
<!-- Generator: Adobe Illustrator 21.0.0, SVG Export Plug-In . SVG Version: 6.00 Build 0)  -->
<svg version="1.1" id="Layer_1" xmlns="http://www.w3.org/2000/svg" xmlns:xlink="http://www.w3.org/1999/xlink" x="0px" y="0px"
	 viewBox="0 0 200 200" style="enable-background:new 0 0 200 200;" xml:space="preserve">
<title>icons</title>
<style type="text/css">
	.st0{fill:#010101;}
</style>
<g id="brush">
	<path d="M128.7499,141.35h1.6v-7.5h0.2c0.9,0,0.9-3.4,0-3.4h-0.2v-12.4h0.2c0.9,0,0.9-3.4,0-3.4h-0.2v-5.3h-1.6
		c0-1.5-1-2.8-2.3-3.4c-11.9-4.6-20.4-16.1-20.4-29.6c0-4.6,2-13.8,3.2-21.2c1.3-5,4.8-26.4,1.8-37.3c-2.7-9.9-10.8-17.9-10.8-17.9
		s-8.1,7.9-10.8,17.9c-3,11,1,32.3,2.3,37.3c1.2,7.4,3.2,16.5,3.2,21.2c0,13.5-8.5,25.1-20.4,29.7c-1.3,0.5-2.3,1.8-2.3,3.4h-1.6
		v5.3h-0.2c-0.9,0-0.9,3.4,0,3.4h0.2v12.3h-0.2c-0.9,0-0.9,3.4,0,3.4h0.2v7.5h1.6l0,0l0,0c0.1,6.4-0.2,15.7-1,29.1
		c-0.8,13.5-1.6,22.8-2.5,29v0.1c3.5,0.3,8.2,0.5,13.7,0.5l20.1-0.7c11.9-0.8,22.3-2,28.7-3.3L128.7499,141.35z M104.3499,19.05
		c0,2.1-1.7,3.9-3.9,3.9c-2.1,0-3.9-1.7-3.9-3.9c0-2.1,1.7-3.9,3.9-3.9C102.65,15.25,104.3499,16.95,104.3499,19.05z
		 M74.2499,118.05h52.6c0.5,0,0.9,0.7,0.9,1.6s-0.4,1.6-0.9,1.6h-52.6c-0.5,0-0.9-0.7-0.9-1.6S73.7499,118.05,74.2499,118.05z
		 M74.2499,132.25h52.6c0.5,0,0.9,0.7,0.9,1.6s-0.4,1.6-0.9,1.6h-52.6c-0.5,0-0.9-0.7-0.9-1.6
		C73.3499,133.05,73.7499,132.25,74.2499,132.25z M74.2499,170.45c0.8-13.5,1-22.8,1-29.2h50.6l2,42.4c-0.7,1.3-1.8,6.5-4.2,6.4
		c-4.5-0.2-3.6-3.2-6.7-3.2s-1.9,4.2-6.3,5s-3.8-5-7.2-7.8c-3.4-2.9-5.2,2.9-8.2,6c-3.1,3.1-4,3.5-8.6,2.4s-5.9-2.9-10.7-2.3
		c-1.9,0.2-2.9,1.4-3.4,2.7C73.0499,187.15,73.65,179.85,74.2499,170.45z"/>
</g>
<g id="cabinet">
	<g>
		<path d="M61.5,126.95l19.4,0.5c0.5,0,0.9-0.6,0.9-1.3v-13.2c0-0.7-0.4-1.3-0.9-1.3h-2.8v3.2c0,0.7-0.4,1.3-0.9,1.3l-12.3-0.2
			c-0.5,0-0.9-0.6-0.9-1.3v-3h-2.5c-0.5,0-0.9,0.6-0.9,1.3v12.8C60.7,126.45,61.1,126.95,61.5,126.95z"/>
		<path d="M61.5,50.85l19.4-1.5c0.5,0,0.9-0.6,0.9-1.4v-13.2c0-0.7-0.4-1.3-0.9-1.2l-2.8,0.3v3.2c0,0.7-0.4,1.3-0.9,1.4l-12.3,1
			c-0.5,0-0.9-0.5-0.9-1.2v-3l-2.5,0.2c-0.5,0-0.9,0.6-0.9,1.4v12.8C60.7,50.35,61.1,50.85,61.5,50.85z"/>
		<path d="M113.1,17.85l-76.8,8.2v149.6l76.8,6.5l50.6-13V34.05L113.1,17.85z M107.8,176.65l-66.6-5.5v-67.8l66.6-0.4V176.65z
			 M107.8,94.15l-66.6,1v-64.8l66.6-6.9C107.8,23.45,107.8,94.15,107.8,94.15z"/>
	</g>
	<polygon points="156.6,165.75 113.9,176.75 113.9,23.45 156.6,37.15 	"/>
</g>
<g id="chainsaw">
	<path d="M199.3155,140.7667l-26.258-31.986l-2.534-3.287l1.255-2.603l-16.434-21.95l-2.229-1.082l-6.76,2.058l-4.217-15.859
		c0,0-6.027-10.766-14.972-2.709c-8.943,8.048-13.623,11.646-13.626,11.653l-10.202,3.917l-7.297,10.049l-4.182-2.419l1.821-3.013
		l-3.158-1.961l-1.882,3.112l-3.24-1.874l1.854-3.071l-3.155-1.962l-1.917,3.172l-3-1.738l2.071-3.412l-3.159-1.965l-2.127,3.518
		l-2.944-1.705l1.953-3.228l-3.153-1.963l-2.019,3.329l-3.477-2.008l1.821-3.011l-3.156-1.962l-1.879,3.109l-2.702-1.561
		l1.876-3.114l-3.156-1.963l-1.944,3.211l-3.237-1.873l1.914-3.168l-3.158-1.96l-1.975,3.269l-2.916-1.688l1.636-2.724l-3.155-1.963
		l-1.702,2.822l-2.973-1.718l1.69-2.803l-3.156-1.961l-1.75,2.902l-2.709-1.562l1.755-2.908l-3.161-1.962l-1.81,3.003l-2.703-1.562
		l1.811-3.006l-3.155-1.963l-1.874,3.101l-2.144-1.243l1.736-2.875l-3.155-1.963l-1.798,2.969l-2.412-1.395l1.644-2.735l-3.154-1.96
		l-1.728,2.868c-1.042-0.481-2.139-0.734-3.229-0.778l-0.62-2.948l-4.237,1.227l1.123,2.418c-0.787,0.344-1.525,0.803-2.188,1.376
		l-2.431-2.481l-2.783,3.552l3.011,1.926c-0.501,1.132-0.738,2.33-0.724,3.513l-3.062,0.007l0.478,4.229l3.475-0.515
		c0.53,1.069,1.296,2.042,2.267,2.827l-2.26,2.854l3.454,2.231l1.971-3.136l2.41,1.392l-1.82,2.892l3.155,1.96l1.883-2.991
		l2.144,1.239l-1.744,2.77l3.158,1.959l1.807-2.868l2.701,1.567l-1.806,2.868l3.158,1.962l1.867-2.967l2.708,1.564l-1.865,2.966
		l3.156,1.961l1.927-3.066l2.972,1.719l-1.915,3.043l3.156,1.964l1.977-3.149l2.914,1.687l-1.636,2.603l3.154,1.96l1.702-2.704
		l3.237,1.876l-1.675,2.66l3.158,1.96l1.736-2.759l2.707,1.564l-1.74,2.763l3.157,1.96l1.799-2.861l3.476,2.014l-1.603,2.537
		l3.157,1.961l1.662-2.634l2.942,1.707l-1.488,2.36l3.156,1.96l1.549-2.458l3.004,1.739l-1.7,2.696l3.156,1.963l1.76-2.799
		l3.237,1.876l-1.736,2.757l3.155,1.964l1.797-2.86l7.033,4.07c-0.619,1.682-1.326,3.69-1.849,5.415
		c-1.151,3.796,3.441,9.472,3.441,9.472l11.996,6.954l16.187,9.214l26.626,10.37l3.334,0.237c0,0,28.312,12.102,33.78,14.065
		c5.474,1.963,10.215-2.623,10.215-2.623s1.349-2.785,4.142-8.546C200.5595,143.8857,199.3155,140.7667,199.3155,140.7667z
		 M63.5056,84.9957l-53.122-30.643c-1.37-0.816-2.228-2.33-2.228-3.943c0-2.537,2.063-4.6,4.6-4.6c0.766,0,1.524,0.191,2.192,0.554
		l65.299,38.198L63.5056,84.9957z M132.0235,75.8737l-8.125-2.023l6.866-7.977c0,0,5.467-4.314,7.403,2.588
		c1.242,4.431,1.222,7.892,1.63,10.614L132.0235,75.8737z M177.5455,145.6287c-2.681,3.671-4.394,2.917-4.394,2.917l-14.044-7.941
		l-9.032-5.98l-3.863-6.231l3.782-7.799l4.129-2.363c0,0,0.216-0.092,0.603-0.2c3.522-1.089,6.189-0.756,10.356,3.41
		c0.019,0.021,0.046,0.044,0.064,0.065c5.519,5.651,12.46,13.59,12.46,13.59S182.8185,138.4307,177.5455,145.6287z"/>
</g>
<g id="chair">
	<path d="M176.9712,17.8099c1-4.5,0-6.9-4.3-7.1c-2.7-0.1-4.2,2.6-5,4.7c-5.8-1.7-18.5-5-30.9-5.9c-11.4-0.8-25.1,0-32.5,0.5
		c0.3-7.6-7.8-4.7-9.4,1.8c-1,4.2-8.7,39.5-14.7,67.3c-10.6-0.4-51.9-2-52.8-1.9c-1,0.2-1,1-1,3.5c0,1.8,5.2,2.2,8.3,2.3l-9,79.7
		c-1.4,0.2-2.4,0.4-2.6,0.7c-1,1.4-0.6,6.5,6.9,7.4c13.5,1.7,51.1-9.7,66.3-30l7.4,1.9l-4.7,41.2c-2.1,0.5-3.9,1.7-3.2,6.6
		c0.2,1.6,4.3,4.2,9.9,4c5.6-0.1,26.5-7.7,34.2-13.8c7.7-6.1,27.1-21.5,31.1-31.9c0.4-1.1,0-4.8,0-4.8s-3.3-1.3-4.4-1.2
		c-0.6,0.1-6.2,6.1-13.6,13.2l0.3-33.2C159.1712,97.0098,176.1712,21.6098,176.9712,17.8099z M117.2712,123.1098l23.5,6
		c0,0-13.7,3.2-24.8,3.9L117.2712,123.1098z M142.3712,26.4098c-2.7,12.5-13.9,59.4-15.3,65.5l-20.6-0.5
		c2.4-10.8,11.8-56.1,14.2-66.4L142.3712,26.4098z M110.5712,96.4099c-1.3,6.8-1.9,12-3,17.5l-6.1-1.5c0.7-3,2-9.5,3.7-17.3
		C105.9712,95.6098,109.1712,96.0098,110.5712,96.4099z M97.1712,111.4099l-13.5-2.9c4.2-19.7,14.5-67.7,18.3-86.4l14.7,2
		C114.5712,33.9098,98.4712,106.2098,97.1712,111.4099 M44.3712,83.3099h35c-2.4,11.2-4.5,20.7-5.6,25.9c-4.3,2.4-10.8,4.5-17,5
		c-4.9,0.4-11.1-1-15.7-2.3L44.3712,83.3099z M75.5712,146.9099c-6.2,4-13,7.8-19.7,10.3c-6.6,2.5-14.1,3.8-20.3,4.6l4-35.2
		l36.2,9.3L75.5712,146.9099z M83.9712,141.2098l0.1-3.3l3.3,0.9C86.2712,139.6098,85.1712,140.4099,83.9712,141.2098z
		 M45.4712,118.0098c19.5,4.7,31.7-4.7,31.7-4.7l29.6,7l-1.5,12.1C91.8712,129.8098,45.4712,118.0098,45.4712,118.0098z
		 M143.2712,165.2098c-5.7,4.9-11.7,9.4-16.7,11.7c-7.3,3.4-12.7,5-16.6,5.7l2.8-24.3l0,0l1.9-14.6l28.6-3.9V165.2098z
		 M149.1712,96.2098l-6,26.2l-17.9-4.4c0.7-3.3,2.6-11.5,4.9-21.7L149.1712,96.2098z M164.8712,27.2098l-14.8,65l-18.2-0.3
		c2.3-10.5,15.4-65.2,15.4-65.2L164.8712,27.2098z"/>
</g>
<g id="house">
	<path d="M175.8225,113.2153c-6.8963-4.7558-12.9679-8.9771-18.4838-12.8202V74.5738V62.4366l5.0563-3.5504v-9.2458h-37.7201v9.2458
		l5.0563,3.5504v2.5826v16.2669c-2.9414-1.9992-5.8687-3.9636-8.8611-5.9407c-2.9924-1.9771-6.05-3.967-9.2522-6.0172
		l-0.3704-0.2352l-0.3704-0.2352c-16.4502-10.5364-26.3058-14.4783-39.851-9.4393C57.4809,64.4574,40.2462,78.477,9.0377,103.8633
		l-4.1464,3.3737l-4.1464,3.3736l17.4028,18.7282l4.1557-3.3781l4.1556-3.378c14.2658-11.6095,25.33-20.6098,33.9203-27.1425
		c8.5903-6.5327,14.7067-10.5977,19.077-12.3367c1.8008-0.7066,2.8361-1.1135,4.9702-0.3521
		c2.1341,0.7613,5.3669,2.6909,11.5624,6.6575l0.3724,0.2372l0.3724,0.2372c6.8707,4.3972,13.0834,8.5343,19.5022,12.9115
		c6.4187,4.3772,13.0435,8.9944,20.7385,14.352c5.999,4.1856,12.6282,8.809,20.2893,14.1044
		c7.6611,5.2954,16.3542,11.2628,26.481,18.1365l15.5104-20.1454C190.44,123.2614,182.7189,117.9711,175.8225,113.2153z"/>
	<polygon points="97.452,122.273 100.9653,120.8529 100.9653,111.4384 66.3309,111.4384 66.3309,120.8529 69.8455,122.273
		69.8455,130.8197 69.8455,139.5249 66.3309,140.9451 66.3309,150.3596 100.9653,150.3596 100.9653,140.9451 97.452,139.5249
		97.452,130.8197 	"/>
</g>
<g id="lock">
	<g>
		<path d="M197.6306,91.618c-1.856-9.102-10.728-14.971-19.829-13.118l-4.889,0.994c-5.454-15.735-16.982-26.638-30.101-26.638
			c-18.784,0-33.915,21.225-33.915,47.15c0,25.938,15.131,47.138,33.915,47.138c14.941,0,27.804-14.123,32.021-33.416
			c0.725-3.783,1.115-7.771,1.115-11.882c0-2.473-0.148-4.914-0.391-7.292c3.262,5.989,4.379,10.633,4.043,17.898l4.912-1.006
			C193.6136,109.595,199.4976,100.705,197.6306,91.618z M131.1586,113.906c-4.35,0-7.855-4.93-7.855-10.93
			c0-5.989,3.504-10.903,7.855-10.903c4.254,0,7.761,4.914,7.761,10.903C138.9166,108.976,135.4126,113.906,131.1586,113.906z"/>
	</g>
	<path class="st0" d="M83.0776,103.759l-3.705-9.074l-37.324-15.488c-0.859-6.946-5.273-13.228-12.153-16.066
		c-10.236-4.27-22.009,0.667-26.315,10.98c-4.272,10.359,0.548,22.176,10.784,26.448c6.859,2.833,14.407,1.529,19.929-2.752
		l7.509,3.115l8.414-3.479l2.663,6.438l6.181-2.555l2.626,6.348l6.437-2.661l2.663,6.437l10.985-4.537
		C83.3766,106.209,83.7466,105.4,83.0776,103.759z M11.9756,83.357c-2.727-1.161-4.002-4.302-2.848-7.015
		c1.12-2.771,4.245-4.084,6.978-2.935c2.697,1.104,3.975,4.245,2.851,7.015C17.8036,83.135,14.6796,84.45,11.9756,83.357z"/>
</g>
<g id="stairs">
	<path d="M101.7105,149.828l-64.705-23.225l-33.384,6.977l0.314,9.286l64.694,23.228l33.394-6.979L101.7105,149.828
		 M68.6035,156.316l-59.282-21.283l27.398-5.73"/>
	<path d="M133.1605,118.929l-64.703-23.226l-33.384,6.979l0.314,9.285l64.694,23.228l33.394-6.979L133.1605,118.929
		 M100.0555,125.416l-59.282-21.282l27.397-5.731"/>
	<path d="M164.6125,88.03l-64.704-23.226l-33.385,6.978l0.315,9.286l64.695,23.229l33.392-6.98L164.6125,88.03 M131.5055,94.517
		l-59.281-21.282l27.397-5.731"/>
	<path d="M196.0635,57.13l-64.703-23.224l-33.384,6.977l0.313,9.287l64.695,23.228l33.394-6.979L196.0635,57.13 M162.9555,63.618
		l-59.28-21.283l27.396-5.731"/>
</g>
<g id="rain">
	<g>
		<path d="M54.6107,99.8267c-6.764,0-12.266-5.506-12.266-12.269c0-5.644,3.819-10.537,9.29-11.9l0.935-0.233l0.357-0.893
			c2.513-6.282,8.248-10.683,14.966-11.484l1.579-0.188l0.078-1.588c0.735-15.058,13.13-26.852,28.216-26.852
			c10.852,0,20.876,6.351,25.54,16.179l0.854,1.799l1.749-0.956c3.753-2.052,8.013-3.136,12.319-3.136
			c14.204,0,25.761,11.556,25.761,25.761c0,14.204-11.557,25.76-25.761,25.76C138.2277,99.8267,54.6107,99.8267,54.6107,99.8267z"/>
	</g>
	<path d="M51.4577,140.9127L51.4577,140.9127L51.4577,140.9127L51.4577,140.9127L51.4577,140.9127L51.4577,140.9127
		L51.4577,140.9127L51.4577,140.9127L51.4577,140.9127L51.4577,140.9127L51.4577,140.9127L51.4577,140.9127L51.4577,140.9127
		L51.4577,140.9127L51.4577,140.9127L51.4577,140.9127L51.4577,140.9127L51.4577,140.9127L51.4577,140.9127L51.4577,140.9127z
		 M51.4577,140.9127L51.4577,140.9127L51.4577,140.9127L51.4577,140.9127L51.4577,140.9127L51.4577,140.9127L51.4577,140.9127
		L51.4577,140.9127L51.4577,140.9127L51.4577,140.9127L51.4577,140.9127z M51.4577,140.9127L51.4577,140.9127L51.4577,140.9127
		L51.4577,140.9127L51.4577,140.9127L51.4577,140.9127L51.4577,140.9127z M51.4577,140.9127L51.4577,140.9127L51.4577,140.9127
		L51.4577,140.9127L51.4577,140.9127z M51.4577,140.9127L51.4577,140.9127L51.4577,140.9127L51.4577,140.9127L51.4577,140.9127z"/>
	<path d="M60.6457,131.3137c-2.356,9.004-1.008,13.471-1.665,23.146c-0.633,9.374-10.19,13.649-17.233,9.584
		c-7.047-4.066-8.114-14.478-0.312-19.717C49.4827,138.9287,54.0167,137.8607,60.6457,131.3137z"/>
	<path d="M108.9577,131.3137c-2.356,9.004-1.007,13.471-1.664,23.146c-0.634,9.374-10.19,13.649-17.232,9.584
		c-7.047-4.066-7.591-14.478,0.212-19.717C98.3227,138.9287,102.3287,137.8607,108.9577,131.3137z"/>
	<path d="M158.3217,131.3137c-2.354,9.004-1.007,13.471-1.664,23.146c-0.634,9.374-10.19,13.649-17.232,9.584
		c-7.049-4.066-8.114-14.478-0.312-19.717C147.1557,138.9287,151.6897,137.8607,158.3217,131.3137z"/>
</g>
<g id="saw">
	<path d="M54.5956,74.85c-0.7-0.7-39.7-1.9-39.7-1.9s-4.3,0.3,1.4,9c-7.8,10.9-6.6,28.9-8,29.9c-6.1,5.6-2.8,6.7-2.8,6.7
		s9,0.1,17.7,0.1c7.9,0,15.5-0.1,15.9-0.3c1-0.4,17-18,17.2-19.2C56.5956,97.95,55.2956,75.55,54.5956,74.85z M38.0956,114.75
		c-1.1,0.1-2-0.7-2.1-1.8c-0.1-1.1,0.7-2,1.8-2.1c1.1-0.1,2,0.7,2.1,1.8C39.8956,113.75,39.0956,114.65,38.0956,114.75z
		 M41.8956,95.85c-0.8,2.1-8.1,14.2-12.2,17.8c-1.4,1.2-2.8,1.6-4.2,1.6c-2.7,0-4.8-1.6-4.8-1.7c0.1-0.1-2.2-0.4,2.1-10.4
		c4.3-10,6.7-23.3,6.5-23.8c0,0,4-0.1,7.4-0.1c2.4,0,4.5,0.1,4.7,0.3C41.7956,79.95,42.5956,93.75,41.8956,95.85z M49.2956,100.25
		c-1.1,0.1-2-0.7-2.1-1.8c-0.1-1.1,0.7-2,1.8-2.1c1.1-0.1,2,0.7,2.1,1.8C51.0956,99.25,50.2956,100.15,49.2956,100.25z
		 M49.9956,83.15c-1.1,0.1-2-0.7-2.1-1.8s0.7-2,1.8-2.1c1.1-0.1,2,0.7,2.1,1.8C51.8956,82.05,50.9956,83.05,49.9956,83.15z"/>
	<path d="M189.9956,83.35l0.3,10.1c-41.2,4.8-78.4,11.7-115.6,21.1l32.9-32.8L189.9956,83.35z M59.4956,75.25
		c0.2,1.8,0.4,7.9,0.7,12.5c0,0.1,0.8,12.8,0.5,14l-19.2,21.4l4,3.9c56-15.7,110.6-26.2,149.9-30.4c-3.3-4.8-3.3-11.9-0.7-17.1
		l-135.3-3.3v-1H59.4956z"/>
</g>
</svg>
