<?xml version="1.0" encoding="utf-8"?>
<!-- Generator: Adobe Illustrator 16.0.0, SVG Export Plug-In . SVG Version: 6.00 Build 0)  -->
<!DOCTYPE svg PUBLIC "-//W3C//DTD SVG 1.1//EN" "http://www.w3.org/Graphics/SVG/1.1/DTD/svg11.dtd">
<svg version="1.1" id="Layer_1" xmlns="http://www.w3.org/2000/svg" xmlns:xlink="http://www.w3.org/1999/xlink" x="0px" y="0px"
	 width="1503.393px" height="321.167px" viewBox="0 0 1503.393 321.167" enable-background="new 0 0 1503.393 321.167"
	 xml:space="preserve">
<g id="Guides" display="none">
	<rect x="40.098" y="48" display="inline" width="1440" height="576"/>
</g>
<g>
	<g>
		<polygon fill="#f8f7f1" points="63.625,90.94 67.038,92.325 67.038,100.616 67.038,109.062 63.625,110.442 63.625,119.568 
			97.23,119.568 97.23,110.442 93.82,109.062 93.82,100.616 93.82,92.325 97.23,90.94 97.23,81.811 63.625,81.811 		"/>
		<path fill="#f8f7f1" d="M151.919,71.092V46.041V34.264l4.903-3.445v-8.971h-36.591v8.971l4.908,3.445v2.507V52.55
			c-2.856-1.941-5.697-3.845-8.599-5.763c-2.902-1.917-5.867-3.846-8.977-5.837l-0.362-0.226l-0.36-0.233
			c-15.959-10.217-25.521-14.039-38.66-9.155c-13.137,4.888-29.857,18.487-60.136,43.12l-4.024,3.277L0,80.998L16.884,99.17
			l4.028-3.279l4.031-3.272c13.84-11.265,24.573-19.997,32.911-26.333c8.332-6.337,14.266-10.285,18.508-11.966
			c1.748-0.69,2.753-1.086,4.819-0.347c2.071,0.744,5.208,2.614,11.218,6.467l0.36,0.229l0.359,0.23
			c6.668,4.27,12.7,8.282,18.925,12.525c6.23,4.244,12.647,8.729,20.117,13.918c5.822,4.066,12.252,8.547,19.687,13.688
			c7.426,5.132,15.863,10.926,25.689,17.596l15.048-19.551c-8.55-5.802-16.042-10.938-22.729-15.547
			C163.164,78.917,157.268,74.818,151.919,71.092z"/>
		<path fill="#f8f7f1" d="M605.132,54.667l11.283,3.339l-12.031,37.778c-0.302-0.588-0.71-1.506-1.229-2.935l-13.287-33.156
			c0.137-0.436,0.274-0.734,0.388-0.926c0.171-0.298,0.444-0.572,0.83-0.829c0.602-0.399,1.409-0.786,2.404-1.146
			c1.22-0.444,2.741-0.955,4.556-1.531l2.162-0.688l0.846-11.403h-45.211l0.423,11.481l9.646,2.916
			c1.547,3.483,3.304,7.3,5.229,11.369c2.188,4.621,4.475,9.538,6.863,14.748c2.391,5.212,4.847,10.676,7.375,16.386
			c2.502,5.662,4.983,11.559,7.381,17.521l1.013,2.522c0,0,0.53,1.654-0.027,2.732c-0.956,1.851-2.161,3.876-3.579,6.013
			c-1.349,2.033-2.941,3.962-4.728,5.732c-1.741,1.721-3.748,3.217-5.956,4.457c-2.079,1.163-4.422,1.889-6.968,2.161l-3.784,0.402
			l3.136,13.192h25.116l4.155-9.697c0.96-2.242,1.891-4.43,2.784-6.562c0.893-2.133,1.795-4.322,2.713-6.565
			c0.917-2.245,1.947-4.807,3.094-7.693c1.145-2.883,2.447-6.225,3.912-10.023c1.464-3.795,3.166-8.287,5.114-13.481l6.743-18.036
			c2.537-6.797,5.453-14.669,8.756-23.625c0.423-0.757,1.161-1.35,2.233-1.804c1.721-0.721,3.876-1.388,6.413-1.981l2.398-0.562
			l0.857-11.597h-41.444L605.132,54.667z"/>
		<path fill="#f8f7f1" d="M825.509,67.947c0-2.205,0.023-4.293,0.067-6.255c0.045-1.922,0.135-3.783,0.267-5.577
			c0.134-1.804,0.298-3.57,0.5-5.307c0.199-1.718,0.454-3.5,0.763-5.292l0.414-2.424l-6.228-3.199l-1.521,0.758
			c-1.51,0.754-3.026,1.401-4.51,1.924c-1.486,0.522-3.146,0.995-4.935,1.398c-1.873,0.425-3.975,0.847-6.295,1.271
			c-2.378,0.436-5.126,0.949-8.241,1.543l-2.721,0.521v10.311l2.535,0.636c1.351,0.337,2.664,0.742,3.901,1.193
			c0.981,0.361,1.816,0.858,2.555,1.513c0.671,0.597,1.232,1.434,1.673,2.487c0.463,1.111,0.696,2.665,0.696,4.63v28.267
			c0,2.491-0.146,4.444-0.438,5.8c-0.211,0.991-0.56,1.752-1.025,2.255c-0.517,0.558-1.292,1.022-2.304,1.385
			c-1.437,0.511-3.334,1.082-5.646,1.695l-2.494,0.659v11.545h45.442v-11.45l-12.458-3.768L825.509,67.947L825.509,67.947
			L825.509,67.947z"/>
		<path fill="#f8f7f1" d="M804.833,29.181c1.133,1.165,2.515,2.096,4.11,2.771c1.595,0.677,3.369,1.019,5.275,1.019
			c1.832,0,3.635-0.306,5.349-0.908c1.75-0.609,3.327-1.506,4.689-2.656c1.384-1.172,2.501-2.578,3.321-4.188
			c0.853-1.682,1.286-3.562,1.286-5.593c0-1.836-0.351-3.554-1.048-5.102c-0.687-1.527-1.628-2.847-2.812-3.942
			c-1.164-1.064-2.547-1.9-4.104-2.479c-1.531-0.571-3.156-0.862-4.831-0.862c-2.351,0-4.473,0.384-6.312,1.146
			c-1.812,0.749-3.368,1.733-4.627,2.932c-1.309,1.252-2.292,2.701-2.927,4.317c-0.607,1.553-0.915,3.126-0.915,4.68
			c0,1.708,0.314,3.341,0.933,4.858C802.836,26.683,803.715,28.035,804.833,29.181z"/>
		<path fill="#f8f7f1" d="M920.843,54.518V43.175h-35.381v11.44l7.752,2.382l-14.062,34.215l-13.696-34.088
			c0.089-0.036,0.182-0.072,0.278-0.107c1.312-0.498,3.058-1.086,5.187-1.752l2.177-0.68l0.844-11.414h-41.318V54.34l10.198,4.408
			l0.181,0.139l23.141,49.778l4.668,12.501l11.389,1.952l2.964-7.741l22.968-52.221c0.758-1.603,1.414-2.835,1.944-3.661
			c0.408-0.63,0.862-1.145,1.353-1.527c0.506-0.392,1.218-0.749,2.11-1.066c1.208-0.423,2.865-0.974,4.97-1.645L920.843,54.518z"/>
		<path fill="#f8f7f1" d="M976.116,98.008c-2.379,0.896-4.713,1.705-6.944,2.401c-2.238,0.705-4.329,1.312-6.234,1.81
			c-2.019,0.547-3.956,1.057-5.819,1.524c-1.121-0.018-2.366-0.111-3.702-0.276c-1.37-0.173-2.771-0.529-4.181-1.073
			c-1.366-0.522-2.744-1.296-4.089-2.293c-1.25-0.928-2.375-2.201-3.356-3.795c-1.024-1.657-1.854-3.746-2.478-6.208
			c-0.431-1.709-0.694-3.69-0.791-5.926h44.358l0.292-3.031c0.095-1.007,0.169-1.966,0.218-2.868
			c0.046-0.802,0.08-1.645,0.105-2.532c0.021-0.786,0.053-1.475,0.104-2.241c0.094-4.565-0.33-8.787-1.261-12.548
			c-0.979-3.933-2.616-7.376-4.868-10.231c-2.298-2.915-5.273-5.182-8.852-6.746c-3.491-1.529-7.71-2.302-12.532-2.302
			c-5.856,0-11.214,1.121-15.93,3.328c-4.691,2.194-8.751,5.21-12.071,8.959c-3.297,3.715-5.881,8.077-7.688,12.974
			c-1.791,4.853-2.747,10.032-2.841,15.38c-0.143,5.935,0.501,11.362,1.917,16.13c1.463,4.915,3.792,9.155,6.932,12.599
			c3.152,3.458,7.149,6.134,11.882,7.952c4.63,1.784,10.138,2.69,16.362,2.69h0.432l0.42-0.11c2.021-0.533,4.05-1.175,6.039-1.917
			c1.977-0.74,4.033-1.599,6.114-2.559c2.046-0.941,4.233-2.03,6.498-3.232c2.214-1.175,4.589-2.477,7.125-3.909l2.544-1.434
			l-4.611-11.673L976.116,98.008z M952.091,55.857l0.367,0.005c1.854,0.054,3.396,0.481,4.717,1.307
			c1.299,0.811,2.304,1.975,3.078,3.559c0.819,1.671,1.234,3.826,1.234,6.399c0,0.697-0.113,1.35-0.341,1.993
			c-0.459,0.054-1.041,0.116-1.752,0.181c-1.209,0.114-2.854,0.233-4.933,0.37c-2.101,0.135-4.739,0.27-7.903,0.407
			c-2.269,0.098-4.89,0.171-7.823,0.223c0.2-1.646,0.516-3.119,0.945-4.395c0.723-2.147,1.532-3.889,2.403-5.178
			c1.044-1.542,1.859-2.316,2.362-2.694c1.025-0.777,1.416-0.939,1.493-0.966C948.124,56.264,950.197,55.857,952.091,55.857z"/>
		<path fill="#f8f7f1" d="M1022.954,64.302c1.2-0.642,2.537-1.257,3.966-1.827c1.393-0.552,2.891-1.023,4.442-1.396
			c1.298-0.314,2.59-0.506,3.778-0.573c0.019,0.022,0.038,0.047,0.056,0.07c0.064,0.151,0.13,0.293,0.189,0.42l1.775,12.149h13.677
			l2.22-30.412l-2.886-0.589c-2.193-0.448-4.493-0.7-6.813-0.751l-0.832-0.009c-1.766,0-3.675,0.138-5.665,0.417
			c-2.501,0.345-4.896,1.087-7.133,2.204l-0.262,0.146c-1.627,1.006-3.264,2.121-4.867,3.314c-0.861,0.643-1.678,1.267-2.447,1.867
			l0.468-6.189l-6.207-3.261l-1.537,0.769c-2.546,1.271-4.653,2.314-6.332,3.13c-1.606,0.782-3.185,1.465-4.687,2.036
			c-1.51,0.574-3.206,1.098-5.044,1.564c-1.917,0.486-4.421,1.021-7.437,1.597l-2.724,0.518v10.297l2.512,0.648
			c1.345,0.349,2.679,0.74,4.006,1.174c1.023,0.332,1.939,0.811,2.729,1.419c0.667,0.514,1.213,1.249,1.67,2.242
			c0.473,1.02,0.72,2.558,0.72,4.446v26.626c0,2.509-0.102,4.488-0.308,5.875c-0.134,0.915-0.395,1.6-0.775,2.044
			c-0.427,0.503-1.127,0.941-2.08,1.308c-1.372,0.529-3.314,1.185-5.773,1.946l-2.359,0.73v11.432h48.522v-11.621l-16.153-3.768
			V65.167C1021.857,64.896,1022.388,64.603,1022.954,64.302z"/>
		<path fill="#f8f7f1" d="M281.336,96.748c-0.222,0.698-0.45,1.339-0.689,1.915c-0.139,0.331-0.266,0.626-0.388,0.879
			c-0.63,0.612-1.326,1.249-2.089,1.903c-0.79,0.68-1.728,1.313-2.783,1.878c-1.068,0.573-2.297,1.06-3.652,1.444
			c-2.952,0.842-6.981,0.649-10.889,0.047c-2.268-0.352-4.469-0.791-6.544-1.311c-2.099-0.523-4.005-1.083-5.674-1.662
			c-1.553-0.536-2.777-1.021-3.639-1.44c-0.116-0.073-0.238-0.163-0.373-0.264c0,0-0.092-0.072-0.272-0.294
			c-0.027-0.034-0.167-0.217-0.387-0.708c-0.133-0.304-0.348-0.863-0.614-1.818l-3.342-18.296l-13.604-0.237l-3.598,32.625
			l2.033,1.062c2.269,1.182,4.703,2.316,7.241,3.375c2.56,1.068,5.213,2.016,7.888,2.819c2.686,0.808,5.416,1.46,8.117,1.937
			c2.761,0.489,5.434,0.736,7.94,0.736c5.986,0,11.768-0.552,17.188-1.64c5.585-1.119,10.591-3.013,14.875-5.625
			c4.431-2.699,7.998-6.33,10.599-10.791c2.62-4.493,3.946-10.023,3.946-16.438c0-5.133-0.957-9.567-2.844-13.186
			c-1.853-3.549-4.337-6.579-7.388-9.008c-2.92-2.327-6.271-4.294-9.959-5.842c-3.479-1.46-7.095-2.817-10.753-4.028
			c-3.567-1.18-7.051-2.363-10.458-3.543c-3.165-1.098-6.014-2.447-8.473-4.011c-2.279-1.445-4.128-3.233-5.502-5.315
			c-1.265-1.915-1.907-4.437-1.907-7.493c0-1.549,0.159-2.815,0.477-3.769c0.334-1.004,0.729-1.846,1.174-2.501
			c0.462-0.687,0.949-1.263,1.451-1.714c0.637-0.574,1.217-1.164,1.729-1.761c1.144-0.563,2.525-0.972,4.123-1.213
			c2.08-0.317,4.431-0.476,6.993-0.476c3.026,0,5.787,0.272,8.204,0.81c2.426,0.54,4.52,1.159,6.226,1.838
			c0.446,0.228,0.847,0.462,1.211,0.708c0.209,0.142,0.414,0.34,0.613,0.594c0.223,0.286,0.426,0.647,0.607,1.079
			c0.215,0.511,0.418,1.2,0.619,2.117l3.354,14.001h13.081l2.441-33.336l-3.103-0.437c-2.561-0.359-4.843-0.742-6.792-1.132
			c-2.079-0.416-4.084-0.792-6.022-1.142c-2.002-0.357-4.092-0.646-6.212-0.857c-4.803-0.483-11.433-0.472-17.57,0.392
			c-3.413,0.48-6.744,1.239-9.897,2.248c-3.208,1.027-6.24,2.374-9.017,3.994c-2.854,1.665-5.387,3.698-7.528,6.042
			c-2.176,2.382-3.907,5.135-5.147,8.184c-1.253,3.083-1.89,6.572-1.89,10.368c0,5.336,0.947,9.946,2.813,13.707
			c1.836,3.697,4.312,6.899,7.356,9.507c2.938,2.52,6.311,4.657,10.029,6.358c3.533,1.614,7.18,3.09,10.845,4.388
			c3.594,1.273,7.112,2.538,10.546,3.787c3.218,1.174,6.117,2.559,8.619,4.113c2.309,1.437,4.174,3.178,5.543,5.175
			c1.264,1.841,1.877,4.141,1.877,7.035c0,0.642-0.072,1.32-0.209,2.009C281.738,95.321,281.55,96.063,281.336,96.748z"/>
		<path fill="#f8f7f1" d="M316.987,115.858c2.259,1.782,4.833,3.116,7.641,3.96c5.344,1.618,11.002,1.473,15.101,0.583
			c2.064-0.451,4.04-1.164,5.864-2.118c1.743-0.907,3.551-2.09,5.374-3.511c0.409-0.317,0.83-0.652,1.269-1.001
			c0.459,1.35,1.09,2.515,1.9,3.519c2.032,2.503,5.234,3.771,9.518,3.771c1.493,0,3.061-0.157,4.648-0.474
			c1.44-0.282,2.905-0.62,4.356-1.007c1.45-0.386,2.842-0.816,4.132-1.28c1.254-0.447,2.355-0.862,3.303-1.242l2.104-0.845v-7.949
			c0-0.863,0-3.488-4.993-3.488c-0.936,0-1.986-0.08-3.131-0.241c-0.835-0.119-1.615-0.337-2.348-0.677V64.733
			c0-4.078-0.47-7.591-1.396-10.448c-1.015-3.125-2.698-5.692-5.006-7.628c-2.232-1.868-5.069-3.197-8.436-3.952
			c-3.083-0.691-6.84-1.039-11.169-1.039c-0.933,0-2.111,0.159-3.603,0.491c-1.328,0.298-2.827,0.697-4.458,1.195
			c-1.604,0.49-3.336,1.047-5.192,1.672c-1.857,0.625-3.725,1.288-5.604,1.986c-1.884,0.697-3.734,1.42-5.55,2.164
			c-1.793,0.738-3.447,1.428-4.965,2.071l-1.824,0.775l-2.015,19.762h17.132l0.73-2.362c0.745-2.411,1.488-4.549,2.204-6.358
			c0.626-1.573,1.354-2.884,2.168-3.894c0.681-0.848,1.472-1.452,2.419-1.854c1.039-0.437,2.441-0.66,4.125-0.66
			c3.361,0.049,5.195,0.435,6.143,0.75c1.521,0.51,2.155,1.026,2.396,1.285c0.356,0.386,0.549,0.778,0.615,1.26
			c0.139,1.015,0.209,2.094,0.209,3.208v7.83c-5.125,1.246-9.64,2.43-13.457,3.529c-4.519,1.304-8.412,2.609-11.572,3.873
			c-3.276,1.311-5.991,2.672-8.069,4.049c-2.214,1.468-3.971,3.077-5.224,4.775c-1.307,1.769-2.192,3.711-2.634,5.769
			c-0.392,1.821-0.589,3.833-0.589,5.974c0,3.769,0.748,7.12,2.227,9.962C312.78,111.703,314.683,114.042,316.987,115.858z
			 M340.316,104.229c-1.501,0-2.925-0.163-4.234-0.487c-1.13-0.277-2.097-0.708-2.877-1.288c-0.724-0.534-1.283-1.202-1.709-2.042
			c-0.417-0.817-0.628-1.883-0.628-3.167c0-1.503,0.28-2.752,0.829-3.717c0.609-1.071,1.41-1.958,2.446-2.712
			c1.162-0.841,2.53-1.564,4.065-2.137c1.715-0.646,3.521-1.221,5.37-1.716c1.938-0.516,3.879-1.014,5.817-1.488
			c0.427-0.106,0.847-0.213,1.261-0.322v14.296c-1.436,1.229-3.006,2.315-4.693,3.238
			C344.07,103.723,342.223,104.229,340.316,104.229z"/>
		<path fill="#f8f7f1" d="M556.165,107.514c-0.691-0.204-1.42-0.46-2.182-0.759c-0.786-0.31-1.517-0.627-2.205-0.965
			c-0.634-0.308-1.208-0.62-1.723-0.944c-0.163-0.103-0.284-0.188-0.375-0.25c-0.016-0.047-0.029-0.101-0.045-0.161
			c-0.098-0.391-0.104-0.552-0.104-0.552V28.102c0.044-2.453,0.09-4.553,0.134-6.3c0.047-1.737,0.103-3.405,0.172-5.014
			c0.064-1.583,0.165-3.243,0.299-4.979c0.14-1.767,0.318-3.868,0.542-6.313l0.203-2.183L544.891,0l-1.535,0.697
			c-1.97,0.894-3.793,1.694-5.473,2.385c-1.627,0.673-3.347,1.313-5.122,1.903c-1.763,0.589-3.734,1.164-5.866,1.715
			c-2.188,0.565-4.767,1.182-7.744,1.859l-2.607,0.594v10.42l2.697,0.537c1.329,0.266,2.467,0.51,3.416,0.729
			c0.682,0.159,1.349,0.418,2.106,0.83c1.351,0.674,1.995,1.284,2.293,1.675c0.488,0.636,0.825,1.319,1.028,2.077
			c0.244,0.909,0.366,1.918,0.366,3.004v14.33c-0.919-0.152-1.878-0.306-2.872-0.462c-5.287-0.822-10.88-0.954-16.643,0.391
			c-2.868,0.667-5.688,1.656-8.386,2.943c-2.701,1.288-5.309,2.917-7.746,4.838c-2.488,1.958-4.715,4.275-6.572,6.821
			c-2.653,3.458-4.705,7.534-6.096,12.126c-1.366,4.516-2.062,9.623-2.062,15.172c0,2.646,0.247,5.385,0.736,8.149
			c0.493,2.79,1.267,5.538,2.303,8.165c1.049,2.676,2.414,5.244,4.051,7.62c1.697,2.47,3.741,4.643,6.073,6.463
			c2.354,1.833,5.089,3.311,8.135,4.383c3.062,1.082,6.487,1.629,10.185,1.629c2.933,0,6.472-0.975,10.816-2.979
			c2.659-1.228,5.578-2.958,8.716-5.165c0.019,0.213,0.039,0.417,0.057,0.605c0.094,1.216,0.22,2.334,0.362,3.357l0.409,2.881
			h28.642v-11.465L556.165,107.514z M520.243,101.047c-1.808,0.667-3.573,1.218-5.242,1.64c-3.583,0.9-5.479,0.814-7.648-0.763
			c-1.433-1.04-2.727-2.561-3.851-4.529c-1.207-2.117-2.197-4.718-2.941-7.729c-0.75-3.053-1.133-6.468-1.133-10.149
			c0-4.452,0.446-8.218,1.333-11.196c0.852-2.871,1.974-5.176,3.327-6.854c1.303-1.611,2.721-2.723,4.337-3.397
			c1.62-0.678,3.251-1.007,4.986-1.007l0.234,0.002c3.32,0.083,6.479,0.516,9.387,1.289c2.062,0.552,3.879,1.177,5.417,1.871v37.124
			c-0.88,0.475-1.842,0.965-2.875,1.454C523.841,99.626,522.047,100.381,520.243,101.047z"/>
		<path fill="#f8f7f1" d="M316.638,199.817c0-2.444,0.172-4.351,0.51-5.667c0.255-0.988,0.643-1.721,1.19-2.244
			c0.648-0.619,1.549-1.128,2.671-1.516c1.525-0.518,3.476-1.094,5.796-1.709l2.495-0.659v-11.547h-45.99v11.403l11.84,3.836v31.375
			h-42.852v-23.272c0-2.444,0.172-4.351,0.509-5.667c0.255-0.988,0.653-1.75,1.186-2.271c0.615-0.603,1.5-1.103,2.628-1.481
			c1.553-0.522,3.502-1.101,5.791-1.722l2.48-0.666v-11.534H218.97v11.403l11.841,3.836v72.851c0,2.487-0.146,4.438-0.439,5.798
			c-0.217,1.008-0.559,1.778-1.021,2.287c-0.485,0.536-1.247,0.99-2.259,1.35c-1.461,0.514-3.36,1.088-5.641,1.705l-2.478,0.668
			v11.53h46.742v-11.501l-13.415-3.768v-34.627h42.851v26.56c0,2.489-0.146,4.44-0.439,5.802c-0.215,1.006-0.558,1.774-1.021,2.283
			c-0.485,0.536-1.248,0.991-2.262,1.35c-1.461,0.515-3.359,1.088-5.642,1.705l-2.478,0.666v11.533h46.811V276.4l-13.483-3.768
			L316.638,199.817L316.638,199.817z"/>
		<path fill="#f8f7f1" d="M397.165,218.91c-3.161-3.084-7.064-5.4-11.605-6.882c-4.381-1.424-9.383-2.147-14.863-2.147
			c-5.167,0-10.191,1.011-14.921,3c-4.729,1.994-8.95,4.854-12.552,8.506c-3.601,3.65-6.5,8.113-8.617,13.262
			c-2.121,5.154-3.196,10.982-3.196,17.327c0,6.21,0.973,11.717,2.887,16.366c1.937,4.701,4.646,8.672,8.054,11.803
			c3.396,3.113,7.426,5.471,11.977,7.003c4.455,1.502,9.294,2.265,14.383,2.265c5.24,0,10.234-1.041,14.85-3.096
			c4.603-2.051,8.688-5.018,12.137-8.814c3.42-3.77,6.152-8.357,8.121-13.646c1.956-5.26,2.946-11.188,2.946-17.629
			c0-5.967-0.8-11.26-2.381-15.73C402.756,225.893,400.327,221.996,397.165,218.91z M384.046,250.74
			c0,3.072-0.208,6.191-0.622,9.271c-0.393,2.933-1.098,5.613-2.093,7.968c-0.93,2.198-2.146,3.942-3.718,5.331
			c-1.375,1.214-3.123,1.872-5.354,2.005c-3.608,0.229-6.591-0.254-8.801-1.448c-2.262-1.227-4.013-2.914-5.354-5.168
			c-1.429-2.395-2.449-5.306-3.032-8.652c-0.627-3.555-0.944-7.399-0.944-11.43c0-3.309,0.208-6.56,0.621-9.656
			c0.39-2.926,1.096-5.551,2.101-7.801c0.925-2.072,2.161-3.761,3.671-5.021c1.365-1.14,3.148-1.759,5.428-1.896
			c0.504-0.029,0.998-0.043,1.48-0.043c2.935,0,5.393,0.514,7.301,1.533c2.263,1.207,4.012,2.865,5.35,5.073
			c1.422,2.349,2.438,5.219,3.025,8.532C383.73,242.878,384.046,246.712,384.046,250.74z"/>
		<path fill="#f8f7f1" d="M606.284,266.222c-2.376,0.895-4.711,1.703-6.941,2.4c-2.242,0.705-4.331,1.312-6.236,1.81
			c-2.018,0.548-3.956,1.058-5.82,1.524c-1.121-0.019-2.365-0.113-3.701-0.279c-1.369-0.172-2.771-0.527-4.181-1.071
			c-1.367-0.522-2.746-1.296-4.092-2.294c-1.248-0.928-2.375-2.201-3.354-3.794c-1.024-1.657-1.858-3.746-2.479-6.208
			c-0.43-1.709-0.694-3.689-0.791-5.926h44.358l0.29-3.031c0.096-1.008,0.169-1.967,0.22-2.868c0.044-0.804,0.08-1.646,0.104-2.532
			c0.021-0.787,0.054-1.475,0.105-2.242c0.093-4.563-0.33-8.787-1.263-12.547c-0.979-3.935-2.615-7.377-4.867-10.232
			c-2.296-2.912-5.275-5.18-8.852-6.744c-3.492-1.529-7.71-2.301-12.531-2.301c-5.856,0-11.216,1.119-15.932,3.326
			c-4.69,2.195-8.751,5.211-12.069,8.961c-3.299,3.713-5.884,8.078-7.689,12.973c-1.789,4.854-2.746,10.033-2.839,15.38
			c-0.144,5.937,0.5,11.364,1.915,16.132c1.462,4.916,3.795,9.155,6.933,12.598c3.15,3.459,7.15,6.133,11.882,7.953
			c4.631,1.785,10.138,2.688,16.361,2.688h0.432l0.42-0.108c2.021-0.531,4.052-1.176,6.04-1.918
			c1.975-0.738,4.032-1.599,6.113-2.561c2.046-0.939,4.232-2.029,6.499-3.23c2.214-1.175,4.589-2.478,7.123-3.908l2.547-1.435
			l-4.612-11.673L606.284,266.222z M582.259,224.07l0.366,0.004c1.855,0.053,3.399,0.482,4.72,1.307
			c1.297,0.812,2.304,1.977,3.078,3.561c0.817,1.67,1.233,3.824,1.233,6.396c0,0.699-0.111,1.351-0.34,1.996
			c-0.462,0.053-1.044,0.115-1.753,0.18c-1.21,0.113-2.854,0.232-4.932,0.369c-2.104,0.137-4.739,0.27-7.905,0.406
			c-2.268,0.098-4.889,0.172-7.826,0.223c0.202-1.646,0.519-3.119,0.947-4.395c0.725-2.146,1.534-3.891,2.405-5.18
			c1.043-1.542,1.859-2.316,2.362-2.693c1.024-0.775,1.416-0.938,1.492-0.967C578.294,224.476,580.366,224.07,582.259,224.07z"/>
		<path fill="#f8f7f1" d="M764.476,275.576c-2.104-1.357-4.26-3.008-6.418-4.902c-2.188-1.926-4.434-4.119-6.676-6.516
			c-2.247-2.398-4.469-4.97-6.618-7.654c-1.48-1.832-2.882-3.74-4.158-5.666c-1.287-1.942-2.475-3.883-3.528-5.771
			c-1.07-1.914-2.018-3.725-2.823-5.38c-0.154-0.317-0.304-0.62-0.446-0.923c2.403-0.896,4.688-2.133,6.831-3.689
			c3.188-2.316,6.003-5.131,8.367-8.365c2.35-3.215,4.221-6.777,5.554-10.586c1.352-3.853,2.038-7.771,2.038-11.649
			c0-4.833-0.836-9.151-2.481-12.833c-1.662-3.715-4.008-6.852-6.976-9.318c-2.914-2.423-6.42-4.26-10.421-5.459
			c-3.879-1.16-8.15-1.748-12.7-1.748c-3.008,0-5.607,0.035-7.807,0.105c-2.195,0.068-4.146,0.148-5.856,0.24
			c-1.756,0.096-3.305,0.215-4.654,0.357c-1.265,0.135-2.495,0.241-3.695,0.331c-1.206,0.091-2.439,0.167-3.698,0.231
			c-1.225,0.068-2.575,0.1-4.058,0.1h-22.242v11.338l11.294,3.629v73.941c0,2.354-0.14,4.207-0.412,5.512
			c-0.189,0.918-0.503,1.615-0.923,2.068c-0.474,0.512-1.188,0.943-2.129,1.277c-1.375,0.494-3.165,1.027-5.322,1.586l-2.509,0.654
			v11.35h45.647v-11.307l-12.867-3.561v-31.922c1.633,0.187,3.084,0.332,4.376,0.439c1.385,0.114,2.679,0.205,3.873,0.268
			c0.773,1.638,1.525,3.258,2.251,4.861c1.012,2.229,2.021,4.414,3.034,6.549c1.015,2.149,2.087,4.293,3.183,6.365
			c1.112,2.105,2.316,4.194,3.613,6.258c1.549,2.369,3.042,4.66,4.479,6.867c1.523,2.346,3.167,4.518,4.889,6.461
			c1.808,2.034,3.828,3.795,6.002,5.229c2.309,1.52,4.944,2.559,7.755,3.08c1.642,0.347,3.36,0.586,5.11,0.713
			c1.667,0.119,3.359,0.22,4.934,0.178c1.627,0.045,3.436,0.07,5.436,0.07h8.626l0.18-9.293l-2.402-0.75
			C768.369,277.792,766.468,276.863,764.476,275.576z M729.396,193.738c1.795,1.584,3.161,3.479,4.185,5.788
			c1.012,2.296,1.528,4.974,1.528,7.955c0,2.36-0.194,4.46-0.577,6.248c-0.379,1.78-0.89,3.378-1.518,4.747
			c-0.62,1.355-1.338,2.561-2.131,3.585c-0.753,0.97-1.545,1.866-2.362,2.675c-1.465,0.758-3.153,1.359-5.023,1.797
			c-2.176,0.508-4.498,0.862-6.902,1.055c-2.411,0.193-4.884,0.213-7.367,0.063c-1.521-0.093-3.01-0.233-4.447-0.431v-26.578
			c0-2.932,0.099-5.357,0.291-7.217c0.139-1.35,0.463-2.404,0.933-3.039c0.371-0.504,1.019-0.866,1.96-1.107
			c1.441-0.363,3.549-0.549,6.267-0.549c3.125,0,6.034,0.447,8.646,1.332C725.404,190.912,727.6,192.148,729.396,193.738z"/>
		<path fill="#f8f7f1" d="M829.336,266.222c-2.376,0.895-4.712,1.703-6.941,2.4c-2.24,0.705-4.329,1.312-6.235,1.81
			c-2.019,0.548-3.957,1.058-5.819,1.524c-1.123-0.019-2.367-0.113-3.702-0.279c-1.371-0.172-2.772-0.527-4.18-1.071
			c-1.368-0.522-2.747-1.296-4.091-2.294c-1.249-0.928-2.375-2.201-3.357-3.794c-1.021-1.657-1.854-3.746-2.477-6.208
			c-0.428-1.709-0.696-3.689-0.792-5.926h44.356l0.292-3.031c0.098-1.008,0.169-1.967,0.22-2.868
			c0.045-0.804,0.082-1.646,0.105-2.532c0.022-0.787,0.055-1.475,0.104-2.242c0.094-4.563-0.328-8.787-1.263-12.547
			c-0.978-3.935-2.613-7.377-4.864-10.232c-2.298-2.912-5.276-5.18-8.854-6.744c-3.492-1.529-7.709-2.301-12.531-2.301
			c-5.854,0-11.216,1.119-15.93,3.326c-4.69,2.195-8.752,5.211-12.072,8.961c-3.297,3.713-5.883,8.078-7.687,12.973
			c-1.79,4.854-2.747,10.033-2.839,15.38c-0.145,5.937,0.5,11.364,1.916,16.132c1.462,4.916,3.795,9.155,6.932,12.598
			c3.151,3.459,7.151,6.133,11.88,7.953c4.631,1.785,10.141,2.688,16.363,2.688h0.432l0.419-0.108
			c2.022-0.531,4.05-1.176,6.04-1.918c1.975-0.738,4.032-1.599,6.112-2.561c2.046-0.939,4.234-2.029,6.5-3.23
			c2.214-1.175,4.589-2.478,7.122-3.908l2.548-1.435l-4.612-11.673L829.336,266.222z M805.312,224.07l0.366,0.004
			c1.854,0.053,3.397,0.482,4.72,1.307c1.298,0.812,2.303,1.977,3.077,3.561c0.818,1.67,1.232,3.824,1.232,6.396
			c0,0.699-0.109,1.351-0.338,1.996c-0.46,0.053-1.043,0.115-1.75,0.18c-1.212,0.113-2.855,0.232-4.936,0.369
			c-2.101,0.137-4.737,0.27-7.902,0.406c-2.27,0.098-4.89,0.172-7.825,0.223c0.202-1.646,0.516-3.119,0.948-4.395
			c0.721-2.146,1.532-3.891,2.403-5.18c1.043-1.542,1.859-2.316,2.362-2.693c1.024-0.775,1.416-0.938,1.491-0.967
			C801.344,224.476,803.417,224.07,805.312,224.07z"/>
		<path fill="#f8f7f1" d="M916.561,224.292c-2.033-3.359-4.378-6.058-6.965-8.018c-2.49-1.887-4.979-3.326-7.401-4.279
			c-2.408-0.949-4.675-1.547-6.73-1.787c-1.924-0.224-3.326-0.33-4.287-0.33c-2.282,0-4.698,0.494-7.173,1.461
			c-2.228,0.871-4.453,1.929-6.616,3.145c-1.784,1.001-3.517,2.07-5.167,3.186c0.064-1.408,0.148-2.797,0.26-4.174l0.173-2.201
			l-6.096-3.207l-1.548,0.791c-1.799,0.92-3.567,1.77-5.249,2.524c-1.616,0.724-3.305,1.39-5.016,1.976
			c-1.712,0.586-3.497,1.111-5.31,1.563c-1.833,0.456-3.837,0.864-5.957,1.209l-2.812,0.458v10.417l2.562,0.618
			c1.486,0.359,2.839,0.697,4.05,1.009c0.78,0.204,1.425,0.515,1.969,0.952c0.42,0.336,0.783,0.902,1.067,1.686
			c0.25,0.68,0.549,2.029,0.549,4.596v63.31c0,2.253-0.094,4.05-0.274,5.354c-0.167,1.182-0.457,1.812-0.669,2.131
			c-0.254,0.384-0.645,0.697-1.188,0.957c-0.913,0.439-2.188,0.888-3.776,1.341l-2.441,0.69v11.498h44.759v-11.58l-15.331-3.836
			v-17.256c1.349,0.205,2.704,0.4,4.05,0.574c2.749,0.359,5.209,0.54,7.312,0.54c1.524,0,3.479-0.153,5.97-0.47
			c2.56-0.328,5.318-1.02,8.205-2.055c2.899-1.043,5.848-2.527,8.764-4.412c3.025-1.961,5.801-4.586,8.241-7.805
			c2.425-3.201,4.417-7.131,5.918-11.688c1.499-4.537,2.258-9.969,2.258-16.143c0-5.082-0.635-9.551-1.89-13.283
			C919.564,230.151,918.15,226.975,916.561,224.292z M879.15,230.246c1.869-0.728,3.801-1.371,5.737-1.91
			c3.622-1.002,6.191-1.184,8.606,0.754c1.482,1.189,2.804,2.865,3.929,4.979c1.202,2.263,2.156,4.962,2.84,8.021
			c0.695,3.119,1.048,6.488,1.048,10.017c0,3.324-0.289,6.47-0.861,9.343c-0.534,2.701-1.406,5.067-2.588,7.028
			c-1.109,1.829-2.512,3.215-4.282,4.235c-1.733,0.996-3.946,1.504-6.575,1.504c-2.998,0-5.958-0.424-8.806-1.264
			c-2.229-0.656-4.327-1.425-6.256-2.287v-37.135c0.589-0.302,1.257-0.636,2-1C875.507,231.755,877.261,230.986,879.15,230.246z"/>
		<path fill="#f8f7f1" d="M995.442,272.988c-0.933,0-1.982-0.082-3.13-0.242c-0.836-0.119-1.612-0.338-2.346-0.677v-39.126
			c0-4.072-0.469-7.588-1.396-10.447c-1.013-3.123-2.698-5.689-5.009-7.627c-2.23-1.869-5.069-3.197-8.434-3.953
			c-3.086-0.689-6.841-1.039-11.169-1.039c-0.936,0-2.112,0.158-3.601,0.492c-1.329,0.295-2.827,0.696-4.461,1.195
			c-1.602,0.49-3.334,1.044-5.188,1.671c-1.859,0.625-3.724,1.286-5.604,1.985c-1.887,0.697-3.731,1.419-5.549,2.162
			c-1.794,0.738-3.449,1.428-4.968,2.072l-1.822,0.774l-2.011,19.761h17.133l0.729-2.363c0.741-2.397,1.48-4.535,2.204-6.357
			c0.625-1.572,1.354-2.883,2.166-3.895c0.684-0.846,1.475-1.451,2.423-1.854c1.039-0.438,2.44-0.658,4.122-0.658
			c3.362,0.049,5.199,0.436,6.141,0.75c1.524,0.51,2.158,1.023,2.395,1.281c0.36,0.391,0.551,0.781,0.616,1.264
			c0.138,1.014,0.209,2.094,0.209,3.207v7.834c-5.134,1.246-9.649,2.43-13.458,3.526c-4.517,1.308-8.412,2.608-11.572,3.874
			c-3.275,1.309-5.991,2.669-8.068,4.048c-2.216,1.47-3.975,3.077-5.225,4.774c-1.308,1.77-2.192,3.709-2.638,5.772
			c-0.391,1.828-0.587,3.837-0.587,5.97c0,3.771,0.748,7.125,2.227,9.963c1.447,2.789,3.352,5.123,5.654,6.939
			c2.262,1.782,4.834,3.119,7.642,3.963c5.337,1.614,10.998,1.471,15.103,0.582c2.064-0.451,4.039-1.164,5.863-2.117
			c1.744-0.91,3.551-2.092,5.374-3.514c0.407-0.316,0.829-0.652,1.271-1.001c0.457,1.349,1.088,2.519,1.9,3.521
			c2.03,2.5,5.232,3.771,9.516,3.771c1.498,0,3.062-0.16,4.647-0.475c1.442-0.281,2.909-0.617,4.358-1.008
			c1.444-0.383,2.841-0.814,4.138-1.281c1.253-0.446,2.354-0.861,3.303-1.243l2.101-0.845v-7.947
			C1000.438,275.611,1000.438,272.988,995.442,272.988z M958.555,272.44c-1.501,0-2.925-0.165-4.233-0.489
			c-1.134-0.277-2.099-0.707-2.875-1.285c-0.729-0.539-1.287-1.205-1.714-2.041c-0.415-0.818-0.625-1.887-0.625-3.17
			c0-1.502,0.276-2.75,0.823-3.713c0.612-1.076,1.414-1.964,2.448-2.714c1.164-0.845,2.532-1.563,4.064-2.142
			c1.716-0.641,3.521-1.217,5.369-1.713c1.938-0.516,3.875-1.014,5.818-1.488c0.423-0.104,0.845-0.211,1.256-0.32v14.295
			c-1.432,1.227-3.007,2.312-4.692,3.238C962.308,271.934,960.462,272.44,958.555,272.44z"/>
		<path fill="#f8f7f1" d="M1017.425,197.392c1.133,1.165,2.518,2.096,4.112,2.77c1.595,0.678,3.369,1.02,5.273,1.02
			c1.832,0,3.636-0.307,5.35-0.907c1.749-0.61,3.326-1.506,4.688-2.657c1.385-1.17,2.5-2.578,3.32-4.187
			c0.854-1.681,1.286-3.562,1.286-5.593c0-1.836-0.351-3.555-1.047-5.104c-0.688-1.525-1.629-2.846-2.813-3.941
			c-1.163-1.065-2.547-1.9-4.104-2.479c-1.533-0.574-3.158-0.861-4.833-0.861c-2.348,0-4.472,0.383-6.312,1.146
			c-1.811,0.75-3.364,1.731-4.626,2.933c-1.31,1.25-2.293,2.7-2.926,4.314c-0.61,1.554-0.917,3.125-0.917,4.684
			c0,1.705,0.313,3.338,0.935,4.855C1015.431,194.895,1016.309,196.246,1017.425,197.392z"/>
		<path fill="#f8f7f1" d="M1038.104,236.158c0-2.205,0.022-4.293,0.066-6.256c0.044-1.92,0.134-3.781,0.266-5.574
			c0.135-1.805,0.301-3.572,0.5-5.308c0.198-1.722,0.453-3.502,0.763-5.292l0.417-2.426l-6.229-3.198l-1.52,0.761
			c-1.511,0.752-3.027,1.398-4.513,1.922c-1.484,0.523-3.146,0.994-4.933,1.399c-1.874,0.423-3.973,0.847-6.295,1.271
			c-2.376,0.436-5.126,0.949-8.239,1.543l-2.722,0.521v10.311l2.536,0.637c1.349,0.337,2.663,0.74,3.902,1.193
			c0.979,0.361,1.813,0.857,2.556,1.512c0.667,0.597,1.229,1.436,1.67,2.486c0.462,1.11,0.696,2.666,0.696,4.629v28.27
			c0,2.49-0.147,4.441-0.436,5.798c-0.214,0.994-0.56,1.752-1.027,2.255c-0.517,0.559-1.291,1.023-2.303,1.387
			c-1.438,0.51-3.334,1.084-5.646,1.696l-2.493,0.659v11.543h45.439v-11.451l-12.455-3.768v-36.52H1038.104z"/>
		<path fill="#f8f7f1" d="M1109.866,209.607l-0.832-0.01c-1.766,0-3.673,0.139-5.669,0.417c-2.495,0.345-4.892,1.087-7.128,2.204
			l-0.263,0.145c-1.628,1.006-3.265,2.121-4.866,3.314c-0.861,0.645-1.678,1.267-2.448,1.867l0.469-6.189l-6.208-3.262l-1.537,0.77
			c-2.546,1.271-4.655,2.314-6.333,3.131c-1.605,0.78-3.184,1.465-4.687,2.035c-1.509,0.573-3.204,1.098-5.044,1.562
			c-1.916,0.486-4.421,1.021-7.436,1.597l-2.725,0.519v10.295l2.512,0.649c1.344,0.349,2.678,0.739,4.006,1.173
			c1.023,0.334,1.939,0.812,2.729,1.42c0.665,0.514,1.211,1.248,1.668,2.242c0.473,1.02,0.72,2.559,0.72,4.446v26.625
			c0,2.508-0.102,4.487-0.309,5.875c-0.134,0.916-0.395,1.601-0.774,2.045c-0.426,0.503-1.128,0.94-2.08,1.308
			c-1.373,0.528-3.313,1.184-5.774,1.945l-2.359,0.73v11.433h48.522v-11.622l-16.151-3.766v-39.127
			c0.485-0.281,1.016-0.574,1.584-0.877c1.199-0.641,2.531-1.256,3.965-1.826c1.392-0.551,2.887-1.021,4.438-1.395
			c1.298-0.314,2.593-0.507,3.78-0.574c0.016,0.022,0.036,0.047,0.054,0.069c0.066,0.151,0.13,0.294,0.191,0.421l1.772,12.148
			h13.679l2.22-30.412l-2.886-0.59C1114.489,209.91,1112.188,209.656,1109.866,209.607z"/>
		<path fill="#f8f7f1" d="M1179.627,252.96c-1.35-2.387-3.145-4.422-5.35-6.053c-2.076-1.529-4.457-2.785-7.07-3.734
			c-2.391-0.867-4.863-1.664-7.35-2.368l-7.115-2.021c-2.092-0.593-3.959-1.328-5.562-2.191c-1.393-0.747-2.514-1.67-3.34-2.746
			c-0.662-0.865-0.983-2.01-0.983-3.504c0-0.754,0.125-1.541,0.366-2.338c0.244-0.803,0.595-1.551,1.029-2.213
			c0.365-0.553,0.799-0.988,1.326-1.332c0.367-0.24,0.732-0.348,1.182-0.348c2.322,0,4.689,0.24,7.031,0.719
			c2.338,0.476,4.39,1.086,6.092,1.815c0.519,0.224,0.671,0.448,0.722,0.522c0.244,0.369,0.646,1.095,1.182,2.498l2.896,7.24h12.02
			l2.383-24.654l-3.201-0.426c-3.791-0.51-7.494-0.941-11.004-1.283c-3.598-0.351-7.395-0.527-11.276-0.527
			c-4.619,0-8.8,0.598-12.43,1.773c-3.739,1.211-6.945,2.996-9.544,5.303c-2.633,2.34-4.651,5.207-6.009,8.527
			c-1.325,3.244-1.995,6.906-1.995,10.879c0,3.504,0.714,6.521,2.123,8.965c1.353,2.346,3.158,4.336,5.373,5.914
			c2.064,1.471,4.438,2.703,7.048,3.668c2.405,0.889,4.897,1.699,7.401,2.408c2.389,0.676,4.748,1.377,7.068,2.096
			c2.104,0.654,3.983,1.451,5.588,2.375c1.42,0.814,2.52,1.783,3.367,2.953c0.702,0.978,1.043,2.262,1.043,3.929
			c0,0.685-0.099,1.304-0.296,1.89c-0.2,0.584-0.473,1.088-0.832,1.543c-0.288,0.367-0.637,0.646-1.057,0.858
			c-0.4,0.202-0.85,0.298-1.377,0.298c-1.687,0-3.303-0.036-4.85-0.102c-1.459-0.062-2.894-0.209-4.248-0.435
			c-1.373-0.231-2.752-0.536-4.097-0.915c-1.209-0.337-2.459-0.793-3.723-1.355c-0.084-0.061-0.195-0.15-0.319-0.264
			c-0.011-0.014-0.254-0.365-0.684-1.525l-3.369-9.664l-12.444-0.237l-3.034,22.955l2.176,1.058c1.702,0.828,3.67,1.629,5.848,2.377
			c2.146,0.74,4.392,1.394,6.674,1.94c2.264,0.54,4.546,0.983,6.791,1.321c2.298,0.342,4.423,0.515,6.314,0.515
			c4.133,0,8.1-0.474,11.801-1.401c3.854-0.969,7.277-2.551,10.178-4.701c2.974-2.199,5.351-5.068,7.064-8.525
			c1.707-3.443,2.572-7.615,2.572-12.406C1181.733,258.496,1181.026,255.443,1179.627,252.96z"/>
		<g>
			<path fill="#f8f7f1" d="M547.797,276.16l-2.732-0.515c-0.434-0.08-1.272-0.271-2.805-0.713c-1.305-0.375-2.619-0.785-4-1.242
				c-0.89-0.282-1.818-0.584-2.788-0.909l-0.062-32.922c-0.047-2.258-0.068-4.482-0.068-6.673c0-2.351-0.146-4.61-0.44-6.729
				c-0.316-2.236-0.886-4.357-1.701-6.304c-0.906-2.159-2.266-4.038-4.044-5.583c-1.745-1.518-3.985-2.699-6.656-3.516
				c-2.545-0.779-5.684-1.172-9.331-1.172c-1.517,0-3.003,0.138-4.422,0.402c-1.287,0.244-2.488,0.512-3.613,0.803
				c-1.13,0.295-2.138,0.59-3.012,0.883c-0.788,0.263-1.398,0.459-1.831,0.592l-0.658,0.277c-1.646,0.914-3.367,1.879-5.155,2.886
				c-1.764,0.995-3.412,1.907-4.949,2.745l-2.517,1.365c-0.249-0.555-0.521-1.086-0.812-1.596c-1.034-1.802-2.458-3.365-4.234-4.645
				c-1.726-1.246-3.86-2.193-6.344-2.824c-2.339-0.592-5.16-0.889-8.38-0.889c-1.465,0-2.938,0.134-4.379,0.4
				c-1.32,0.244-2.532,0.514-3.645,0.807c-1.109,0.299-2.098,0.599-2.947,0.888c-0.752,0.257-1.342,0.45-1.77,0.58l-0.679,0.29
				c-1.788,1.006-3.56,2.013-5.321,3.021c-1.46,0.834-2.803,1.604-4.032,2.315l0.555-6.819L438.8,208.1l-1.537,0.769
				c-2.581,1.291-4.726,2.383-6.428,3.283c-1.586,0.838-3.17,1.592-4.709,2.238c-1.471,0.623-3.143,1.197-4.964,1.707
				c-1.884,0.527-4.37,1.08-7.385,1.645l-2.734,0.512v10.326l2.534,0.637c1.382,0.343,2.747,0.738,4.052,1.164
				c1.022,0.334,1.938,0.812,2.729,1.42c0.655,0.507,1.184,1.226,1.62,2.201c0.322,0.719,0.702,2.082,0.702,4.488v26.076
				c0,2.512-0.103,4.49-0.31,5.877c-0.134,0.93-0.395,1.629-0.771,2.084c-0.396,0.477-1.09,0.912-2.009,1.268
				c-1.388,0.535-3.332,1.189-5.775,1.947l-2.361,0.73v11.432h42.868v-11.82l-10.566-3.359v-40.118
				c0.531-0.289,1.111-0.586,1.737-0.888c1.273-0.617,2.703-1.199,4.243-1.729c1.512-0.516,3.139-0.949,4.833-1.283
				c3.13-0.619,6.727-0.549,8.95-0.328c0.971,0.095,1.776,0.232,2.403,0.406c0.498,0.139,0.893,0.303,1.179,0.485
				c0.31,0.196,0.605,0.431,0.89,0.696c0.045,0.089,0.129,0.283,0.229,0.627c0.163,0.566,0.243,1.137,0.243,1.738v32.102
				c0,2.076-0.01,3.783-0.032,5.109c-0.021,1.108-0.107,2.004-0.258,2.66c-0.108,0.479-0.228,0.646-0.228,0.646
				c-0.062,0.072-0.27,0.275-0.78,0.527c-0.607,0.307-1.433,0.613-2.444,0.918c-1.234,0.373-2.759,0.863-4.579,1.469l-1.152,0.384
				v11.759h41.51v-12.01l-1.306-0.246c-0.433-0.082-1.273-0.27-2.804-0.713c-1.305-0.376-2.619-0.785-3.999-1.242
				c-0.891-0.281-1.823-0.586-2.791-0.91l-0.062-32.17c0-1.703-0.01-3.418-0.034-5.143c-0.015-1.002-0.039-1.986-0.075-2.95
				c0.522-0.263,1.085-0.528,1.687-0.806c1.322-0.609,2.781-1.188,4.336-1.725c1.515-0.516,3.131-0.951,4.809-1.285
				c3.18-0.637,6.597-0.535,8.85-0.328c1.024,0.098,1.893,0.238,2.572,0.418c0.685,0.181,1.079,0.373,1.29,0.504
				c0.365,0.227,0.71,0.502,0.936,0.705c0,0,0.084,0.139,0.181,0.504c0.153,0.601,0.232,1.195,0.232,1.82v32.103
				c0,2.077-0.012,3.782-0.034,5.11c-0.02,1.107-0.107,2.004-0.257,2.658c-0.109,0.479-0.229,0.647-0.229,0.647
				c-0.062,0.073-0.268,0.276-0.781,0.528c-0.604,0.303-1.427,0.61-2.44,0.918c-1.246,0.375-2.753,0.867-4.534,1.477l-0.87,0.297
				v11.838h42.606V276.16H547.797z"/>
		</g>
		<path fill="#f8f7f1" d="M474.918,107.442c-0.609-0.124-1.486-0.364-2.63-0.708c-1.239-0.375-2.5-0.785-3.813-1.238
			c-0.821-0.275-1.683-0.57-2.573-0.884l-0.063-39.637c0-2.339-0.137-4.589-0.404-6.689c-0.287-2.253-0.852-4.386-1.671-6.347
			c-0.907-2.168-2.288-4.049-4.097-5.595c-1.77-1.516-4.056-2.694-6.799-3.506c-2.644-0.787-5.786-1.166-9.614-1.166
			c-1.456,0-2.95,0.133-4.449,0.394c-1.375,0.241-2.657,0.51-3.845,0.798c-1.2,0.294-2.262,0.589-3.186,0.882
			c-0.85,0.266-1.495,0.467-1.942,0.602l-0.687,0.292c-1.784,1.008-3.559,2.012-5.314,3.02c-1.499,0.856-2.889,1.644-4.176,2.373
			l0.559-6.871l-6.234-3.279l-1.55,0.793c-1.642,0.845-3.087,1.554-4.332,2.133c-1.212,0.562-2.335,1.05-3.382,1.461
			c-1.027,0.409-2.035,0.773-3.019,1.096c-0.974,0.317-2.028,0.608-3.167,0.884c-1.188,0.287-2.521,0.572-3.995,0.858l-8.155,1.59
			v10.309l2.541,0.631c1.372,0.342,2.717,0.732,3.991,1.159c1.011,0.338,1.88,0.798,2.649,1.403
			c0.641,0.505,1.183,1.254,1.616,2.221c0.322,0.719,0.703,2.085,0.703,4.49v27.448c0,2.536-0.095,4.526-0.281,5.925
			c-0.12,0.913-0.371,1.628-0.726,2.069c-0.37,0.458-1.039,0.884-1.947,1.232c-1.387,0.535-3.331,1.189-5.773,1.946l-2.363,0.729
			v11.433h43.139v-11.689l-10.975-3.489v-40.13c0.543-0.301,1.138-0.612,1.775-0.931c1.261-0.632,2.684-1.217,4.228-1.739
			c1.556-0.522,3.222-0.975,4.946-1.331c3.279-0.678,6.899-0.562,9.29-0.353c1.09,0.096,2.023,0.239,2.766,0.425
			c0.744,0.185,1.17,0.385,1.397,0.519c0.335,0.2,0.646,0.42,0.951,0.677c0.047,0.101,0.125,0.286,0.21,0.581
			c0.165,0.581,0.246,1.151,0.246,1.747V96.22c0,2.077-0.011,3.792-0.034,5.143c-0.02,1.185-0.096,2.145-0.223,2.854
			c-0.078,0.425-0.173,0.576-0.173,0.576s0,0,0.002,0c-0.046,0.054-0.231,0.249-0.734,0.495c-0.602,0.29-1.445,0.584-2.516,0.871
			c-1.299,0.348-2.899,0.799-4.796,1.356l-1.686,0.497v11.681h43.008v-11.706L474.918,107.442z"/>
		<path fill="#f8f7f1" d="M787.819,109.807c-1.502-0.56-3.092-1.369-4.75-2.441c-2.104-1.358-4.261-3.01-6.417-4.902
			c-2.188-1.925-4.436-4.12-6.679-6.518c-2.245-2.396-4.468-4.968-6.616-7.654c-1.482-1.832-2.884-3.739-4.159-5.665
			c-1.285-1.942-2.474-3.885-3.528-5.771c-1.069-1.917-2.016-3.725-2.824-5.38c-0.152-0.318-0.303-0.622-0.443-0.923
			c2.402-0.898,4.688-2.135,6.831-3.688c3.187-2.316,6.004-5.133,8.366-8.367c2.351-3.215,4.221-6.776,5.555-10.583
			c1.352-3.855,2.039-7.773,2.039-11.653c0-4.832-0.837-9.15-2.483-12.832c-1.663-3.717-4.01-6.851-6.975-9.319
			c-2.915-2.424-6.42-4.261-10.421-5.46c-3.879-1.159-8.151-1.747-12.7-1.747c-3.008,0-5.608,0.036-7.808,0.104
			c-2.195,0.07-4.146,0.15-5.856,0.243c-1.754,0.095-3.304,0.214-4.654,0.356c-1.265,0.133-2.496,0.241-3.696,0.33
			c-1.205,0.09-2.439,0.168-3.697,0.233c-1.225,0.066-2.576,0.098-4.06,0.098h-22.241v11.34l11.291,3.628v73.94
			c0,2.355-0.138,4.208-0.409,5.512c-0.19,0.918-0.503,1.615-0.923,2.069c-0.476,0.511-1.188,0.942-2.131,1.278
			c-1.374,0.493-3.167,1.027-5.321,1.587l-2.509,0.651v11.353h45.647v-11.31l-12.867-3.559v-31.92
			c1.633,0.187,3.085,0.332,4.376,0.439c1.385,0.116,2.68,0.205,3.873,0.268c0.775,1.638,1.524,3.258,2.251,4.861
			c1.013,2.229,2.021,4.414,3.034,6.549c1.015,2.149,2.087,4.292,3.181,6.364c1.113,2.106,2.318,4.195,3.616,6.259
			c1.548,2.369,3.041,4.659,4.479,6.866c1.522,2.346,3.168,4.518,4.888,6.461c1.81,2.035,3.83,3.796,6.004,5.229
			c2.308,1.519,4.945,2.559,7.755,3.08c1.642,0.347,3.359,0.587,5.11,0.713c1.648,0.118,3.323,0.176,4.881,0.176
			c0.019,0,0.037,0,0.051,0c1.625,0.047,3.438,0.071,5.436,0.071h5.51v-10.366L787.819,109.807L787.819,109.807z M749.48,53.847
			c-0.753,0.971-1.544,1.868-2.363,2.675c-1.465,0.757-3.154,1.361-5.023,1.799c-2.176,0.506-4.498,0.859-6.9,1.051
			c-2.411,0.194-4.886,0.212-7.368,0.065c-1.52-0.091-3.009-0.234-4.446-0.431V32.427c0-2.932,0.098-5.357,0.29-7.216
			c0.138-1.352,0.462-2.405,0.935-3.038c0.37-0.506,1.016-0.868,1.957-1.108c1.443-0.363,3.55-0.548,6.268-0.548
			c3.125,0,6.035,0.447,8.645,1.332c2.526,0.856,4.722,2.097,6.521,3.682c1.793,1.584,3.161,3.479,4.185,5.789
			c1.013,2.297,1.527,4.975,1.527,7.958c0,2.358-0.193,4.458-0.576,6.246c-0.38,1.781-0.889,3.378-1.518,4.749
			C750.99,51.622,750.271,52.827,749.48,53.847z"/>
	</g>
</g>
<g>
	<path fill="#f8f7f1" d="M1291.086,271.11l-32.971,1.759V200.83c0-2.922,0.307-4.572,0.562-5.44c0.29-0.981,0.702-1.706,1.262-2.216
		c0.66-0.602,1.583-1.102,2.74-1.482c1.547-0.508,3.487-1.049,5.771-1.609l2.666-0.654v-11.904h-46.146v11.7l11.59,3.772v71.438
		c0,2.498-0.11,4.469-0.327,5.854c-0.147,0.934-0.41,1.633-0.781,2.078c-0.39,0.467-1.021,0.866-1.874,1.188
		c-1.334,0.5-3.132,1.055-5.342,1.648l-2.592,0.697v11.708h69.441l12.896,1.646l3.474-40.043h-14.064L1291.086,271.11z"/>
	<path fill="#f8f7f1" d="M1382.516,271.11l-32.972,1.759V200.83c0-2.924,0.307-4.572,0.563-5.443
		c0.291-0.979,0.701-1.703,1.261-2.213c0.66-0.602,1.583-1.102,2.743-1.482c1.54-0.507,3.48-1.048,5.77-1.609l2.666-0.654v-11.904
		h-46.145v11.7l11.588,3.772v71.438c0,2.503-0.11,4.474-0.328,5.858c-0.146,0.93-0.409,1.629-0.78,2.074
		c-0.39,0.467-1.021,0.866-1.874,1.188c-1.333,0.5-3.131,1.054-5.342,1.648l-2.59,0.698v11.707h69.439l12.896,1.646l3.474-40.043
		h-14.063L1382.516,271.11z"/>
	<path fill="#f8f7f1" d="M1498.034,260.009l-3.063,1.25c-2.134,0.873-4.639,1.861-7.444,2.939c-2.778,1.066-5.497,2.077-8.08,3.004
		c-2.571,0.924-4.868,1.701-6.831,2.312c-2.311,0.719-2.982,0.78-3.002,0.784c-7.354,0-13.671-1.096-18.78-3.26
		c-5.037-2.133-9.188-5.097-12.341-8.812c-3.188-3.757-5.562-8.267-7.056-13.401c-1.539-5.287-2.319-11.136-2.319-17.382
		c0-2.419,0.202-4.974,0.6-7.593c0.399-2.625,1.006-5.25,1.804-7.809c0.786-2.529,1.807-5.012,3.034-7.381
		c1.119-2.164,2.441-4.176,3.935-5.984c2.429-1.592,5.259-2.864,8.42-3.783c3.371-0.98,6.885-1.479,10.443-1.479
		c2.452,0,4.895,0.099,7.26,0.293c2.292,0.188,4.533,0.524,6.657,1.002c2.084,0.471,4.093,1.103,5.97,1.877
		c1.385,0.572,2.699,1.281,3.924,2.113l3.481,16.141h13.521l3.983-31.209l-2.687-0.932c-3.462-1.199-7.229-2.277-11.21-3.203
		c-3.397-0.779-7.322-1.521-11.661-2.201c-4.448-0.699-9.198-1.053-14.118-1.053c-5.938,0-11.483,0.776-16.488,2.309
		c-4.995,1.529-9.599,3.682-13.681,6.395c-4.084,2.715-7.715,5.969-10.793,9.674c-3.049,3.668-5.633,7.711-7.68,12.021
		c-2.034,4.282-3.594,8.84-4.635,13.548c-1.039,4.697-1.565,9.496-1.565,14.264c0,4.541,0.492,9.088,1.462,13.519
		c0.979,4.46,2.491,8.758,4.499,12.774c2.01,4.018,4.542,7.799,7.528,11.24c3.028,3.488,6.633,6.53,10.713,9.041
		c4.058,2.496,8.665,4.475,13.695,5.881c5.025,1.404,10.637,2.117,16.674,2.117c0.665,0,1.791-0.057,3.545-0.177
		c1.922-0.134,4.412-0.706,7.612-1.747c3.039-0.99,6.856-2.59,11.35-4.758c4.496-2.166,9.923-5.324,16.13-9.387l2.557-1.672
		L1498.034,260.009z"/>
</g>
</svg>
