<svg version="1.1" id="Layer_1" xmlns="http://www.w3.org/2000/svg" xmlns:xlink="http://www.w3.org/1999/xlink" x="0px" y="0px"
	 width="16151.078px" height="16151.078px" viewBox="0 0 16151.078 16151.078" enable-background="new 0 0 16151.078 16151.078"
	 xml:space="preserve">
<path fill="#e5e3df" d="M8056.53,82.247C3652.455,82.247,82.246,3652.455,82.246,8056.53s3570.208,7974.282,7974.284,7974.282
	s7974.283-3570.208,7974.283-7974.282S12460.605,82.247,8056.53,82.247z M8133.754,8738.828l-228.501,92.364v555.868v566.181
	l228.501,92.367v612.309H5881.168v-612.309l228.587-92.367v-566.181v-555.868l-228.587-92.364V8126.52h2252.586V8738.828z
	 M13517.639,10594.704c-658.637-447.059-1224.023-835.173-1722.296-1179.583c-498.271-344.408-929.425-645.109-1319.597-917.336
	c-500.471-348.451-931.343-648.753-1348.809-933.441c-417.471-284.685-821.537-553.755-1268.404-839.748l-24.222-15.427
	l-24.219-15.423c-402.951-257.981-613.206-383.481-752.005-432.996c-138.798-49.52-206.137-23.051-323.255,22.902
	c-284.239,113.104-682.044,377.488-1240.747,802.367c-558.704,424.879-1278.307,1010.25-2206.141,1765.322l-270.278,219.702
	l-270.282,219.705L1615.523,8072.685l269.676-219.419l269.675-219.42C4184.644,5982.745,5305.57,5070.923,6186.534,4743.2
	c880.963-327.726,1521.96-71.354,2591.867,613.925l24.093,15.296l24.091,15.297c208.265,133.341,407.126,262.762,601.749,391.353
	c194.628,128.591,385.014,256.354,576.32,386.378V5107.467v-167.973l-328.858-230.917v-601.336h2453.281v601.336l-328.859,230.917
	v789.388v1679.396c358.75,249.949,753.642,524.501,1202.171,833.812c448.532,309.313,950.708,653.387,1524.028,1042.381
	L13517.639,10594.704z"/>
</svg>
