<?xml version="1.0" encoding="utf-8"?>
<!-- Generator: Adobe Illustrator 16.0.0, SVG Export Plug-In . SVG Version: 6.00 Build 0)  -->
<!DOCTYPE svg PUBLIC "-//W3C//DTD SVG 1.1//EN" "http://www.w3.org/Graphics/SVG/1.1/DTD/svg11.dtd">
<svg version="1.1" id="Layer_1" xmlns="http://www.w3.org/2000/svg" xmlns:xlink="http://www.w3.org/1999/xlink" x="0px" y="0px"
	 width="2391.012px" height="154.949px" viewBox="0 0 2391.012 154.949" enable-background="new 0 0 2391.012 154.949"
	 xml:space="preserve">
<g id="Guides" display="none">
	<rect x="40.098" y="48" display="inline" width="1440" height="576"/>
</g>
<polygon fill="#F8F7F1" points="63.625,90.94 67.038,92.326 67.038,100.617 67.038,109.062 63.625,110.442 63.625,119.568 
	97.23,119.568 97.23,110.442 93.82,109.062 93.82,100.617 93.82,92.326 97.23,90.94 97.23,81.811 63.625,81.811 "/>
<path fill="#F8F7F1" d="M151.919,71.092V46.041V34.264l4.903-3.445v-8.971h-36.591v8.971l4.908,3.445v2.507V52.55
	c-2.856-1.941-5.697-3.845-8.599-5.763c-2.902-1.917-5.867-3.846-8.977-5.837l-0.362-0.226l-0.36-0.233
	c-15.959-10.217-25.521-14.039-38.66-9.155c-13.137,4.888-29.857,18.487-60.136,43.12l-4.024,3.277L0,80.998l16.884,18.172
	l4.028-3.278l4.031-3.272c13.84-11.265,24.573-19.997,32.911-26.333c8.332-6.337,14.266-10.285,18.508-11.966
	c1.748-0.69,2.753-1.086,4.819-0.347c2.071,0.744,5.208,2.614,11.218,6.467l0.36,0.229l0.359,0.23
	c6.668,4.27,12.7,8.282,18.925,12.525c6.23,4.244,12.647,8.729,20.117,13.917c5.822,4.066,12.252,8.548,19.687,13.689
	c7.426,5.131,15.863,10.926,25.689,17.596l15.048-19.551c-8.55-5.803-16.042-10.939-22.729-15.548
	C163.164,78.917,157.268,74.818,151.919,71.092z"/>
<path fill="#F8F7F1" d="M605.132,54.667l11.283,3.339l-12.031,37.779c-0.302-0.588-0.71-1.507-1.229-2.936l-13.287-33.156
	c0.137-0.436,0.274-0.734,0.388-0.926c0.171-0.298,0.444-0.572,0.83-0.829c0.602-0.399,1.409-0.786,2.404-1.146
	c1.22-0.444,2.741-0.955,4.556-1.531l2.162-0.688l0.846-11.403h-45.211l0.423,11.481l9.646,2.916
	c1.547,3.483,3.304,7.3,5.229,11.369c2.188,4.621,4.475,9.538,6.863,14.748c2.391,5.212,4.847,10.676,7.375,16.386
	c2.502,5.662,4.983,11.559,7.381,17.521l1.013,2.521c0,0,0.53,1.654-0.027,2.732c-0.956,1.852-2.161,3.877-3.579,6.014
	c-1.349,2.033-2.941,3.963-4.728,5.732c-1.741,1.721-3.748,3.217-5.956,4.457c-2.079,1.162-4.422,1.889-6.968,2.16l-3.784,0.402
	l3.136,13.191h25.116l4.155-9.696c0.96-2.241,1.891-4.431,2.784-6.562c0.893-2.133,1.795-4.322,2.713-6.565
	c0.917-2.245,1.947-4.808,3.094-7.692c1.145-2.884,2.447-6.226,3.912-10.023c1.464-3.795,3.166-8.287,5.114-13.482l6.743-18.035
	c2.537-6.797,5.453-14.669,8.756-23.625c0.423-0.757,1.161-1.35,2.233-1.804c1.721-0.721,3.876-1.388,6.413-1.981l2.398-0.562
	l0.857-11.597h-41.444L605.132,54.667z"/>
<path fill="#F8F7F1" d="M825.509,67.947c0-2.205,0.023-4.293,0.067-6.255c0.045-1.922,0.135-3.783,0.267-5.577
	c0.134-1.804,0.298-3.57,0.5-5.307c0.199-1.718,0.454-3.5,0.763-5.292l0.414-2.424l-6.228-3.199l-1.521,0.758
	c-1.51,0.754-3.026,1.401-4.51,1.924c-1.486,0.522-3.146,0.995-4.935,1.398c-1.873,0.425-3.975,0.847-6.295,1.271
	c-2.378,0.436-5.126,0.949-8.241,1.543l-2.721,0.521v10.311l2.535,0.636c1.351,0.337,2.664,0.742,3.901,1.193
	c0.981,0.361,1.816,0.858,2.555,1.513c0.671,0.597,1.232,1.434,1.673,2.487c0.463,1.111,0.696,2.665,0.696,4.63v28.267
	c0,2.49-0.146,4.443-0.438,5.8c-0.211,0.991-0.56,1.752-1.025,2.255c-0.517,0.559-1.292,1.021-2.304,1.385
	c-1.437,0.512-3.334,1.082-5.646,1.695l-2.494,0.659v11.545h45.442v-11.45l-12.458-3.768L825.509,67.947L825.509,67.947
	L825.509,67.947z"/>
<path fill="#F8F7F1" d="M804.833,29.181c1.133,1.165,2.515,2.096,4.11,2.771c1.595,0.677,3.369,1.019,5.275,1.019
	c1.832,0,3.635-0.306,5.349-0.908c1.75-0.609,3.327-1.506,4.689-2.656c1.384-1.172,2.501-2.578,3.321-4.188
	c0.853-1.682,1.286-3.562,1.286-5.593c0-1.836-0.351-3.554-1.048-5.102c-0.687-1.527-1.628-2.847-2.812-3.942
	c-1.164-1.064-2.547-1.9-4.104-2.479c-1.531-0.571-3.156-0.862-4.831-0.862c-2.351,0-4.473,0.384-6.312,1.146
	c-1.812,0.749-3.368,1.733-4.627,2.932c-1.309,1.252-2.292,2.701-2.927,4.317c-0.607,1.553-0.915,3.126-0.915,4.68
	c0,1.708,0.314,3.341,0.933,4.858C802.836,26.683,803.715,28.035,804.833,29.181z"/>
<path fill="#F8F7F1" d="M920.843,54.518V43.175h-35.381v11.44l7.752,2.382l-14.062,34.215l-13.696-34.088
	c0.089-0.036,0.182-0.072,0.278-0.107c1.312-0.498,3.058-1.086,5.187-1.752l2.177-0.68l0.844-11.414h-41.318V54.34l10.198,4.408
	l0.181,0.139l23.141,49.779l4.668,12.5l11.389,1.953l2.964-7.742l22.968-52.22c0.758-1.603,1.414-2.835,1.944-3.661
	c0.408-0.63,0.862-1.145,1.353-1.527c0.506-0.392,1.218-0.749,2.11-1.066c1.208-0.423,2.865-0.974,4.97-1.645L920.843,54.518z"/>
<path fill="#F8F7F1" d="M976.116,98.007c-2.379,0.896-4.713,1.705-6.944,2.402c-2.238,0.705-4.329,1.311-6.234,1.809
	c-2.019,0.548-3.956,1.058-5.819,1.525c-1.121-0.019-2.366-0.111-3.702-0.277c-1.37-0.172-2.771-0.528-4.181-1.072
	c-1.366-0.521-2.744-1.296-4.089-2.293c-1.25-0.928-2.375-2.201-3.356-3.795c-1.024-1.657-1.854-3.746-2.478-6.208
	c-0.431-1.709-0.694-3.69-0.791-5.927h44.358l0.292-3.03c0.095-1.007,0.169-1.966,0.218-2.868c0.046-0.802,0.08-1.645,0.105-2.532
	c0.021-0.786,0.053-1.475,0.104-2.241c0.094-4.565-0.33-8.787-1.261-12.548c-0.979-3.933-2.616-7.376-4.868-10.231
	c-2.298-2.915-5.273-5.182-8.852-6.746c-3.491-1.529-7.71-2.302-12.532-2.302c-5.856,0-11.214,1.121-15.93,3.328
	c-4.691,2.194-8.751,5.21-12.071,8.959c-3.297,3.715-5.881,8.077-7.688,12.974c-1.791,4.853-2.747,10.032-2.841,15.38
	c-0.143,5.936,0.501,11.361,1.917,16.13c1.463,4.915,3.792,9.155,6.932,12.599c3.152,3.459,7.149,6.135,11.882,7.953
	c4.63,1.783,10.138,2.689,16.362,2.689h0.432l0.42-0.109c2.021-0.533,4.05-1.176,6.039-1.918c1.977-0.74,4.033-1.599,6.114-2.559
	c2.046-0.941,4.233-2.03,6.498-3.232c2.214-1.175,4.589-2.477,7.125-3.908l2.544-1.435l-4.611-11.673L976.116,98.007z
	 M952.091,55.857l0.367,0.005c1.854,0.054,3.396,0.481,4.717,1.307c1.299,0.811,2.304,1.975,3.078,3.559
	c0.819,1.671,1.234,3.826,1.234,6.399c0,0.697-0.113,1.35-0.341,1.993c-0.459,0.054-1.041,0.116-1.752,0.181
	c-1.209,0.114-2.854,0.233-4.933,0.37c-2.101,0.135-4.739,0.27-7.903,0.407c-2.269,0.098-4.89,0.171-7.823,0.223
	c0.2-1.646,0.516-3.119,0.945-4.395c0.723-2.147,1.532-3.889,2.403-5.178c1.044-1.542,1.859-2.316,2.362-2.694
	c1.025-0.777,1.416-0.939,1.493-0.966C948.124,56.264,950.197,55.857,952.091,55.857z"/>
<path fill="#F8F7F1" d="M1022.954,64.302c1.2-0.642,2.537-1.257,3.966-1.827c1.393-0.552,2.891-1.023,4.442-1.396
	c1.298-0.314,2.59-0.506,3.778-0.573c0.019,0.022,0.038,0.047,0.056,0.07c0.064,0.151,0.13,0.293,0.189,0.42l1.775,12.149h13.677
	l2.22-30.412l-2.886-0.589c-2.193-0.448-4.493-0.7-6.813-0.751l-0.832-0.009c-1.766,0-3.675,0.138-5.665,0.417
	c-2.501,0.345-4.896,1.087-7.133,2.204l-0.262,0.146c-1.627,1.006-3.264,2.121-4.867,3.314c-0.861,0.643-1.678,1.267-2.447,1.867
	l0.468-6.189l-6.207-3.261l-1.537,0.769c-2.546,1.271-4.653,2.314-6.332,3.13c-1.606,0.782-3.185,1.465-4.687,2.036
	c-1.51,0.574-3.206,1.098-5.044,1.564c-1.917,0.486-4.421,1.021-7.437,1.597l-2.724,0.518v10.297l2.512,0.648
	c1.345,0.349,2.679,0.74,4.006,1.174c1.023,0.332,1.939,0.811,2.729,1.419c0.667,0.514,1.213,1.249,1.67,2.242
	c0.473,1.02,0.72,2.558,0.72,4.446v26.626c0,2.509-0.102,4.487-0.308,5.875c-0.134,0.915-0.395,1.601-0.775,2.044
	c-0.427,0.503-1.127,0.941-2.08,1.309c-1.372,0.528-3.314,1.184-5.773,1.945l-2.359,0.73v11.432h48.522v-11.621l-16.153-3.768
	V65.167C1021.857,64.896,1022.388,64.603,1022.954,64.302z"/>
<path fill="#F8F7F1" d="M281.336,96.748c-0.222,0.699-0.45,1.34-0.689,1.916c-0.139,0.33-0.266,0.625-0.388,0.879
	c-0.63,0.611-1.326,1.248-2.089,1.902c-0.79,0.68-1.728,1.312-2.783,1.879c-1.068,0.572-2.297,1.059-3.652,1.443
	c-2.952,0.842-6.981,0.648-10.889,0.047c-2.268-0.352-4.469-0.791-6.544-1.311c-2.099-0.523-4.005-1.084-5.674-1.662
	c-1.553-0.537-2.777-1.021-3.639-1.44c-0.116-0.073-0.238-0.163-0.373-0.265c0,0-0.092-0.071-0.272-0.293
	c-0.027-0.034-0.167-0.217-0.387-0.709c-0.133-0.303-0.348-0.862-0.614-1.817l-3.342-18.296l-13.604-0.236l-3.598,32.625
	l2.033,1.061c2.269,1.183,4.703,2.316,7.241,3.375c2.56,1.068,5.213,2.017,7.888,2.82c2.686,0.808,5.416,1.459,8.117,1.937
	c2.761,0.489,5.434,0.735,7.94,0.735c5.986,0,11.768-0.551,17.188-1.639c5.585-1.119,10.591-3.014,14.875-5.625
	c4.431-2.699,7.998-6.33,10.599-10.791c2.62-4.494,3.946-10.023,3.946-16.438c0-5.133-0.957-9.567-2.844-13.186
	c-1.853-3.549-4.337-6.579-7.388-9.008c-2.92-2.327-6.271-4.294-9.959-5.842c-3.479-1.46-7.095-2.817-10.753-4.028
	c-3.567-1.18-7.051-2.363-10.458-3.543c-3.165-1.098-6.014-2.447-8.473-4.011c-2.279-1.445-4.128-3.233-5.502-5.315
	c-1.265-1.915-1.907-4.437-1.907-7.493c0-1.549,0.159-2.815,0.477-3.769c0.334-1.004,0.729-1.846,1.174-2.501
	c0.462-0.687,0.949-1.263,1.451-1.714c0.637-0.574,1.217-1.164,1.729-1.761c1.144-0.563,2.525-0.972,4.123-1.213
	c2.08-0.317,4.431-0.476,6.993-0.476c3.026,0,5.787,0.272,8.204,0.81c2.426,0.54,4.52,1.159,6.226,1.838
	c0.446,0.228,0.847,0.462,1.211,0.708c0.209,0.142,0.414,0.34,0.613,0.594c0.223,0.286,0.426,0.647,0.607,1.079
	c0.215,0.511,0.418,1.2,0.619,2.117l3.354,14.001h13.081l2.441-33.336l-3.103-0.437c-2.561-0.359-4.843-0.742-6.792-1.132
	c-2.079-0.416-4.084-0.792-6.022-1.142c-2.002-0.357-4.092-0.646-6.212-0.857c-4.803-0.483-11.433-0.472-17.57,0.392
	c-3.413,0.48-6.744,1.239-9.897,2.248c-3.208,1.027-6.24,2.374-9.017,3.994c-2.854,1.665-5.387,3.698-7.528,6.042
	c-2.176,2.382-3.907,5.135-5.147,8.184c-1.253,3.083-1.89,6.572-1.89,10.368c0,5.336,0.947,9.946,2.813,13.707
	c1.836,3.697,4.312,6.899,7.356,9.507c2.938,2.52,6.311,4.657,10.029,6.358c3.533,1.614,7.18,3.09,10.845,4.388
	c3.594,1.273,7.112,2.538,10.546,3.787c3.218,1.174,6.117,2.558,8.619,4.113c2.309,1.438,4.174,3.178,5.543,5.176
	c1.264,1.84,1.877,4.141,1.877,7.034c0,0.642-0.072,1.319-0.209,2.009C281.738,95.322,281.55,96.063,281.336,96.748z"/>
<path fill="#F8F7F1" d="M316.987,115.858c2.259,1.782,4.833,3.116,7.641,3.96c5.344,1.618,11.002,1.473,15.101,0.583
	c2.064-0.45,4.04-1.163,5.864-2.118c1.743-0.906,3.551-2.09,5.374-3.511c0.409-0.317,0.83-0.651,1.269-1.001
	c0.459,1.35,1.09,2.516,1.9,3.52c2.032,2.502,5.234,3.771,9.518,3.771c1.493,0,3.061-0.157,4.648-0.474
	c1.44-0.282,2.905-0.621,4.356-1.008c1.45-0.386,2.842-0.815,4.132-1.279c1.254-0.447,2.355-0.862,3.303-1.242l2.104-0.846v-7.948
	c0-0.863,0-3.488-4.993-3.488c-0.936,0-1.986-0.079-3.131-0.241c-0.835-0.119-1.615-0.336-2.348-0.677V64.733
	c0-4.078-0.47-7.591-1.396-10.448c-1.015-3.125-2.698-5.692-5.006-7.628c-2.232-1.868-5.069-3.197-8.436-3.952
	c-3.083-0.691-6.84-1.039-11.169-1.039c-0.933,0-2.111,0.159-3.603,0.491c-1.328,0.298-2.827,0.697-4.458,1.195
	c-1.604,0.49-3.336,1.047-5.192,1.672c-1.857,0.625-3.725,1.288-5.604,1.986c-1.884,0.697-3.734,1.42-5.55,2.164
	c-1.793,0.738-3.447,1.428-4.965,2.071l-1.824,0.775l-2.015,19.762h17.132l0.73-2.362c0.745-2.411,1.488-4.549,2.204-6.358
	c0.626-1.573,1.354-2.884,2.168-3.894c0.681-0.848,1.472-1.452,2.419-1.854c1.039-0.437,2.441-0.66,4.125-0.66
	c3.361,0.049,5.195,0.435,6.143,0.75c1.521,0.51,2.155,1.026,2.396,1.285c0.356,0.386,0.549,0.778,0.615,1.26
	c0.139,1.015,0.209,2.094,0.209,3.208v7.83c-5.125,1.246-9.64,2.43-13.457,3.529c-4.519,1.304-8.412,2.609-11.572,3.873
	c-3.276,1.312-5.991,2.672-8.069,4.049c-2.214,1.468-3.971,3.077-5.224,4.774c-1.307,1.77-2.192,3.711-2.634,5.77
	c-0.392,1.82-0.589,3.833-0.589,5.975c0,3.769,0.748,7.119,2.227,9.961C312.78,111.703,314.683,114.042,316.987,115.858z
	 M340.316,104.229c-1.501,0-2.925-0.163-4.234-0.487c-1.13-0.277-2.097-0.707-2.877-1.287c-0.724-0.535-1.283-1.203-1.709-2.043
	c-0.417-0.816-0.628-1.883-0.628-3.166c0-1.504,0.28-2.752,0.829-3.718c0.609-1.071,1.41-1.958,2.446-2.712
	c1.162-0.841,2.53-1.564,4.065-2.137c1.715-0.646,3.521-1.221,5.37-1.717c1.938-0.516,3.879-1.014,5.817-1.487
	c0.427-0.106,0.847-0.214,1.261-0.322v14.296c-1.436,1.229-3.006,2.315-4.693,3.238C344.07,103.723,342.223,104.229,340.316,104.229
	z"/>
<path fill="#F8F7F1" d="M556.165,107.514c-0.691-0.204-1.42-0.46-2.182-0.759c-0.786-0.311-1.517-0.627-2.205-0.965
	c-0.634-0.309-1.208-0.621-1.723-0.945c-0.163-0.102-0.284-0.188-0.375-0.25c-0.016-0.047-0.029-0.1-0.045-0.16
	c-0.098-0.391-0.104-0.553-0.104-0.553v-75.78c0.044-2.453,0.09-4.553,0.134-6.3c0.047-1.737,0.103-3.405,0.172-5.014
	c0.064-1.583,0.165-3.243,0.299-4.979c0.14-1.767,0.318-3.868,0.542-6.313l0.203-2.183L544.891,0l-1.535,0.697
	c-1.97,0.894-3.793,1.694-5.473,2.385c-1.627,0.673-3.347,1.313-5.122,1.903c-1.763,0.589-3.734,1.164-5.866,1.715
	c-2.188,0.565-4.767,1.182-7.744,1.859l-2.607,0.594v10.42l2.697,0.537c1.329,0.266,2.467,0.51,3.416,0.729
	c0.682,0.159,1.349,0.418,2.106,0.83c1.351,0.674,1.995,1.284,2.293,1.675c0.488,0.636,0.825,1.319,1.028,2.077
	c0.244,0.909,0.366,1.918,0.366,3.004v14.33c-0.919-0.152-1.878-0.306-2.872-0.462c-5.287-0.822-10.88-0.954-16.643,0.391
	c-2.868,0.667-5.688,1.656-8.386,2.943c-2.701,1.288-5.309,2.917-7.746,4.838c-2.488,1.958-4.715,4.275-6.572,6.821
	c-2.653,3.458-4.705,7.534-6.096,12.126c-1.366,4.516-2.062,9.623-2.062,15.171c0,2.646,0.247,5.385,0.736,8.149
	c0.493,2.79,1.267,5.538,2.303,8.165c1.049,2.676,2.414,5.244,4.051,7.62c1.697,2.47,3.741,4.644,6.073,6.463
	c2.354,1.833,5.089,3.312,8.135,4.384c3.062,1.082,6.487,1.629,10.185,1.629c2.933,0,6.472-0.976,10.816-2.979
	c2.659-1.228,5.578-2.958,8.716-5.165c0.019,0.213,0.039,0.417,0.057,0.605c0.094,1.215,0.22,2.334,0.362,3.356l0.409,2.881h28.642
	v-11.465L556.165,107.514z M520.243,101.046c-1.808,0.668-3.573,1.219-5.242,1.641c-3.583,0.9-5.479,0.814-7.648-0.764
	c-1.433-1.039-2.727-2.561-3.851-4.528c-1.207-2.117-2.197-4.718-2.941-7.729c-0.75-3.053-1.133-6.467-1.133-10.148
	c0-4.452,0.446-8.218,1.333-11.196c0.852-2.871,1.974-5.176,3.327-6.854c1.303-1.611,2.721-2.723,4.337-3.397
	c1.62-0.678,3.251-1.007,4.986-1.007l0.234,0.002c3.32,0.083,6.479,0.516,9.387,1.289c2.062,0.552,3.879,1.177,5.417,1.871v37.124
	c-0.88,0.475-1.842,0.965-2.875,1.453C523.841,99.626,522.047,100.38,520.243,101.046z"/>
<path fill="#F8F7F1" d="M474.918,107.442c-0.609-0.124-1.486-0.364-2.63-0.708c-1.239-0.375-2.5-0.785-3.813-1.238
	c-0.821-0.275-1.683-0.57-2.573-0.883l-0.063-39.638c0-2.339-0.137-4.589-0.404-6.689c-0.287-2.253-0.852-4.386-1.671-6.347
	c-0.907-2.168-2.288-4.049-4.097-5.595c-1.77-1.516-4.056-2.694-6.799-3.506c-2.644-0.787-5.786-1.166-9.614-1.166
	c-1.456,0-2.95,0.133-4.449,0.394c-1.375,0.241-2.657,0.51-3.845,0.798c-1.2,0.294-2.262,0.589-3.186,0.882
	c-0.85,0.266-1.495,0.467-1.942,0.602l-0.687,0.292c-1.784,1.008-3.559,2.012-5.314,3.02c-1.499,0.856-2.889,1.644-4.176,2.373
	l0.559-6.871l-6.234-3.279l-1.55,0.793c-1.642,0.845-3.087,1.554-4.332,2.133c-1.212,0.562-2.335,1.05-3.382,1.461
	c-1.027,0.409-2.035,0.773-3.019,1.096c-0.974,0.317-2.028,0.608-3.167,0.884c-1.188,0.287-2.521,0.572-3.995,0.858l-8.155,1.59
	v10.309l2.541,0.631c1.372,0.342,2.717,0.732,3.991,1.159c1.011,0.338,1.88,0.798,2.649,1.403c0.641,0.505,1.183,1.254,1.616,2.221
	c0.322,0.719,0.703,2.085,0.703,4.49v27.448c0,2.536-0.095,4.525-0.281,5.926c-0.12,0.912-0.371,1.627-0.726,2.068
	c-0.37,0.458-1.039,0.885-1.947,1.232c-1.387,0.535-3.331,1.188-5.773,1.945l-2.363,0.73v11.433h43.139v-11.688l-10.975-3.489
	v-40.13c0.543-0.301,1.138-0.612,1.775-0.931c1.261-0.632,2.684-1.217,4.228-1.739c1.556-0.522,3.222-0.975,4.946-1.331
	c3.279-0.678,6.899-0.562,9.29-0.353c1.09,0.096,2.023,0.239,2.766,0.425c0.744,0.185,1.17,0.385,1.397,0.519
	c0.335,0.2,0.646,0.42,0.951,0.677c0.047,0.101,0.125,0.286,0.21,0.581c0.165,0.581,0.246,1.151,0.246,1.747V96.22
	c0,2.076-0.011,3.791-0.034,5.143c-0.02,1.184-0.096,2.145-0.223,2.854c-0.078,0.426-0.173,0.576-0.173,0.576s0,0,0.002,0
	c-0.046,0.055-0.231,0.25-0.734,0.496c-0.602,0.289-1.445,0.584-2.516,0.871c-1.299,0.348-2.899,0.799-4.796,1.355l-1.686,0.496
	v11.682h43.008v-11.705L474.918,107.442z"/>
<path fill="#F8F7F1" d="M787.819,109.807c-1.502-0.56-3.092-1.369-4.75-2.44c-2.104-1.359-4.261-3.011-6.417-4.902
	c-2.188-1.926-4.436-4.121-6.679-6.518c-2.245-2.396-4.468-4.969-6.616-7.654c-1.482-1.832-2.884-3.74-4.159-5.666
	c-1.285-1.941-2.474-3.885-3.528-5.771c-1.069-1.917-2.016-3.725-2.824-5.38c-0.152-0.318-0.303-0.622-0.443-0.923
	c2.402-0.898,4.688-2.135,6.831-3.688c3.187-2.316,6.004-5.133,8.366-8.367c2.351-3.215,4.221-6.776,5.555-10.583
	c1.352-3.855,2.039-7.773,2.039-11.653c0-4.832-0.837-9.15-2.483-12.832c-1.663-3.717-4.01-6.851-6.975-9.319
	c-2.915-2.424-6.42-4.261-10.421-5.46c-3.879-1.159-8.151-1.747-12.7-1.747c-3.008,0-5.608,0.036-7.808,0.104
	c-2.195,0.07-4.146,0.15-5.856,0.243c-1.754,0.095-3.304,0.214-4.654,0.356c-1.265,0.133-2.496,0.241-3.696,0.33
	c-1.205,0.09-2.439,0.168-3.697,0.233c-1.225,0.066-2.576,0.098-4.06,0.098h-22.241v11.34l11.291,3.628v73.94
	c0,2.355-0.138,4.207-0.409,5.512c-0.19,0.918-0.503,1.615-0.923,2.068c-0.476,0.512-1.188,0.943-2.131,1.279
	c-1.374,0.492-3.167,1.026-5.321,1.586l-2.509,0.651v11.353h45.647v-11.31l-12.867-3.56V72.836c1.633,0.187,3.085,0.332,4.376,0.439
	c1.385,0.116,2.68,0.205,3.873,0.268c0.775,1.638,1.524,3.258,2.251,4.861c1.013,2.229,2.021,4.414,3.034,6.549
	c1.015,2.149,2.087,4.293,3.181,6.364c1.113,2.106,2.318,4.194,3.616,6.259c1.548,2.369,3.041,4.659,4.479,6.866
	c1.522,2.347,3.168,4.519,4.888,6.461c1.81,2.035,3.83,3.796,6.004,5.229c2.308,1.519,4.945,2.559,7.755,3.08
	c1.642,0.347,3.359,0.586,5.11,0.713c1.648,0.117,3.323,0.176,4.881,0.176c0.019,0,0.037,0,0.051,0
	c1.625,0.047,3.438,0.07,5.436,0.07h5.51v-10.365L787.819,109.807L787.819,109.807z M749.48,53.847
	c-0.753,0.971-1.544,1.868-2.363,2.675c-1.465,0.757-3.154,1.361-5.023,1.799c-2.176,0.506-4.498,0.859-6.9,1.051
	c-2.411,0.194-4.886,0.212-7.368,0.065c-1.52-0.091-3.009-0.234-4.446-0.431V32.427c0-2.932,0.098-5.357,0.29-7.216
	c0.138-1.352,0.462-2.405,0.935-3.038c0.37-0.506,1.016-0.868,1.957-1.108c1.443-0.363,3.55-0.548,6.268-0.548
	c3.125,0,6.035,0.447,8.645,1.332c2.526,0.856,4.722,2.097,6.521,3.682c1.793,1.584,3.161,3.479,4.185,5.789
	c1.013,2.297,1.527,4.975,1.527,7.958c0,2.358-0.193,4.458-0.576,6.246c-0.38,1.781-0.889,3.378-1.518,4.749
	C750.99,51.622,750.271,52.827,749.48,53.847z"/>
<g>
	<path fill="#F8F7F1" d="M1203.256,33.597c0-2.445,0.172-4.351,0.51-5.667c0.254-0.989,0.644-1.721,1.191-2.244
		c0.646-0.62,1.549-1.128,2.67-1.516c1.525-0.518,3.475-1.094,5.797-1.709l2.495-0.659V10.255h-45.991v11.404l11.842,3.835v31.375
		h-42.853V33.597c0-2.445,0.173-4.351,0.509-5.667c0.256-0.989,0.653-1.75,1.188-2.272c0.615-0.602,1.499-1.102,2.628-1.481
		c1.553-0.521,3.502-1.101,5.791-1.721l2.479-0.667V10.255h-45.922v11.404l11.841,3.835v72.851c0,2.486-0.146,4.439-0.438,5.798
		c-0.217,1.008-0.559,1.778-1.021,2.287c-0.484,0.536-1.246,0.989-2.26,1.351c-1.461,0.512-3.359,1.086-5.64,1.704l-2.479,0.667
		v11.531h46.741v-11.501l-13.414-3.767V71.786h42.853v26.559c0,2.49-0.146,4.441-0.439,5.803c-0.215,1.005-0.559,1.773-1.021,2.283
		c-0.484,0.535-1.247,0.99-2.263,1.35c-1.461,0.514-3.358,1.088-5.642,1.704l-2.479,0.667v11.532h46.812V110.18l-13.482-3.769
		V33.597H1203.256z"/>
	<path fill="#F8F7F1" d="M1283.784,52.69c-3.16-3.085-7.064-5.401-11.605-6.882c-4.381-1.424-9.383-2.148-14.862-2.148
		c-5.167,0-10.191,1.011-14.922,3c-4.729,1.994-8.949,4.855-12.552,8.506c-3.601,3.651-6.5,8.113-8.616,13.262
		c-2.121,5.155-3.196,10.984-3.196,17.328c0,6.209,0.973,11.717,2.887,16.367c1.937,4.701,4.646,8.67,8.054,11.801
		c3.396,3.115,7.426,5.471,11.978,7.004c4.454,1.502,9.294,2.265,14.383,2.265c5.24,0,10.234-1.042,14.85-3.097
		c4.603-2.051,8.688-5.018,12.137-8.814c3.42-3.77,6.152-8.357,8.12-13.646c1.957-5.26,2.946-11.188,2.946-17.629
		c0-5.965-0.799-11.259-2.381-15.729C1289.375,59.673,1286.946,55.775,1283.784,52.69z M1270.665,84.52
		c0,3.073-0.208,6.192-0.621,9.272c-0.393,2.933-1.098,5.613-2.094,7.967c-0.931,2.199-2.146,3.943-3.718,5.332
		c-1.376,1.214-3.123,1.871-5.354,2.004c-3.609,0.23-6.592-0.254-8.801-1.448c-2.262-1.226-4.014-2.914-5.354-5.167
		c-1.428-2.395-2.448-5.307-3.032-8.652c-0.627-3.555-0.943-7.4-0.943-11.431c0-3.308,0.207-6.559,0.621-9.655
		c0.389-2.927,1.096-5.551,2.1-7.801c0.926-2.072,2.161-3.761,3.672-5.021c1.364-1.139,3.147-1.758,5.428-1.896
		c0.504-0.029,0.998-0.043,1.48-0.043c2.934,0,5.393,0.515,7.301,1.534c2.263,1.207,4.013,2.865,5.351,5.073
		c1.422,2.349,2.438,5.219,3.023,8.533C1270.349,76.658,1270.665,80.494,1270.665,84.52z"/>
	<path fill="#F8F7F1" d="M1492.903,100.001c-2.377,0.896-4.712,1.705-6.941,2.4c-2.242,0.705-4.33,1.312-6.236,1.811
		c-2.018,0.547-3.957,1.057-5.819,1.523c-1.121-0.018-2.365-0.113-3.701-0.277c-1.369-0.172-2.772-0.528-4.182-1.072
		c-1.366-0.521-2.744-1.297-4.091-2.295c-1.248-0.928-2.375-2.2-3.354-3.793c-1.024-1.657-1.858-3.746-2.479-6.209
		c-0.43-1.709-0.694-3.689-0.791-5.926h44.357l0.289-3.031c0.097-1.006,0.17-1.965,0.221-2.867c0.043-0.803,0.08-1.645,0.104-2.532
		c0.022-0.787,0.055-1.475,0.106-2.242c0.093-4.564-0.33-8.787-1.264-12.548c-0.979-3.934-2.615-7.377-4.867-10.232
		c-2.296-2.912-5.274-5.18-8.852-6.744c-3.492-1.529-7.71-2.301-12.531-2.301c-5.855,0-11.216,1.12-15.933,3.327
		c-4.688,2.194-8.75,5.211-12.067,8.96c-3.299,3.714-5.885,8.078-7.689,12.973c-1.788,4.854-2.747,10.035-2.839,15.38
		c-0.144,5.938,0.499,11.363,1.915,16.132c1.463,4.915,3.795,9.155,6.933,12.599c3.15,3.459,7.15,6.131,11.883,7.953
		c4.631,1.783,10.138,2.688,16.361,2.688h0.432l0.42-0.109c2.021-0.531,4.052-1.175,6.039-1.917
		c1.975-0.739,4.032-1.599,6.113-2.562c2.046-0.938,4.232-2.028,6.499-3.229c2.214-1.175,4.589-2.478,7.122-3.907l2.548-1.436
		l-4.612-11.674L1492.903,100.001z M1468.877,57.85l0.367,0.003c1.854,0.054,3.397,0.483,4.72,1.307
		c1.298,0.812,2.304,1.977,3.078,3.561c0.817,1.67,1.233,3.824,1.233,6.397c0,0.699-0.111,1.35-0.341,1.995
		c-0.461,0.053-1.043,0.115-1.752,0.18c-1.211,0.114-2.854,0.233-4.932,0.369c-2.104,0.137-4.739,0.27-7.905,0.406
		c-2.269,0.098-4.889,0.173-7.824,0.223c0.2-1.646,0.518-3.119,0.946-4.394c0.724-2.147,1.533-3.891,2.404-5.18
		c1.043-1.542,1.859-2.317,2.361-2.694c1.024-0.775,1.416-0.938,1.493-0.966C1464.913,58.256,1466.985,57.85,1468.877,57.85z"/>
	<path fill="#F8F7F1" d="M1651.094,109.356c-2.104-1.358-4.26-3.008-6.418-4.901c-2.188-1.927-4.434-4.121-6.676-6.517
		c-2.247-2.397-4.469-4.97-6.618-7.653c-1.48-1.834-2.882-3.742-4.159-5.668c-1.286-1.941-2.474-3.882-3.526-5.771
		c-1.07-1.913-2.018-3.724-2.823-5.379c-0.154-0.317-0.304-0.62-0.446-0.923c2.404-0.896,4.689-2.132,6.832-3.689
		c3.188-2.317,6.002-5.131,8.367-8.366c2.35-3.215,4.221-6.777,5.554-10.585c1.352-3.853,2.038-7.772,2.038-11.65
		c0-4.833-0.837-9.152-2.482-12.833c-1.661-3.715-4.008-6.851-6.975-9.318c-2.915-2.423-6.42-4.26-10.421-5.46
		c-3.88-1.16-8.151-1.748-12.7-1.748c-3.008,0-5.606,0.036-7.807,0.106c-2.195,0.068-4.146,0.149-5.857,0.24
		c-1.755,0.096-3.304,0.215-4.654,0.358c-1.264,0.134-2.493,0.241-3.694,0.331c-1.205,0.09-2.439,0.167-3.697,0.231
		c-1.225,0.068-2.576,0.1-4.059,0.1h-22.242v11.338l11.295,3.628v73.941c0,2.354-0.141,4.207-0.412,5.513
		c-0.189,0.918-0.503,1.614-0.923,2.069c-0.474,0.51-1.188,0.942-2.129,1.276c-1.375,0.494-3.165,1.026-5.321,1.587l-2.51,0.652
		v11.352h45.646v-11.309l-12.865-3.559V74.825c1.633,0.187,3.084,0.332,4.375,0.439c1.386,0.115,2.68,0.206,3.873,0.269
		c0.773,1.637,1.524,3.257,2.252,4.861c1.012,2.229,2.021,4.414,3.032,6.549c1.017,2.148,2.089,4.292,3.185,6.364
		c1.11,2.106,2.314,4.194,3.613,6.259c1.549,2.369,3.041,4.659,4.479,6.866c1.523,2.346,3.168,4.519,4.889,6.461
		c1.809,2.034,3.828,3.796,6.002,5.229c2.31,1.519,4.945,2.559,7.754,3.08c1.644,0.346,3.361,0.586,5.111,0.713
		c1.666,0.119,3.359,0.219,4.934,0.178c1.628,0.045,3.436,0.07,5.437,0.07h8.626l0.179-9.293l-2.401-0.75
		C1654.987,111.574,1653.086,110.644,1651.094,109.356z M1616.016,27.517c1.793,1.584,3.16,3.479,4.185,5.789
		c1.012,2.296,1.527,4.973,1.527,7.955c0,2.361-0.193,4.46-0.577,6.248c-0.379,1.781-0.889,3.378-1.517,4.747
		c-0.62,1.356-1.338,2.561-2.131,3.585c-0.753,0.969-1.546,1.867-2.362,2.675c-1.465,0.757-3.154,1.359-5.022,1.797
		c-2.177,0.508-4.498,0.862-6.902,1.054c-2.41,0.193-4.884,0.214-7.367,0.064c-1.521-0.093-3.01-0.234-4.446-0.431V34.421
		c0-2.932,0.099-5.357,0.29-7.216c0.14-1.351,0.463-2.405,0.933-3.04c0.371-0.504,1.018-0.866,1.961-1.107
		c1.441-0.363,3.549-0.549,6.266-0.549c3.125,0,6.035,0.448,8.646,1.332C1612.021,24.691,1614.218,25.929,1616.016,27.517z"/>
	<path fill="#F8F7F1" d="M1715.956,100.001c-2.377,0.896-4.713,1.705-6.941,2.4c-2.24,0.705-4.329,1.312-6.235,1.811
		c-2.019,0.547-3.957,1.057-5.819,1.523c-1.122-0.018-2.366-0.113-3.702-0.277c-1.371-0.172-2.772-0.528-4.18-1.072
		c-1.368-0.521-2.747-1.297-4.092-2.295c-1.248-0.928-2.375-2.2-3.356-3.793c-1.021-1.657-1.854-3.746-2.478-6.209
		c-0.429-1.709-0.695-3.689-0.791-5.926h44.356l0.291-3.031c0.099-1.006,0.17-1.965,0.22-2.867c0.045-0.803,0.082-1.645,0.105-2.532
		c0.021-0.787,0.054-1.475,0.104-2.242c0.095-4.564-0.327-8.787-1.263-12.548c-0.978-3.934-2.614-7.377-4.864-10.232
		c-2.299-2.912-5.276-5.18-8.854-6.744c-3.492-1.529-7.709-2.301-12.531-2.301c-5.854,0-11.216,1.12-15.93,3.327
		c-4.691,2.194-8.752,5.211-12.072,8.96c-3.297,3.714-5.883,8.078-7.688,12.973c-1.789,4.854-2.746,10.035-2.84,15.38
		c-0.144,5.938,0.5,11.363,1.916,16.132c1.463,4.915,3.795,9.155,6.933,12.599c3.151,3.459,7.151,6.131,11.88,7.953
		c4.631,1.783,10.14,2.688,16.363,2.688h0.432l0.42-0.109c2.021-0.531,4.051-1.175,6.039-1.917c1.975-0.739,4.033-1.599,6.113-2.562
		c2.046-0.938,4.232-2.028,6.5-3.229c2.213-1.175,4.589-2.478,7.121-3.907l2.549-1.436l-4.612-11.674L1715.956,100.001z
		 M1691.931,57.85l0.367,0.003c1.854,0.054,3.397,0.483,4.719,1.307c1.298,0.812,2.304,1.977,3.077,3.561
		c0.818,1.67,1.232,3.824,1.232,6.397c0,0.699-0.109,1.35-0.338,1.995c-0.461,0.053-1.044,0.115-1.751,0.18
		c-1.212,0.114-2.855,0.233-4.936,0.369c-2.102,0.137-4.737,0.27-7.902,0.406c-2.27,0.098-4.89,0.173-7.825,0.223
		c0.202-1.646,0.516-3.119,0.947-4.394c0.721-2.147,1.532-3.891,2.403-5.18c1.043-1.542,1.859-2.317,2.362-2.694
		c1.024-0.775,1.416-0.938,1.491-0.966C1687.962,58.256,1690.036,57.85,1691.931,57.85z"/>
	<path fill="#F8F7F1" d="M1803.18,58.073c-2.033-3.36-4.379-6.058-6.965-8.018c-2.49-1.887-4.979-3.326-7.401-4.279
		c-2.408-0.949-4.675-1.548-6.73-1.788c-1.925-0.223-3.326-0.329-4.287-0.329c-2.282,0-4.698,0.493-7.174,1.461
		c-2.227,0.871-4.453,1.928-6.615,3.144c-1.782,1.001-3.518,2.071-5.167,3.186c0.064-1.408,0.148-2.797,0.26-4.175l0.174-2.201
		l-6.096-3.207l-1.549,0.791c-1.8,0.921-3.566,1.77-5.249,2.525c-1.616,0.724-3.305,1.39-5.016,1.975
		c-1.713,0.586-3.497,1.111-5.309,1.564c-1.833,0.456-3.839,0.864-5.957,1.209l-2.812,0.458v10.417l2.562,0.618
		c1.485,0.36,2.838,0.697,4.049,1.009c0.78,0.204,1.426,0.515,1.969,0.952c0.42,0.336,0.783,0.902,1.068,1.685
		c0.249,0.681,0.549,2.03,0.549,4.596v63.31c0,2.253-0.095,4.05-0.275,5.354c-0.166,1.182-0.456,1.813-0.669,2.131
		c-0.254,0.385-0.645,0.697-1.188,0.959c-0.913,0.438-2.188,0.887-3.775,1.34l-2.441,0.689v11.498h44.76v-11.58l-15.331-3.834
		v-17.258c1.349,0.206,2.704,0.4,4.05,0.575c2.749,0.36,5.209,0.54,7.312,0.54c1.525,0,3.479-0.153,5.97-0.471
		c2.561-0.328,5.318-1.019,8.205-2.055c2.899-1.043,5.848-2.527,8.764-4.412c3.025-1.959,5.801-4.584,8.241-7.804
		c2.425-3.202,4.417-7.132,5.918-11.688c1.499-4.537,2.258-9.969,2.258-16.142c0-5.082-0.635-9.551-1.89-13.283
		C1806.182,63.931,1804.77,60.755,1803.18,58.073z M1765.77,64.026c1.869-0.728,3.801-1.371,5.737-1.91
		c3.622-1.003,6.19-1.184,8.606,0.753c1.481,1.19,2.805,2.865,3.929,4.98c1.202,2.263,2.156,4.962,2.841,8.021
		c0.695,3.12,1.047,6.488,1.047,10.016c0,3.324-0.289,6.469-0.86,9.342c-0.533,2.702-1.406,5.068-2.589,7.029
		c-1.108,1.828-2.51,3.215-4.28,4.236c-1.733,0.996-3.946,1.504-6.574,1.504c-2.998,0-5.959-0.426-8.807-1.266
		c-2.229-0.654-4.326-1.424-6.257-2.285V67.311c0.591-0.301,1.259-0.635,2-1C1762.125,65.535,1763.879,64.767,1765.77,64.026z"/>
	<path fill="#F8F7F1" d="M1882.061,106.768c-0.932,0-1.981-0.082-3.131-0.241c-0.834-0.119-1.61-0.339-2.345-0.677V66.723
		c0-4.072-0.469-7.588-1.396-10.448c-1.014-3.122-2.698-5.689-5.009-7.626c-2.23-1.869-5.069-3.197-8.434-3.953
		c-3.086-0.69-6.841-1.039-11.169-1.039c-0.936,0-2.112,0.158-3.601,0.492c-1.329,0.294-2.828,0.696-4.462,1.195
		c-1.602,0.49-3.334,1.044-5.188,1.671c-1.859,0.625-3.725,1.286-5.604,1.986c-1.887,0.697-3.731,1.418-5.549,2.162
		c-1.795,0.737-3.448,1.427-4.969,2.072l-1.821,0.774l-2.011,19.761h17.133l0.729-2.364c0.74-2.397,1.48-4.535,2.204-6.357
		c0.625-1.573,1.354-2.883,2.165-3.894c0.684-0.846,1.476-1.452,2.424-1.854c1.039-0.437,2.44-0.659,4.122-0.659
		c3.361,0.049,5.199,0.436,6.142,0.75c1.523,0.51,2.158,1.025,2.396,1.282c0.358,0.39,0.551,0.781,0.615,1.264
		c0.139,1.014,0.209,2.094,0.209,3.207v7.833c-5.134,1.247-9.649,2.43-13.458,3.527c-4.517,1.308-8.411,2.61-11.571,3.874
		c-3.275,1.309-5.992,2.67-8.068,4.049c-2.217,1.47-3.975,3.076-5.225,4.775c-1.308,1.768-2.193,3.709-2.638,5.771
		c-0.391,1.828-0.588,3.837-0.588,5.97c0,3.771,0.748,7.124,2.227,9.962c1.447,2.789,3.352,5.123,5.654,6.939
		c2.262,1.783,4.832,3.119,7.642,3.963c5.338,1.615,10.998,1.473,15.104,0.583c2.064-0.451,4.039-1.164,5.863-2.117
		c1.744-0.911,3.551-2.092,5.373-3.515c0.408-0.316,0.829-0.651,1.27-1c0.457,1.349,1.09,2.518,1.902,3.52
		c2.029,2.5,5.231,3.771,9.516,3.771c1.498,0,3.062-0.159,4.647-0.473c1.442-0.283,2.909-0.619,4.358-1.009
		c1.444-0.384,2.841-0.815,4.137-1.28c1.254-0.447,2.355-0.863,3.304-1.244l2.101-0.846v-7.947
		C1887.057,109.392,1887.057,106.768,1882.061,106.768z M1845.173,106.22c-1.501,0-2.925-0.164-4.233-0.488
		c-1.133-0.277-2.099-0.708-2.875-1.285c-0.729-0.539-1.287-1.205-1.715-2.041c-0.415-0.818-0.625-1.887-0.625-3.171
		c0-1.501,0.277-2.749,0.824-3.713c0.612-1.075,1.414-1.963,2.448-2.713c1.163-0.845,2.532-1.563,4.062-2.142
		c1.718-0.642,3.521-1.217,5.369-1.713c1.939-0.517,3.877-1.014,5.819-1.488c0.423-0.104,0.845-0.211,1.257-0.321v14.296
		c-1.432,1.227-3.008,2.312-4.693,3.238C1848.926,105.714,1847.081,106.22,1845.173,106.22z"/>
	<path fill="#F8F7F1" d="M1904.043,31.172c1.133,1.165,2.518,2.096,4.112,2.77c1.595,0.678,3.368,1.019,5.274,1.019
		c1.83,0,3.635-0.306,5.35-0.907c1.748-0.61,3.324-1.506,4.688-2.657c1.385-1.17,2.5-2.578,3.32-4.187
		c0.854-1.68,1.287-3.562,1.287-5.592c0-1.836-0.352-3.555-1.047-5.104c-0.688-1.525-1.629-2.846-2.813-3.941
		c-1.163-1.066-2.548-1.901-4.104-2.479c-1.532-0.574-3.156-0.862-4.832-0.862c-2.349,0-4.471,0.384-6.312,1.146
		c-1.811,0.75-3.365,1.732-4.625,2.933c-1.311,1.25-2.294,2.7-2.927,4.315c-0.61,1.553-0.917,3.125-0.917,4.682
		c0,1.706,0.314,3.339,0.936,4.856C1902.049,28.675,1902.927,30.026,1904.043,31.172z"/>
	<path fill="#F8F7F1" d="M1924.721,69.938c0-2.206,0.023-4.294,0.067-6.256c0.044-1.92,0.134-3.781,0.267-5.575
		c0.135-1.804,0.299-3.572,0.498-5.307c0.199-1.721,0.455-3.502,0.764-5.292l0.416-2.426l-6.229-3.198l-1.52,0.76
		c-1.512,0.752-3.027,1.399-4.512,1.922c-1.485,0.524-3.146,0.995-4.935,1.4c-1.873,0.423-3.974,0.847-6.295,1.27
		c-2.377,0.436-5.127,0.95-8.239,1.544l-2.722,0.521v10.312l2.534,0.636c1.35,0.337,2.664,0.741,3.902,1.194
		c0.98,0.361,1.814,0.857,2.557,1.512c0.666,0.596,1.229,1.435,1.67,2.485c0.462,1.111,0.695,2.667,0.695,4.63v28.269
		c0,2.492-0.146,4.443-0.436,5.799c-0.214,0.994-0.561,1.752-1.027,2.255c-0.516,0.558-1.291,1.024-2.303,1.386
		c-1.438,0.512-3.334,1.084-5.646,1.697l-2.491,0.658v11.543h45.44v-11.45l-12.457-3.767V69.938L1924.721,69.938z"/>
	<path fill="#F8F7F1" d="M1996.484,43.387l-0.832-0.01c-1.766,0-3.674,0.139-5.668,0.417c-2.495,0.345-4.893,1.087-7.129,2.204
		l-0.262,0.145c-1.629,1.005-3.266,2.121-4.867,3.315c-0.86,0.643-1.678,1.266-2.447,1.866l0.469-6.189l-6.208-3.261l-1.536,0.769
		c-2.546,1.271-4.654,2.314-6.333,3.13c-1.604,0.781-3.184,1.465-4.687,2.036c-1.51,0.573-3.204,1.097-5.045,1.562
		c-1.916,0.487-4.42,1.022-7.434,1.597l-2.725,0.518v10.296l2.512,0.649c1.344,0.349,2.678,0.739,4.006,1.172
		c1.023,0.334,1.939,0.813,2.729,1.42c0.666,0.514,1.212,1.249,1.67,2.243c0.473,1.019,0.72,2.558,0.72,4.446v26.627
		c0,2.509-0.103,4.488-0.31,5.875c-0.133,0.916-0.394,1.602-0.773,2.045c-0.426,0.504-1.127,0.941-2.08,1.309
		c-1.373,0.527-3.312,1.184-5.773,1.945l-2.359,0.73v11.432h48.523v-11.621l-16.151-3.766V67.161
		c0.485-0.282,1.016-0.575,1.584-0.877c1.198-0.641,2.532-1.257,3.965-1.826c1.392-0.552,2.887-1.022,4.438-1.396
		c1.299-0.314,2.592-0.506,3.78-0.573c0.017,0.021,0.036,0.047,0.054,0.069c0.066,0.152,0.131,0.293,0.191,0.42l1.773,12.149h13.678
		l2.221-30.412l-2.886-0.59C2001.107,43.689,1998.807,43.437,1996.484,43.387z"/>
	<path fill="#F8F7F1" d="M2066.247,86.742c-1.351-2.389-3.146-4.424-5.351-6.054c-2.075-1.53-4.457-2.785-7.069-3.734
		c-2.392-0.868-4.863-1.664-7.351-2.369l-7.115-2.021c-2.092-0.592-3.959-1.328-5.561-2.191c-1.393-0.747-2.514-1.67-3.34-2.746
		c-0.662-0.865-0.984-2.01-0.984-3.503c0-0.755,0.125-1.542,0.367-2.339c0.244-0.802,0.594-1.55,1.029-2.213
		c0.365-0.552,0.799-0.988,1.326-1.332c0.367-0.24,0.732-0.348,1.182-0.348c2.322,0,4.689,0.241,7.031,0.72
		c2.338,0.475,4.389,1.086,6.092,1.815c0.518,0.223,0.67,0.448,0.721,0.523c0.244,0.368,0.646,1.094,1.183,2.497l2.896,7.241h12.021
		l2.383-24.654l-3.201-0.426c-3.791-0.51-7.493-0.941-11.004-1.283c-3.598-0.351-7.395-0.528-11.276-0.528
		c-4.619,0-8.799,0.598-12.431,1.773c-3.739,1.212-6.944,2.997-9.543,5.303c-2.633,2.34-4.651,5.208-6.01,8.528
		c-1.324,3.243-1.994,6.906-1.994,10.879c0,3.503,0.713,6.52,2.123,8.965c1.353,2.344,3.158,4.336,5.373,5.914
		c2.063,1.469,4.438,2.703,7.047,3.666c2.406,0.889,4.898,1.699,7.402,2.408c2.389,0.676,4.748,1.377,7.067,2.098
		c2.105,0.653,3.984,1.451,5.588,2.373c1.421,0.815,2.521,1.783,3.367,2.955c0.703,0.977,1.043,2.26,1.043,3.928
		c0,0.685-0.098,1.304-0.295,1.89c-0.2,0.583-0.473,1.087-0.832,1.543c-0.289,0.366-0.637,0.646-1.057,0.858
		c-0.4,0.201-0.85,0.297-1.377,0.297c-1.686,0-3.303-0.035-4.85-0.102c-1.459-0.062-2.893-0.209-4.248-0.434
		c-1.373-0.23-2.752-0.537-4.096-0.915c-1.209-0.337-2.459-0.793-3.724-1.356c-0.084-0.06-0.194-0.15-0.319-0.264
		c-0.011-0.014-0.254-0.365-0.685-1.525l-3.369-9.662l-12.442-0.238l-3.035,22.955l2.176,1.057c1.701,0.829,3.67,1.629,5.848,2.377
		c2.146,0.741,4.392,1.395,6.674,1.941c2.263,0.539,4.545,0.984,6.791,1.322c2.297,0.34,4.422,0.514,6.314,0.514
		c4.133,0,8.1-0.473,11.801-1.402c3.854-0.969,7.277-2.551,10.178-4.699c2.974-2.201,5.351-5.07,7.064-8.527
		c1.707-3.442,2.572-7.614,2.572-12.405C2068.352,92.276,2067.645,89.224,2066.247,86.742z"/>
	<g>
		<path fill="#F8F7F1" d="M1434.417,109.94l-2.733-0.515c-0.433-0.08-1.271-0.27-2.804-0.713c-1.305-0.375-2.619-0.785-4-1.242
			c-0.889-0.282-1.817-0.584-2.787-0.909l-0.063-32.922c-0.047-2.258-0.068-4.483-0.068-6.673c0-2.35-0.146-4.611-0.441-6.73
			c-0.314-2.236-0.885-4.357-1.699-6.303c-0.905-2.16-2.266-4.039-4.044-5.583c-1.745-1.518-3.985-2.7-6.656-3.515
			c-2.545-0.78-5.684-1.172-9.331-1.172c-1.517,0-3.003,0.137-4.422,0.402c-1.287,0.244-2.488,0.511-3.613,0.802
			c-1.13,0.296-2.138,0.591-3.012,0.884c-0.788,0.262-1.398,0.458-1.831,0.591l-0.658,0.277c-1.645,0.915-3.366,1.879-5.155,2.886
			c-1.763,0.995-3.412,1.908-4.947,2.746l-2.518,1.364c-0.249-0.554-0.521-1.086-0.812-1.595c-1.033-1.802-2.457-3.365-4.233-4.644
			c-1.726-1.247-3.86-2.194-6.345-2.825c-2.338-0.592-5.159-0.888-8.379-0.888c-1.465,0-2.938,0.133-4.38,0.4
			c-1.319,0.244-2.532,0.513-3.645,0.807c-1.108,0.299-2.098,0.598-2.947,0.887c-0.752,0.257-1.342,0.45-1.77,0.58l-0.679,0.29
			c-1.788,1.006-3.56,2.013-5.321,3.021c-1.459,0.834-2.803,1.605-4.031,2.316l0.554-6.819l-6.222-3.265l-1.537,0.768
			c-2.58,1.292-4.725,2.384-6.428,3.284c-1.586,0.837-3.17,1.591-4.709,2.238c-1.471,0.624-3.144,1.198-4.964,1.708
			c-1.885,0.526-4.37,1.079-7.385,1.644l-2.734,0.511V62.36l2.534,0.637c1.382,0.343,2.746,0.738,4.052,1.164
			c1.021,0.335,1.938,0.812,2.729,1.42c0.655,0.507,1.185,1.226,1.619,2.201c0.324,0.72,0.703,2.083,0.703,4.488v26.077
			c0,2.511-0.103,4.49-0.311,5.877c-0.135,0.929-0.396,1.628-0.771,2.084c-0.396,0.477-1.09,0.912-2.009,1.268
			c-1.389,0.534-3.332,1.189-5.776,1.946l-2.36,0.731v11.432h42.868v-11.82l-10.566-3.359V66.387
			c0.531-0.289,1.11-0.586,1.736-0.888c1.274-0.617,2.703-1.199,4.242-1.728c1.513-0.516,3.14-0.949,4.834-1.284
			c3.13-0.618,6.727-0.549,8.95-0.328c0.972,0.095,1.775,0.233,2.403,0.407c0.498,0.138,0.892,0.302,1.179,0.485
			c0.31,0.197,0.605,0.43,0.89,0.697c0.045,0.088,0.13,0.282,0.229,0.627c0.163,0.566,0.243,1.136,0.243,1.737v32.102
			c0,2.076-0.01,3.783-0.032,5.109c-0.021,1.108-0.106,2.004-0.258,2.659c-0.109,0.479-0.228,0.647-0.228,0.647
			c-0.062,0.072-0.27,0.275-0.78,0.527c-0.606,0.307-1.434,0.612-2.443,0.918c-1.235,0.373-2.759,0.863-4.58,1.469l-1.151,0.383
			v11.76h41.509v-12.01l-1.306-0.246c-0.434-0.082-1.273-0.27-2.805-0.713c-1.306-0.377-2.618-0.785-3.999-1.242
			c-0.891-0.282-1.823-0.586-2.791-0.91l-0.062-32.17c0-1.704-0.01-3.419-0.035-5.143c-0.014-1.001-0.039-1.986-0.074-2.95
			c0.522-0.262,1.086-0.529,1.687-0.806c1.322-0.609,2.78-1.187,4.336-1.724c1.516-0.516,3.131-0.951,4.809-1.286
			c3.179-0.636,6.596-0.534,8.849-0.328c1.025,0.098,1.894,0.238,2.573,0.418c0.685,0.181,1.078,0.373,1.289,0.505
			c0.365,0.226,0.711,0.501,0.937,0.705c0,0,0.084,0.138,0.181,0.504c0.153,0.6,0.232,1.194,0.232,1.82v32.101
			c0,2.078-0.012,3.783-0.034,5.111c-0.02,1.107-0.107,2.004-0.257,2.658c-0.109,0.479-0.229,0.646-0.229,0.646
			c-0.062,0.074-0.268,0.277-0.781,0.529c-0.604,0.303-1.428,0.61-2.44,0.918c-1.246,0.375-2.754,0.867-4.534,1.477l-0.87,0.297
			v11.837h42.605V109.94H1434.417z"/>
	</g>
	<path fill="#F8F7F1" d="M2177.706,104.89l-32.971,1.759V34.61c0-2.923,0.307-4.573,0.562-5.441
		c0.291-0.982,0.703-1.706,1.262-2.215c0.66-0.603,1.582-1.103,2.74-1.483c1.547-0.508,3.488-1.049,5.771-1.61l2.666-0.654V11.302
		h-46.146v11.7l11.588,3.773v71.438c0,2.498-0.108,4.47-0.325,5.855c-0.148,0.934-0.41,1.633-0.781,2.078
		c-0.392,0.467-1.021,0.865-1.875,1.188c-1.334,0.5-3.131,1.055-5.342,1.648l-2.591,0.697v11.707h69.441l12.895,1.646l3.474-40.043
		h-14.064L2177.706,104.89z"/>
	<path fill="#F8F7F1" d="M2269.135,104.89l-32.973,1.759V34.61c0-2.924,0.307-4.572,0.564-5.443c0.291-0.98,0.7-1.704,1.26-2.213
		c0.66-0.603,1.584-1.102,2.744-1.483c1.539-0.507,3.479-1.048,5.77-1.61l2.666-0.654V11.302h-46.145v11.7l11.588,3.773v71.438
		c0,2.504-0.111,4.475-0.328,5.859c-0.146,0.93-0.41,1.629-0.781,2.074c-0.389,0.467-1.02,0.865-1.873,1.188
		c-1.334,0.5-3.131,1.053-5.342,1.648l-2.59,0.698v11.706h69.438l12.896,1.646l3.475-40.043h-14.064L2269.135,104.89z"/>
	<path fill="#F8F7F1" d="M2384.653,93.791l-3.064,1.25c-2.133,0.873-4.639,1.86-7.444,2.938c-2.777,1.067-5.496,2.078-8.08,3.005
		c-2.57,0.924-4.867,1.7-6.83,2.311c-2.312,0.72-2.982,0.781-3.002,0.785c-7.354,0-13.673-1.097-18.781-3.26
		c-5.037-2.133-9.189-5.097-12.34-8.812c-3.189-3.756-5.562-8.266-7.058-13.4c-1.539-5.288-2.317-11.136-2.317-17.382
		c0-2.419,0.2-4.974,0.6-7.593c0.398-2.625,1.006-5.25,1.803-7.808c0.787-2.529,1.807-5.012,3.033-7.381
		c1.121-2.165,2.443-4.176,3.936-5.984c2.429-1.592,5.259-2.865,8.42-3.784c3.371-0.98,6.886-1.478,10.443-1.478
		c2.451,0,4.896,0.098,7.26,0.292c2.291,0.188,4.533,0.525,6.656,1.003c2.084,0.47,4.094,1.102,5.971,1.876
		c1.386,0.572,2.699,1.281,3.925,2.113l3.479,16.141h13.521l3.981-31.209l-2.686-0.931c-3.461-1.2-7.229-2.277-11.209-3.203
		c-3.398-0.78-7.322-1.521-11.662-2.202c-4.449-0.699-9.199-1.053-14.119-1.053c-5.937,0-11.481,0.777-16.488,2.309
		c-4.993,1.53-9.598,3.682-13.68,6.395c-4.084,2.715-7.715,5.969-10.793,9.673c-3.049,3.668-5.633,7.712-7.68,12.021
		c-2.033,4.282-3.595,8.84-4.636,13.548c-1.039,4.697-1.563,9.496-1.563,14.264c0,4.541,0.492,9.088,1.461,13.518
		c0.979,4.461,2.492,8.758,4.5,12.775s4.541,7.799,7.527,11.239c3.028,3.489,6.633,6.53,10.713,9.041
		c4.059,2.497,8.666,4.476,13.694,5.882c5.027,1.404,10.638,2.117,16.675,2.117c0.666,0,1.791-0.057,3.545-0.178
		c1.922-0.133,4.412-0.705,7.612-1.746c3.039-0.99,6.857-2.59,11.351-4.758c4.496-2.166,9.922-5.324,16.129-9.387l2.557-1.673
		L2384.653,93.791z"/>
</g>
</svg>
