<svg version="1.1" id="Layer_1" xmlns="http://www.w3.org/2000/svg" xmlns:xlink="http://www.w3.org/1999/xlink" x="0px" y="0px"
	 width="500px" height="500px" viewBox="0 0 500 500" enable-background="new 0 0 500 500" xml:space="preserve">
<path fill="#d8d4c9" d="M331.28,54.82c-0.021-0.28-0.03-0.45-0.03-0.45S331.26,54.54,331.28,54.82z"/>
<path fill="#d8d4c9" d="M465.62,158.35c-0.44-1.95,12.14-3.6,10.63-5.01c-7.08-6.67-14.05-14.87-14.8-22.1
	c-0.2-1.85,14.2-3.62,12.93-4.98c-8.75-9.38-11.45-13.41-12.189-23.75c-0.29-4.09,11.439-6.43,8-8.93
	c-12.79-9.3-12.461-18.402-16.862-28.414c-0.161,9.5,0.422,21.093-15.408,31.514c-4.27,2.81,9.03,6.88,8.021,12.2
	c-1.011,5.25-11.25,12.38-18.44,17.69c-2.12,1.57,13.72,3.29,13.02,5.83c-1.779,6.43-10.109,20.68-18.54,23.5
	c-5.29,1.77,8.15,5.24,5.671,9.73c-2.471,4.46-24,25.38-34.521,25.01c-14.75-0.5-21.35-3.53-28.68-16.44
	c-1.04-1.85,9.439-8.85,7.43-9.81c-8.44-4.06-17.13-9.04-18.55-13.19c-0.9-2.61,13.09-5.16,10.74-6.81
	c-5.311-3.75-16.141-11.83-17.41-17.36c-0.351-1.55,11.04-8.53,9.6-9.2c-5.31-2.5-13.33-7.83-14.06-11.56
	c-0.58-2.92,9.45-7.97,7.189-9.69c-12.81-9.69-17.93-38.83-18.1-41.74c0.15,2.71-4.4,24.86-17.22,34.55
	c-2.271,1.71,8.729,5.97,7.8,8.85c-1.04,3.27-7.8,12.71-19.99,19.9c-3.58,2.11,17.92,4.38,16.67,8.75
	c-1.09,3.83-14.5,13.06-24.53,19.99C289.48,150,307.7,148,307.08,154.16c-0.521,5.16-19.79,11.27-14.891,13.65
	c10.94,5.31,17.101,21.31,0.721,24.84c-31.881,6.88,10.846,37.766-16.41,50.85c-13.54,6.5-19.83-18.97-32.32-22.72
	c-12.49-3.75-18.14-13.75-3.14-18.75s12.5-11.88-10-25.62c-10.72-6.55-9.73-12.38-2.8-16.7c4.73-4.03,13.93-9.9,12.07-10.33
	c-10.83-2.5-23.89-11.15-26.25-18.44c-0.82-2.52,10.09-7.79,7.81-9.06C200.62,110,197.5,62.5,197.5,62.5s-10.52,46.77-23.75,57.19
	c-1.13,0.89,14.62,5.55,13.75,10c-0.96,4.92-7.19,11.88-20.62,19.38c-1.91,1.06,20.5,10.4,19.97,12.5
	c-1.94,7.65-15.18,14.27-26.85,19.69c-4.27,1.98,18.23,12.92,14.17,14.43c-4.69,1.75-10.01,5.81-15,7.23
	c-7.24,2.07,8.94,17.33,8.54,25.42c-0.57,11.35-9.05,20.95-17.55,21.67c-34.74,2.92-65.66-32.51-58.41-66.06
	c1.287-5.954,24.19-7.08,18.66-10.19c-9.37-5.27-16.58-19.49-21.99-35.73c-1.11-3.33,10.12-5.82,8.24-8.85
	C83.01,107.15,77.24,94.3,75.74,79c0,0-5.37,27.14-20.68,49.02c-1.69,2.42,8.62,3.23,7.48,6.05c-2.87,7.1-11.59,15.77-20.19,20.45
	c-1.72,0.94,8.11,4.03,7.09,5.69C36.31,181.68,18.76,198.75,0,198.75V500h500V198.75C480.33,198.75,470.76,181.33,465.62,158.35z"/>
</svg>
