<svg version="1.1" id="Layer_1" xmlns="http://www.w3.org/2000/svg" xmlns:xlink="http://www.w3.org/1999/xlink" x="0px" y="0px"
	 width="500px" height="500px" viewBox="0 0 427.5 427.5" enable-background="new 0 0 427.5 427.5" xml:space="preserve">
<linearGradient id="SVGID_1_" gradientUnits="userSpaceOnUse" x1="213.7505" y1="427.5" x2="213.7505" y2="189.5835">
	<stop  offset="0" style="stop-color:#cbc8bc"/>
	<stop  offset="1" style="stop-color:#b7b4ab"/>
</linearGradient>
<rect y="189.583" fill="url(#SVGID_1_)" width="427.5" height="237.917"/>
<g>
	<linearGradient id="SVGID_2_" gradientUnits="userSpaceOnUse" x1="190.5068" y1="299.3945" x2="190.5068" y2="250.9062">
		<stop offset="0" style="stop-color:#beb6ab"/>
		<stop offset="1" style="stop-color:#aba296"/>
	</linearGradient>
	<polygon fill="url(#SVGID_2_)" points="180.446,251.074 180.606,257.659 180.177,264.335 180.3,271.013 180.349,277.693 
		180.3,284.37 180.065,291.054 180.376,297.735 190.505,299.395 200.509,297.735 200.665,291.06 200.948,284.383 200.909,277.705 
		200.704,271.026 200.765,264.349 200.552,257.666 200.806,250.906 193.903,250.918 187.11,251.026 	"/>
</g>
<g>
	<polygon fill="url(#SVGID_2_)" points="79.004,254.373 79.165,262.624 78.735,270.989 78.858,279.356 78.907,287.726 
		78.858,296.093 78.624,304.464 78.934,312.839 89.062,314.916 99.067,312.839 99.222,304.473 99.506,296.107 99.467,287.741 
		99.261,279.373 99.323,271.005 99.109,262.633 99.363,254.162 92.461,254.176 85.669,254.313 	"/>
</g>
<g>
	<polygon fill="url(#SVGID_2_)" points="417.264,246.663 417.309,255.693 417.34,264.686 417.444,273.673 417.527,282.671 
		417.272,291.665 427.5,293.604 437.668,291.665 437.809,291.665 437.904,282.677 437.803,273.686 437.691,264.696 437.961,255.7 
		437.664,246.777 430.94,246.548 424.126,246.809 	"/>
</g>
<g>
	<polygon fill="url(#SVGID_2_)" points="-10.139,246.772 -10.168,255.693 -10.063,264.686 -10.253,273.673 -10.025,282.671 
		-10.239,291.665 -0.031,293.925 10.271,291.674 10.382,291.667 10.423,282.677 10.42,273.686 10.371,264.696 10.029,255.7 
		10.356,246.587 3.409,246.697 -3.404,246.722 	"/>
</g>

<path fill="url(#SVGID_2_)" d="M285.53,293.357l-0.111-5.865l-0.214-5.866l0.498-5.866l-0.412-5.867l0.198-6.006l-6.821-0.154
	l-6.661,0.48l-6.666,0.007l-6.753-0.275l0.014,5.943l-0.208,5.864l0.366,5.863l-0.125,5.863l-0.221,5.862l0.354,5.863l0.096,3.926
	l0,0l-0.021,8.12l2.938,18.175c-0.168-10.785-1.526-20.342-2.674-25.595c1.802,5.201,4.647,14.653,6.368,26.609l1.02,0.075
	c0.122-16.441-0.988-21.74-0.988-21.74s3.099,13.469,4.417,21.99l1.972,0.144c1.678-7.643,1.464-10.944,1.464-10.944
	s0.507,5.542,0.511,10.924l1.03-0.016c2.678-13.947,0.465-21.054,0.465-21.054s3.172,8.179,2.895,21.002l0.778-0.012l0.106-0.041
	c2.576-11.854,2.317-15.487,2.317-15.487s0.834,8.427,0.872,14.267l2.462-0.942c0.072-0.161,0.135-0.31,0.203-0.464l0.4-5.466
	l-0.362-5.864l0.375-5.864l-0.458-5.862l0.605-5.865L285.53,293.357z"/>
<path fill="#cbc8bc" d="M12.892,257.471c-4.149,1.037-6.822,1.63-6.822,1.63s15.234,1.233,36.78-2.057
	c4.138,0.07,6.622-0.264,6.622-0.264s-0.588-0.238-1.449-0.599c4.18-0.761,8.525-1.66,13.039-2.796
	c-10.238,7.52-21.901,12.833-21.901,12.833s14.453,2.509,33.165-6.367c-3.8,3.912-6.863,6.367-6.863,6.367s8.283,2.516,18.986-6.411
	c-1.11,6.561-2.746,8.895-2.746,8.895s6.354-3.89,10.428-9.701c12.283,9.86,21.928,7.218,21.928,7.218s-3.834-2.786-8.384-7.164
	c19.346,7.615,34.116,5.42,34.116,5.42s-11.84-4.724-22.593-11.476c2.198,0.656,4.36,1.249,6.495,1.79
	c-1.257,0.303-2.012,0.466-2.012,0.466s1.71,0.133,4.739,0.203c12.899,3.086,24.32,4.31,32.809,4.717
	c-2.71,1.397-4.458,2.198-4.458,2.198s14.454,2.51,33.165-6.367c-3.799,3.914-6.864,6.367-6.864,6.367s4.033,1.128,10.05-1.108
	c1.377,0.08,4.003,0.163,7.631,0.126c-0.768,2.364-1.441,3.466-1.441,3.466s2.147-1.327,4.728-3.552
	c3.887-0.135,8.562-0.472,13.853-1.102c1.674,0.757,3.225,1.297,4.658,1.673c-16.522,6.308-37.444,10.935-37.444,10.935
	s24.315,2.004,54.993-5.716c-10.235,7.519-21.895,12.832-21.895,12.832s14.445,2.51,33.165-6.365
	c-3.808,3.909-6.863,6.365-6.863,6.365s8.283,2.516,18.988-6.412c-1.12,6.562-2.757,8.898-2.757,8.898s6.363-3.893,10.438-9.701
	c12.273,9.858,21.926,7.215,21.926,7.215s-3.84-2.784-8.381-7.162c19.336,7.612,34.116,5.418,34.116,5.418s-6.214-2.49-13.711-6.41
	c0.75-0.638,1.526-1.338,2.321-2.126c26.351,5.993,46.156,4.175,46.156,4.175s-6.62-1.622-15.312-4.281
	c12.215,2.548,20.457,1.338,20.457,1.338s-8.385-3.363-17.444-8.439c3.468-0.054,5.446-0.232,5.487-0.239
	c26.635,6.15,46.725,4.316,46.725,4.316s-25.216-6.163-41.98-14.206c17.01,3.334,29.859,2.92,33.808,2.673
	c-4.125,2.229-6.986,3.537-6.986,3.537s14.442,2.508,33.165-6.367c-3.809,3.91-6.863,6.367-6.863,6.367s8.283,2.516,18.986-6.414
	c-1.117,6.563-2.755,8.897-2.755,8.897s4.701-2.88,8.61-7.38V0H0v178.319v75.292c0.632-0.727,1.245-1.494,1.812-2.305
	C5.903,254.588,9.648,256.404,12.892,257.471z M360.511,247.011c-1.77-0.676-3.556-1.39-5.316-2.128
	c3.09,0.595,5.912,0.97,8.467,1.225C362.59,246.417,361.539,246.726,360.511,247.011z M383.907,254.67
	c-1.889-0.516-7.03-1.983-13.384-4.1c8.111-0.847,17.551-2.32,27.721-4.878C393.3,249.323,388.04,252.418,383.907,254.67z
	 M384.918,238.782c-4.176,1.765-8.826,3.43-13.469,4.932c-2.238-1.021-5.001-2.343-8.007-3.865c6.286-0.271,14.336-0.97,23.61-2.697
	C385.97,238.002,385.234,238.549,384.918,238.782z M367.483,229.5c-0.033,0.114-0.067,0.188-0.103,0.295
	c-0.19-0.085-0.418-0.174-0.635-0.256C366.974,229.529,367.25,229.509,367.483,229.5z M350.008,230.874
	c-0.242,0.206-0.439,0.368-0.439,0.368s1.858,0.518,4.883,0.189c5.202,0.503,9.437,0.457,12.313,0.269
	c-0.55,1.421-0.969,2.021-0.969,2.021s1.303-0.809,3.082-2.193c1.403-0.149,2.23-0.292,2.23-0.292s-0.485-0.173-1.278-0.478
	c0.542-0.443,1.111-0.942,1.687-1.473c3.147-0.233,6.739-0.67,10.646-1.359c0.677,0.366,1.36,0.746,2.011,1.045
	c-8.582,3.544-18.378,6.54-25.272,8.479c-3.824-2.089-7.815-4.425-11.571-6.978C348.262,230.643,349.114,230.74,350.008,230.874z
	 M298.924,268.021c0.659,0.181,1.318,0.354,1.973,0.525c-0.135,0.587-0.26,1.315-0.395,1.816c-0.902-0.495-1.794-0.991-2.705-1.515
	C298.164,268.608,298.549,268.284,298.924,268.021z M226.907,258.56c-0.409,0.315-0.708,0.553-1.019,0.781
	c-0.199-0.171-0.395-0.33-0.611-0.517C225.839,258.724,226.34,258.664,226.907,258.56z M207.745,255.159
	c0.343,0.277,0.664,0.451,1.002,0.705c-0.689,0.22-1.379,0.442-2.05,0.645C207.052,256.068,207.417,255.632,207.745,255.159z
	 M200.061,255.962c-0.181,1.059-0.381,1.834-0.581,2.681c-2.426,0.69-4.518,1.253-6.125,1.668
	C195.438,259.305,197.67,257.951,200.061,255.962z M142.074,249.963c-3.302-1.275-6.529-2.637-9.488-4.054
	c5.725,1.126,10.92,1.793,15.543,2.215C146.082,248.771,144.05,249.387,142.074,249.963z M138.237,238.48
	c2,0.385,3.861,0.663,5.649,0.897c-0.66,0.201-1.312,0.398-1.945,0.585C140.705,239.474,139.466,238.992,138.237,238.48z
	 M164.41,257.366c-3.299-0.947-7.131-2.103-11.202-3.438c7.102-0.894,15.025-2.261,23.463-4.387
	C172.518,252.59,168.158,255.251,164.41,257.366z M150.495,243.115c4.513-0.438,9.557-1.099,14.988-2.107
	c-1.094,0.846-1.829,1.395-2.146,1.626c-2.093,0.887-4.301,1.744-6.573,2.568C154.816,244.579,152.715,243.882,150.495,243.115z
	 M168.029,230.418c-4.622,2.214-9.99,4.282-15.255,6.088c-1.95-0.915-4.112-1.96-6.492-3.175c5.678-0.218,13.235-0.982,22.022-3.184
	C168.212,230.239,168.113,230.333,168.029,230.418z M158.081,215.182c-0.497,0.294-0.994,0.614-1.487,0.901
	c-0.792-0.712-1.594-1.427-2.463-2.26C155.492,214.354,156.771,214.738,158.081,215.182z M148.659,220.408
	c-0.849,0.442-1.642,0.847-2.419,1.231c-1.334-0.572-2.767-1.2-4.304-1.907C144.409,220.085,146.651,220.288,148.659,220.408z
	 M138.835,225.146c-0.492,0.221-0.781,0.346-0.781,0.346s2.655,0.202,7.077-0.062c5.636,0.011,9.021-0.6,9.021-0.6
	s-0.305-0.111-0.813-0.299c1.598-0.259,3.264-0.542,5.046-0.926c-6.294,3.103-12.407,5.61-16.736,7.275
	c-3.733-2.037-7.615-4.322-11.275-6.817C133.444,224.621,136.246,224.944,138.835,225.146z M42.642,238.376
	c-0.122-0.052-0.247-0.106-0.368-0.166c0.197,0.037,0.372,0.06,0.564,0.098C42.771,238.332,42.709,238.355,42.642,238.376z
	 M45.531,217.171c-0.723,0.459-1.445,0.88-2.17,1.314c-1.111-0.698-2.229-1.384-3.308-2.119
	C41.975,216.713,43.791,216.969,45.531,217.171z M33.307,247.079c2.776,0.712,5.472,1.321,8.115,1.87
	c-1.648,0.6-3.327,1.188-5.014,1.748c-1.996-1.025-4.062-2.157-6.17-3.377C31.228,247.252,32.255,247.177,33.307,247.079z
	 M24.611,254.342c-1.562,0.449-3.073,0.869-4.518,1.261c-1.374-1.157-2.956-2.53-4.739-4.241
	C18.608,252.637,21.663,253.559,24.611,254.342z"/>
</svg>
