<svg version="1.1" id="Layer_1" xmlns="http://www.w3.org/2000/svg" xmlns:xlink="http://www.w3.org/1999/xlink" x="0px" y="0px"
	 width="500px" height="500px" viewBox="0 0 500 500" enable-background="new 0 0 500 500" xml:space="preserve">
<path fill="#cbc8bc" d="M500,291.62v-23.54v-20.09v-7.19V115.74c-0.63-4.21-0.84-6.92-0.84-6.92s-10.53,41.82-23.75,51.13
	c-1.13,0.8,14.63,4.96,13.75,8.94c-0.84,3.87-5.78,9.16-16.12,14.94c-15.49-7.7-19.37-22.52-21.24-34.04l-0.85-4.17
	c-0.63-3.94-4.38,1.88-4.38,1.88s-7.931,26.12-21.15,34.83c-1.13,0.74,14.63,4.63,13.75,8.35c-0.96,4.11-7.189,9.92-20.62,16.18
	c-1.91,0.89-0.399,2.68-6.46,1.43c-32.09-6.62,4.58-18.29-21.99-31.94c-2.819-1.45,10.12-5.2,8.24-7.91
	c-13.67-19.69-13.92-26.63-15.42-40.31c0,0-10.89,19.72-26.2,39.28c-1.7,2.16,8.61,2.89,7.48,5.42
	c-2.48,5.48-9.36,11.88-16.72,16.25c-13.021-17.65-18.601-28.24-20.08-40.73c0,0-5.37,22.68-20.681,40.95
	c-1.7,2.02,9.91,4.1,7.48,5.06c-24.2,13.14-42.851,16.42-46.91,0.18c-0.45-1.75,12.13-3.23,10.62-4.49
	c-7.07-5.96-14.04-13.29-14.801-19.76c-0.199-1.66,14.201-3.24,12.931-4.46c-8.75-8.38-11.45-11.99-12.19-21.23
	c-0.289-3.66,11.45-5.75,8.01-7.98c-12.799-8.32-15.299-17.26-15.77-24.27c0.4,6-0.67,17.71-16.5,27.03
	c-4.27,2.52,9.03,6.15,8.02,10.91c-1.01,4.7-11.25,11.07-18.44,15.82c-2.12,1.4,13.72,2.94,13.02,5.21
	c-1.78,5.75-10.11,18.5-18.54,21.01c-5.29,1.58,8.15,4.68,5.67,8.69c-0.67,1.08-7.45,1.91-10.32,4.48
	c-5.38-4.77-9.344-8.702-9.88-13.52c-0.137-1.228,14.441-3.651,13.63-4.605c-6.068-7.138-15.15-10.765-15.89-19.395
	c-0.29-3.42,11.45-5.37,8.01-7.46c-12.8-7.77-14.85-18.04-14.57-24.68c-0.34,7.83-1.88,18.56-17.71,27.26
	c-4.27,2.35,9.03,5.75,8.02,10.2c-1.01,4.39-11.25,10.34-18.44,14.78c-2.12,1.3,16.72,2.74,16.02,4.86
	c-1.78,5.36-18.19,18.73-36.52,4.56c-1.98-1.53,16.41-13.99,14.06-15.47c-5.31-3.36-16.14-10.58-17.41-15.53
	c-0.35-1.39,11.04-7.62,9.6-8.23c-5.31-2.24-13.33-7-14.06-10.34c-0.58-2.6,9.45-7.13,7.19-8.66
	c-12.81-8.66-16.18-26.42-16.34-29.02c0.15,2.42-6.16,13.94-18.97,22.6c-2.27,1.53,8.73,5.34,7.8,7.91
	c-1.04,2.92-7.8,11.37-19.99,17.79c-3.58,1.89,17.92,3.92,16.67,7.83c-0.81,2.51-8.28,7.65-16.16,12.65
	c-4.68-2.29-9.63-5.51-10.2-7.93c-0.58-2.43,9.45-6.66,7.19-8.1c-12.81-8.09-13.69-28.39-13.85-30.82
	c0.15,2.26-8.65,16.73-21.46,24.82c-2.27,1.43,8.73,4.99,7.8,7.39c-1.04,2.73-7.8,10.62-19.99,16.63
	c-3.58,1.77,17.92,3.66,16.67,7.31c-1.09,3.2-26.36,11.01-38.54,2.5c-9.07-6.33-13.58-14.3-15.94-20.82
	c-0.82-2.26,10.09-6.96,7.81-8.11C7.64,153.96,1.89,128.19,0,115.72V240.8v7.19v20.09v23.54v31.159V500h251.66h50H450h50V322.779
	V291.62z"/>
</svg>
