<svg version="1.1" id="Layer_1" xmlns="http://www.w3.org/2000/svg" xmlns:xlink="http://www.w3.org/1999/xlink" x="0px" y="0px"
	 width="500px" height="500px" viewBox="0 0 500 500" enable-background="new 0 0 500 500" xml:space="preserve">
<g>
	<path fill="#d8d4c9" d="M321.68,394.362c2.781-2.618,4.15-3.422,4.15-3.422s-2.356,1.273-5.43,3.161
		c-1.247-0.254-2.493-0.505-3.738-0.755c0.335-2.748,0.706-3.868,0.706-3.868s-0.552,1.493-1.291,3.75
		c-0.884-0.177-1.767-0.354-2.648-0.527c0.362-4.478,0.939-6.223,0.939-6.223s-0.939,2.538-2.01,6.012
		c-1.059-0.208-2.118-0.418-3.176-0.623c2.534-3.148,5.929-7.715,6.704-10.486c-0.586,2.094-3.368,5.307-8.53,8.294
		c0.038-0.573,0.08-1.114,0.125-1.61c3.44-6.211,6.748-14.646,6.748-14.646s-2.207,5.273-11.696,15.86
		c2.924-5.263,9.356-31.677,9.356-31.677s-2.086,7.919-14.425,30.994c9.689-24.662,10.916-45.029,10.916-45.029
		s-1.88,18.312-17.225,45.051c-5.248-0.861-10.514-1.64-15.814-2.309c-7.164-23.465-5.125-37.367-5.125-37.367
		s-3.052,15.538-0.049,36.751c-0.152-0.018-0.304-0.032-0.455-0.049c-5.756-19.691-5.971-26.079-5.971-26.079
		s0.207,17.65,1.326,25.605c-0.383-0.037-0.767-0.072-1.151-0.107c-5.143-9.062-5.928-13.107-5.928-13.107s1.159,7.008,2.907,12.844
		c-0.382-0.03-0.764-0.062-1.146-0.092c-8.957-18.576-7.866-29.175-7.866-29.175s-2.053,12.04,2.724,28.813
		c-0.073-0.004-0.144-0.006-0.217-0.012c-7.485-16.16-8.157-21.234-8.157-21.234s1.685,16.205,3.53,20.998
		c-0.073-0.004-0.149-0.008-0.223-0.012c-6.918-8.435-8.127-12.041-8.127-12.041s2.154,7.181,4.745,11.916
		c-0.123-0.004-0.246-0.007-0.37-0.01c-4.379-3.02-6.664-5.63-7.167-7.163c0.464,1.789,2.434,4.75,4.145,7.088
		c-2.354-0.044-4.72-0.06-7.105-0.038c-13.592,0.122-27.452,0.775-42.297,1.883c1.401-2.912,3.517-7.691,3.412-9.809
		c0.078,1.562-1.745,4.996-6.158,9.46c1.702-5.226,2.409-13.233,2.409-13.233s-0.47,3.939-5.845,14.063
		c-0.019,0.001-0.038,0.003-0.055,0.005c1.032-4.572-0.693-21.992-0.693-21.992s0.365,5.096-3.668,22.354
		c-0.089,0.009-0.179,0.017-0.268,0.023c1.221-17.394-3.195-28.767-3.195-28.767s3.094,9.842-1.512,29.182
		c-0.119,0.011-0.237,0.022-0.356,0.031c0.453-7.229-0.475-17.347-0.475-17.347s0.349,5.226-2.875,17.655
		c-0.172,0.016-0.342,0.031-0.516,0.048c-0.592-8.185-5.793-30.79-5.793-30.79s1.558,7.418,1.075,31.241
		c-0.119,0.012-0.238,0.023-0.358,0.035c-2.696-24.852-10.147-42.247-10.147-42.247s5.262,13.874,5.095,38.976
		c-10.482-13.854-12.177-23.015-12.177-23.015s1.477,11.979,9.854,27.021c-0.292,0.029-0.586,0.061-0.877,0.09
		c-10.269-12.643-12.221-17.192-12.221-17.192s4.383,11.087,7.785,17.656c-0.864,0.09-1.733,0.183-2.607,0.274
		c-5.659-4.51-7.187-6.811-7.187-6.811s2.178,3.514,4.873,7.059c-1.511,0.164-3.038,0.328-4.573,0.498
		c-0.942-0.715-1.548-1.383-1.8-1.942c0.258,0.574,0.767,1.257,1.421,1.983c-4.033,0.443-8.167,0.909-12.39,1.391
		c0.399-5.02,1.094-6.908,1.094-6.908s-1.315,3.236-2.521,7.072c-0.953,0.109-1.899,0.217-2.862,0.328
		c-0.589-7.571-0.051-10.282-0.051-10.282s-1.141,4.837-1.932,10.512c-0.507,0.059-1.016,0.118-1.526,0.177
		c-5.538-4.432-7.045-6.695-7.045-6.695s2.137,3.446,4.796,6.956c-1.51,0.177-3.04,0.355-4.575,0.536
		c-0.894-0.69-1.478-1.336-1.721-1.878c0.25,0.558,0.74,1.217,1.366,1.92c-6.112,0.718-12.423,1.469-18.969,2.251
		c0.457-2.681,0.78-4.791,0.902-5.607c-0.13,0.682-0.569,2.385-1.952,5.732c-1.598,0.192-3.21,0.385-4.836,0.579
		c1.236-9.984-0.158-15.935-0.158-15.935s0.458,5.816-3.078,16.323c-4.317,0.517-8.731,1.048-13.249,1.588
		c0.553-7.276,0.843-13.62,0.843-13.62s-0.261,3.723-3.233,13.907c-1.312,0.156-2.631,0.315-3.962,0.474
		c1.195-16.378-0.759-27.291-0.759-27.291s-0.456,13.983-3.189,27.762c-4.708,0.562-9.526,1.136-14.458,1.721
		c-0.111-3.662,0.227-5.627,0.227-5.627s-0.483,2.086-0.856,5.701c-5.288,0.625-10.71,1.263-16.271,1.913
		c-0.116-1.566-0.021-2.396-0.021-2.396s-0.171,0.877-0.292,2.433c-11.168,1.303-22.89,2.651-35.247,4.039v92.689h500v-92.689
		C425.493,417.561,372.354,404.706,321.68,394.362z"/>
</g>
<path fill="#b5a99c" d="M329.532,317.021l43.251-8.154l-5.239-0.584l-26.608,3.021l-6.628-0.033l6.723-6.236l0.198-13.028
	l-1.868,12.274l-10.413,8.486l-29.532,8.641l-1.022-30.732l0.01-9.328l0.705-9.328l-0.342-9.328l-0.213-9.331l-0.789-9.333
	l1.537-9.33l-1.052-9.338l-0.341-8.753l-8.021-1.277l-8.655,0.396l-8.65-0.33l-8.65-0.217l-8.834,0.688l0.682,9.48l-0.441,9.328
	l0.031,9.325l-0.291,9.328l0.046,9.329l0.58,9.329l-0.257,4.686l-18.923-8.411l-8.288-10.259l-1.487-14.838l0.157,15.749
	l5.351,7.541l-5.275,0.041l-21.175-3.654l-4.169,0.707l32.963,7.248l20.698,13.152l0.274,6.695l0.215,9.33l-1.153,9.33l1.494,9.33
	l-0.387,9.325l-1.037,9.329l1.277,9.33l-0.747,9.335l-0.54,9.331l0.846,9.336l0.002,0.062c1.292,3.65,3.025,7.776,5.359,12.355
	c0.346,0.31,0.677,0.612,1.053,0.927c-2.324-6.061-3.966-16.006-3.966-16.006s0.937,4.902,7.65,16.057
	c-1.624-5.082-1.896-28.447-1.896-28.447s0.232,7.045,6.895,29.199c-3.777-22.771-0.419-39.822-0.419-39.822
	s-2.313,15.746,6.624,42.017l13.994-1.778c2.834-4.897,5.209-9.512,7.211-13.792l0.025-0.759l-0.1-9.328l0.427-9.326l0.97-9.328
	l-1.049-9.329l-0.326-4.659l0.877-4.577L329.532,317.021z"/>
<g>
	<path fill="#b1a898" d="M31.819,389.25l0.23,9.417l0.253,9.424l0.929,6.455c0.582,1.246,1.29,2.69,2.117,4.308l1.699,1.344
		c-3.09-11.441-1.507-19.357-1.507-19.357s-0.98,8.15,6.998,22.454l1.379,0.574c-1.606-4.592-2.667-10.023-2.667-10.023
		s0.797,3.501,6.24,11.4l0.581,0.104c-1.222-5.618-1.439-21.315-1.439-21.315s0.215,5.376,6.101,22.132l0.169,0.029
		c-3.236-17.547-0.214-30.573-0.214-30.573s-1.794,10.363,4.219,27.952c11.873-10.708,13.201-51.81,13.201-51.81
		s3.669,20.426-2.101,47.349c9.475-26.067,10.054-34.438,10.054-34.438s-1.269,27.783-3.566,33.759
		c9.115-12.983,10.517-18.775,10.517-18.775s-2.51,11.758-5.752,18.868c0.5-0.355,0.938-0.704,1.397-1.055
		c13.974-23.378,12.888-37.089,12.888-37.089s3.172,13.493-4.268,33.967c2.623-4.76,4.619-8.628,6.163-11.799l0.048-3.862
		l-1.215-9.413l0.127-9.414l0.194-9.416l0.548-9.414l0.36-9.416l0.381-9.416l0.16-9.416l-0.833-9.417l-0.247-9.417l0.367-9.415
		l0.555-9.413l-0.239-9.416l-0.542-9.418l0.521-9.42l-0.796-9.42l0.248-9.423l0.676-10.004l-9.523-0.242l-8.91,0.347l-8.911-0.25
		l-8.915,0.246l-8.911,0.019l-8.901,1.266l-8.537-0.426l-1.256,9.034l0.476,9.411l-0.433,9.414l-0.073,9.412l0.453,9.416
		l0.499,9.416l-0.455,9.416l-0.258,9.414l1.379,9.416l-0.23,9.418l-0.935,9.416l-0.316,9.416l0.398,9.414l1.269,9.416l-1.728,9.418
		L31.819,389.25z"/>
</g>
<path fill="#d8d4c9" d="M500.002,0H0v252.852c6.011-1.224,12.587-2.972,19.562-5.458c0.93,1.444,1.836,2.728,2.713,3.898
	c-8.769,7.188-16.038,11.75-16.038,11.75s17.288,4.021,39.903-9.935c-5.311,8.026-9.802,13.134-9.802,13.134
	s11.289,4.846,25.645-13.228c4.765,10.649,12.206,17.781,12.206,17.781s-1.913-4.282-3.224-16.312
	c12.521,16.365,22.208,11.758,22.208,11.758s-3.573-4.504-8.027-11.672c21.896,16.273,38.791,11.672,38.791,11.672
	s-13.635-9.746-25.608-23.523c35.881,14.15,64.318,10.475,64.318,10.475s-24.47-8.48-43.793-20.043
	c1.677-0.689,3.49-1.68,5.448-3.068c6.187,1.158,11.655,1.774,16.201,2.019c3.02,4.082,5.531,6.515,5.531,6.515
	s-0.787-2.021-1.685-6.359c4.244,0.068,7.314-0.085,8.925-0.232c7.039,4.103,11.756,2.037,11.756,2.037s-3.585-4.498-8.028-11.674
	c21.884,16.269,38.79,11.674,38.79,11.674s-2.044-1.47-5.214-4.033c9.929-0.746,23.287-2.988,38.374-8.645
	c3.542-0.124,5.542-0.374,5.542-0.374s-0.883-0.301-2.353-0.856c2.497-0.991,5.026-2.075,7.595-3.277
	c-12.575,12.377-26.423,21.035-26.423,21.035s17.275,4.021,39.901-9.936c-5.322,8.022-9.806,13.131-9.806,13.131
	s11.282,4.847,25.648-13.229c4.764,10.653,12.196,17.785,12.196,17.785s-1.914-4.279-3.211-16.306
	c12.518,16.366,22.205,11.752,22.205,11.752s-3.581-4.498-8.026-11.67c21.887,16.269,38.788,11.67,38.788,11.67
	s-13.64-9.743-25.614-23.525c5.281,2.08,10.361,3.729,15.251,5.124c-1.006,0.659-1.694,1.101-1.694,1.101s2.904,0.609,7.745,0.475
	c25.2,6.04,43.017,3.778,43.017,3.778s-3.128-1.091-7.979-2.993c3.794-1.956,8.175-5.284,12.959-11.301
	c0.661,1.487,1.381,2.896,2.119,4.226v0.021c4.573,8.254,10.076,13.536,10.076,13.536s-1.915-4.28-3.224-16.309
	c12.521,16.368,22.207,11.754,22.207,11.754s-3.575-4.499-8.025-11.67c21.896,16.269,38.788,11.67,38.788,11.67
	s-3.347-2.393-8.171-6.478c4.616,0.447,19.646,1.207,39.54-4.903c-19.609,14.742-49.098,26.04-49.098,26.04
	s23.497,3.362,54.648-7.915c0.048,0.017,2.364,0.344,6.417,0.442c-10.597,9.303-20.401,15.469-20.401,15.469
	s9.64,2.218,23.926-2.451c-10.166,4.874-17.909,7.845-17.909,7.845s13.871,1.991,34.418-2.192V0z M25.343,248.705
	c-0.158-0.923-0.304-2.258-0.462-3.33c0.765-0.313,1.534-0.635,2.308-0.967c0.438,0.485,0.889,1.075,1.318,1.517
	C27.44,246.883,26.397,247.794,25.343,248.705z M112.609,228.495c-0.364-0.418-0.712-0.852-1.193-1.43
	c0.664,0.195,1.249,0.302,1.908,0.488C113.069,227.893,112.842,228.184,112.609,228.495z M132.657,222.124
	c0.396-0.465,0.772-0.786,1.172-1.292c0.384,0.866,0.811,1.666,1.227,2.473C134.27,222.935,133.463,222.529,132.657,222.124z
	 M143.496,227.218c-0.234-1.551-0.468-2.976-0.68-4.917c2.798,3.651,5.407,6.133,7.843,7.971
	C148.78,229.516,146.333,228.48,143.496,227.218z M210.799,155.888c-1.798,1.295-3.474,2.448-5.034,3.494
	c-0.909-0.706-1.836-1.447-2.831-2.257C205.285,156.904,207.906,156.533,210.799,155.888z M196.537,145.057
	c-1.016,1.522-1.956,2.833-2.88,4.141c-0.578-0.525-1.158-1.117-1.74-1.653C193.448,146.73,194.945,146.028,196.537,145.057z
	 M184.515,224.876c-4.384-3.875-9.483-8.752-14.341-14.343c9.869,3.898,19.135,6.4,27.442,8.041
	C192.855,221.022,188.373,223.145,184.515,224.876z M179.959,174.98c10.277,4.033,19.116,5.434,25.756,5.835
	c-2.783,2.228-5.312,4.144-7.592,5.821c-6.158-3.311-12.438-7.105-17.842-11.16C180.184,175.322,180.067,175.148,179.959,174.98z
	 M193.456,202.58c-2.657-1.512-5.238-3.083-7.688-4.712c-0.37-0.422-1.23-1.428-2.51-2.981c6.352,1.85,12.253,3.064,17.529,3.864
	C198.193,200.157,195.736,201.435,193.456,202.58z M210.639,211.303c-2.312-1.056-4.688-2.184-7.082-3.373
	c5.407-0.77,11.482-1.995,18.179-4.057C218.275,206.47,214.5,208.965,210.639,211.303z M208.518,191.9
	c2.091-0.43,4.268-0.94,6.607-1.641c-1.438,0.932-2.886,1.816-4.332,2.717C210.054,192.629,209.29,192.266,208.518,191.9z
	 M211.136,176.328c-5.063-3.054-12.213-7.653-19.573-13.338c2.083,0.706,4.032,1.223,5.901,1.696
	c-0.594,0.344-0.95,0.547-0.95,0.547s3.959,1.12,10.551,1.101c5.172,0.484,8.276,0.113,8.276,0.113s-0.338-0.235-0.914-0.635
	c3.029-0.371,6.307-0.966,9.896-1.982C220.041,168.403,215.502,172.587,211.136,176.328z M326.933,190.064
	c-0.077-0.038-0.151-0.081-0.229-0.129c0.224-0.066,0.427-0.106,0.657-0.175C327.22,189.869,327.073,189.968,326.933,190.064z
	 M326.093,153.601c-0.849-0.8-1.692-1.567-2.538-2.412c2.035-0.371,4.16-0.84,6.408-1.471
	C328.698,151.065,327.392,152.319,326.093,153.601z M334.225,212.651c-1.975-1.028-3.936-2.103-5.864-3.205
	c3.091-1.005,6.243-2.121,9.489-3.428c1.231,0.177,2.433,0.316,3.59,0.443C338.975,208.699,336.559,210.771,334.225,212.651z
	 M353.306,221.643c-1.69-0.72-3.456-1.486-5.284-2.313c3.445-1.436,7.02-3.124,10.825-5.461
	C356.763,217.008,354.913,219.521,353.306,221.643z M447.866,173.864c-0.253,0.151-0.517,0.316-0.742,0.466
	c-0.039-0.191-0.079-0.327-0.119-0.54C447.279,173.808,447.602,173.846,447.866,173.864z M427.797,219.933
	c-4.834-4.127-10.986-9.801-16.768-16.457c11.895,4.687,22.932,7.389,32.423,8.94C436.02,216.298,430.005,218.989,427.797,219.933z
	 M424.116,187.817c10.847,3.167,20.264,4.448,27.614,4.945c-3.517,2.793-6.747,5.214-9.364,7.086
	c-5.431-2.753-10.869-5.805-15.753-9.04C426.244,190.38,425.384,189.378,424.116,187.817z M455.16,205.895
	c-1.201-0.521-2.431-1.086-3.682-1.655c2.989-0.465,6.289-1.153,9.904-2.247C459.32,203.347,457.23,204.656,455.16,205.895z
	 M457.045,188.361c-8.066-3.553-19.522-9.044-29.56-15.544c0.761-0.547,1.561-1.237,2.351-1.917
	c4.571,1.271,8.772,2.071,12.452,2.496c0.673,0.977,1.339,1.885,1.974,2.697c-0.928,0.561-1.494,0.88-1.494,0.88
	s0.967,0.261,2.606,0.536c2.081,2.532,3.604,4.02,3.604,4.02s-0.488-1.101-1.133-3.703c3.367,0.344,8.319,0.429,14.401-0.498
	c3.535,0.603,5.712-0.344,5.712-0.344s-0.23-0.297-0.514-0.676c1.045-0.246,2.042-0.422,3.133-0.737
	C466.185,180.254,461.519,184.533,457.045,188.361z"/>
</svg>
